{
copyright = "Copyright (c) 2015, Cadson Demak (info@cadsondemak.com)";
customParameters = (
{
name = vendorID;
value = CDK;
},
{
name = description;
value = "Copyright (c) 2015, Cadson Demak (info@cadsondemak.com)";
},
{
name = license;

glyphs = (
{
glyphname = A;
lastChange = "2015-10-27 07:14:28 +0000";
layers = (
{
layerId = "100B1594-ACEA-4BEF-8FE3-15A73D27750B";
name = Regular;
paths = (
{
closed = 1;
nodes = (
"221 0 LINE",
"221 11 LINE",
"199 19 OFFCURVE",
"174 26 OFFCURVE",
"138 30 CURVE",
"344 604 LINE",
"547 30 LINE",
"517 27 OFFCURVE",
"492 22 OFFCURVE",
"466 12 CURVE",
"466 0 LINE",
"716 0 LINE",
"716 12 LINE",
"691 21 OFFCURVE",
"664 27 OFFCURVE",
"638 31 CURVE",
"393 704 LINE",
"330 704 LINE",
"85 32 LINE",
"67 30 OFFCURVE",
"31 22 OFFCURVE",
"7 13 CURVE",
"7 0 LINE"
);
},
{
closed = 1;
nodes = (
"519 182 LINE",
"519 217 LINE",
"175 217 LINE",
"175 182 LINE"
);
}
);
width = 723;
}
);
leftKerningGroup = A;
note = A;
rightKerningGroup = A;
unicode = 0041;
},
{
glyphname = Aacute;
lastChange = "2015-10-01 16:44:41 +0000";
layers = (
{
layerId = "100B1594-ACEA-4BEF-8FE3-15A73D27750B";
name = Regular;
paths = (
{
closed = 1;
nodes = (
"221 0 LINE",
"221 11 LINE",
"199 19 OFFCURVE",
"174 26 OFFCURVE",
"138 30 CURVE",
"344 604 LINE",
"547 30 LINE",
"517 27 OFFCURVE",
"492 22 OFFCURVE",
"466 12 CURVE",
"466 0 LINE",
"716 0 LINE",
"716 12 LINE",
"691 21 OFFCURVE",
"664 27 OFFCURVE",
"638 31 CURVE",
"393 704 LINE",
"330 704 LINE",
"85 32 LINE",
"67 30 OFFCURVE",
"31 22 OFFCURVE",
"7 13 CURVE",
"7 0 LINE"
);
},
{
closed = 1;
nodes = (
"519 182 LINE",
"519 217 LINE",
"175 217 LINE",
"175 182 LINE"
);
},
{
closed = 1;
nodes = (
"463 868 LINE SMOOTH",
"484 881 OFFCURVE",
"495 895 OFFCURVE",
"495 911 CURVE SMOOTH",
"495 924 OFFCURVE",
"485 938 OFFCURVE",
"464 938 CURVE SMOOTH",
"442 938 OFFCURVE",
"426 922 OFFCURVE",
"419 915 CURVE",
"305 809 LINE",
"321 786 LINE"
);
}
);
width = 723;
}
);
leftKerningGroup = A;
note = Aacute;
rightKerningGroup = A;
unicode = 00C1;
},
{
glyphname = Abreve;
lastChange = "2015-10-01 16:44:41 +0000";
layers = (
{
layerId = "100B1594-ACEA-4BEF-8FE3-15A73D27750B";
name = Regular;
paths = (
{
closed = 1;
nodes = (
"221 0 LINE",
"221 11 LINE",
"199 19 OFFCURVE",
"174 26 OFFCURVE",
"138 30 CURVE",
"344 604 LINE",
"547 30 LINE",
"517 27 OFFCURVE",
"492 22 OFFCURVE",
"466 12 CURVE",
"466 0 LINE",
"716 0 LINE",
"716 12 LINE",
"691 21 OFFCURVE",
"664 27 OFFCURVE",
"638 31 CURVE",
"393 704 LINE",
"330 704 LINE",
"85 32 LINE",
"67 30 OFFCURVE",
"31 22 OFFCURVE",
"7 13 CURVE",
"7 0 LINE"
);
},
{
closed = 1;
nodes = (
"519 182 LINE",
"519 217 LINE",
"175 217 LINE",
"175 182 LINE"
);
},
{
closed = 1;
nodes = (
"445 775 OFFCURVE",
"506 814 OFFCURVE",
"516 899 CURVE",
"460 899 LINE",
"452 823 OFFCURVE",
"402 812 OFFCURVE",
"361 812 CURVE SMOOTH",
"320 812 OFFCURVE",
"269 823 OFFCURVE",
"261 899 CURVE",
"205 899 LINE",
"216 814 OFFCURVE",
"276 775 OFFCURVE",
"361 775 CURVE SMOOTH"
);
}
);
width = 723;
}
);
leftKerningGroup = A;
note = Abreve;
rightKerningGroup = A;
unicode = 0102;
},
{
glyphname = Abreveacute;
lastChange = "2015-10-01 16:44:41 +0000";
layers = (
{
layerId = "100B1594-ACEA-4BEF-8FE3-15A73D27750B";
name = Regular;
paths = (
{
closed = 1;
nodes = (
"221 0 LINE",
"221 11 LINE",
"199 19 OFFCURVE",
"174 26 OFFCURVE",
"138 30 CURVE",
"344 604 LINE",
"547 30 LINE",
"517 27 OFFCURVE",
"492 22 OFFCURVE",
"466 12 CURVE",
"466 0 LINE",
"716 0 LINE",
"716 12 LINE",
"691 21 OFFCURVE",
"664 27 OFFCURVE",
"638 31 CURVE",
"393 704 LINE",
"330 704 LINE",
"85 32 LINE",
"67 30 OFFCURVE",
"31 22 OFFCURVE",
"7 13 CURVE",
"7 0 LINE"
);
},
{
closed = 1;
nodes = (
"519 182 LINE",
"519 217 LINE",
"175 217 LINE",
"175 182 LINE"
);
},
{
closed = 1;
nodes = (
"451 786 OFFCURVE",
"511 825 OFFCURVE",
"522 909 CURVE",
"466 909 LINE",
"458 833 OFFCURVE",
"407 823 OFFCURVE",
"366 823 CURVE SMOOTH",
"325 823 OFFCURVE",
"275 833 OFFCURVE",
"267 909 CURVE",
"211 909 LINE",
"221 825 OFFCURVE",
"282 786 OFFCURVE",
"366 786 CURVE SMOOTH"
);
},
{
closed = 1;
nodes = (
"446 962 LINE SMOOTH",
"478 979 OFFCURVE",
"492 999 OFFCURVE",
"492 1015 CURVE SMOOTH",
"492 1028 OFFCURVE",
"482 1038 OFFCURVE",
"466 1038 CURVE SMOOTH",
"450 1038 OFFCURVE",
"430 1027 OFFCURVE",
"407 1005 CURVE SMOOTH",
"327 926 LINE",
"342 905 LINE"
);
}
);
width = 723;
}
);
leftKerningGroup = A;
note = Abreveacute;
rightKerningGroup = A;
unicode = 1EAE;
},
{
glyphname = Abrevedotbelow;
lastChange = "2015-10-01 16:44:41 +0000";
layers = (
{
layerId = "100B1594-ACEA-4BEF-8FE3-15A73D27750B";
name = Regular;
paths = (
{
closed = 1;
nodes = (
"221 0 LINE",
"221 11 LINE",
"199 19 OFFCURVE",
"174 26 OFFCURVE",
"138 30 CURVE",
"344 604 LINE",
"547 30 LINE",
"517 27 OFFCURVE",
"492 22 OFFCURVE",
"466 12 CURVE",
"466 0 LINE",
"716 0 LINE",
"716 12 LINE",
"691 21 OFFCURVE",
"664 27 OFFCURVE",
"638 31 CURVE",
"393 704 LINE",
"330 704 LINE",
"85 32 LINE",
"67 30 OFFCURVE",
"31 22 OFFCURVE",
"7 13 CURVE",
"7 0 LINE"
);
},
{
closed = 1;
nodes = (
"385 -151 OFFCURVE",
"403 -132 OFFCURVE",
"403 -106 CURVE SMOOTH",
"403 -78 OFFCURVE",
"385 -59 OFFCURVE",
"358 -59 CURVE SMOOTH",
"331 -59 OFFCURVE",
"313 -78 OFFCURVE",
"313 -106 CURVE SMOOTH",
"313 -132 OFFCURVE",
"331 -151 OFFCURVE",
"358 -151 CURVE SMOOTH"
);
},
{
closed = 1;
nodes = (
"519 182 LINE",
"519 217 LINE",
"175 217 LINE",
"175 182 LINE"
);
},
{
closed = 1;
nodes = (
"437 775 OFFCURVE",
"498 814 OFFCURVE",
"508 899 CURVE",
"452 899 LINE",
"444 823 OFFCURVE",
"394 812 OFFCURVE",
"353 812 CURVE SMOOTH",
"312 812 OFFCURVE",
"261 823 OFFCURVE",
"253 899 CURVE",
"197 899 LINE",
"208 814 OFFCURVE",
"268 775 OFFCURVE",
"353 775 CURVE SMOOTH"
);
}
);
width = 723;
}
);
leftKerningGroup = A;
note = Abrevedotbelow;
rightKerningGroup = A;
unicode = 1EB6;
},
{
glyphname = Abrevegrave;
lastChange = "2015-10-01 16:44:41 +0000";
layers = (
{
layerId = "100B1594-ACEA-4BEF-8FE3-15A73D27750B";
name = Regular;
paths = (
{
closed = 1;
nodes = (
"221 0 LINE",
"221 11 LINE",
"199 19 OFFCURVE",
"174 26 OFFCURVE",
"138 30 CURVE",
"344 604 LINE",
"547 30 LINE",
"517 27 OFFCURVE",
"492 22 OFFCURVE",
"466 12 CURVE",
"466 0 LINE",
"716 0 LINE",
"716 12 LINE",
"691 21 OFFCURVE",
"664 27 OFFCURVE",
"638 31 CURVE",
"393 704 LINE",
"330 704 LINE",
"85 32 LINE",
"67 30 OFFCURVE",
"31 22 OFFCURVE",
"7 13 CURVE",
"7 0 LINE"
);
},
{
closed = 1;
nodes = (
"519 182 LINE",
"519 217 LINE",
"175 217 LINE",
"175 182 LINE"
);
},
{
closed = 1;
nodes = (
"452 786 OFFCURVE",
"512 825 OFFCURVE",
"523 909 CURVE",
"467 909 LINE",
"459 833 OFFCURVE",
"408 823 OFFCURVE",
"367 823 CURVE SMOOTH",
"326 823 OFFCURVE",
"276 833 OFFCURVE",
"268 909 CURVE",
"212 909 LINE",
"222 825 OFFCURVE",
"283 786 OFFCURVE",
"367 786 CURVE SMOOTH"
);
},
{
closed = 1;
nodes = (
"405 926 LINE",
"324 1005 LINE SMOOTH",
"301 1027 OFFCURVE",
"281 1038 OFFCURVE",
"265 1038 CURVE SMOOTH",
"250 1038 OFFCURVE",
"240 1028 OFFCURVE",
"240 1015 CURVE SMOOTH",
"240 999 OFFCURVE",
"253 979 OFFCURVE",
"285 962 CURVE SMOOTH",
"390 905 LINE"
);
}
);
width = 723;
}
);
leftKerningGroup = A;
note = Abrevegrave;
rightKerningGroup = A;
unicode = 1EB0;
},
{
glyphname = Abrevehookabove;
lastChange = "2015-10-01 16:44:41 +0000";
layers = (
{
layerId = "100B1594-ACEA-4BEF-8FE3-15A73D27750B";
name = Regular;
paths = (
{
closed = 1;
nodes = (
"221 0 LINE",
"221 11 LINE",
"199 19 OFFCURVE",
"174 26 OFFCURVE",
"138 30 CURVE",
"344 604 LINE",
"547 30 LINE",
"517 27 OFFCURVE",
"492 22 OFFCURVE",
"466 12 CURVE",
"466 0 LINE",
"716 0 LINE",
"716 12 LINE",
"691 21 OFFCURVE",
"664 27 OFFCURVE",
"638 31 CURVE",
"393 704 LINE",
"330 704 LINE",
"85 32 LINE",
"67 30 OFFCURVE",
"31 22 OFFCURVE",
"7 13 CURVE",
"7 0 LINE"
);
},
{
closed = 1;
nodes = (
"519 182 LINE",
"519 217 LINE",
"175 217 LINE",
"175 182 LINE"
);
},
{
closed = 1;
nodes = (
"451 786 OFFCURVE",
"511 825 OFFCURVE",
"522 909 CURVE",
"466 909 LINE",
"458 833 OFFCURVE",
"407 823 OFFCURVE",
"366 823 CURVE SMOOTH",
"325 823 OFFCURVE",
"275 833 OFFCURVE",
"267 909 CURVE",
"211 909 LINE",
"221 825 OFFCURVE",
"282 786 OFFCURVE",
"366 786 CURVE SMOOTH"
);
},
{
closed = 1;
nodes = (
"377 896 LINE",
"386 949 LINE",
"431 953 OFFCURVE",
"459 972 OFFCURVE",
"459 1012 CURVE SMOOTH",
"459 1059 OFFCURVE",
"417 1078 OFFCURVE",
"373 1078 CURVE SMOOTH",
"348 1078 OFFCURVE",
"323 1071 OFFCURVE",
"307 1064 CURVE",
"313 1037 LINE",
"330 1046 OFFCURVE",
"348 1050 OFFCURVE",
"363 1050 CURVE SMOOTH",
"397 1050 OFFCURVE",
"413 1034 OFFCURVE",
"413 1013 CURVE SMOOTH",
"413 987 OFFCURVE",
"394 971 OFFCURVE",
"359 971 CURVE SMOOTH",
"338 971 LINE",
"342 896 LINE"
);
}
);
width = 723;
}
);
leftKerningGroup = A;
note = Abrevehookabove;
rightKerningGroup = A;
unicode = 1EB2;
},
{
glyphname = Abrevetilde;
lastChange = "2015-10-01 16:44:41 +0000";
layers = (
{
layerId = "100B1594-ACEA-4BEF-8FE3-15A73D27750B";
name = Regular;
paths = (
{
closed = 1;
nodes = (
"221 0 LINE",
"221 11 LINE",
"199 19 OFFCURVE",
"174 26 OFFCURVE",
"138 30 CURVE",
"344 604 LINE",
"547 30 LINE",
"517 27 OFFCURVE",
"492 22 OFFCURVE",
"466 12 CURVE",
"466 0 LINE",
"716 0 LINE",
"716 12 LINE",
"691 21 OFFCURVE",
"664 27 OFFCURVE",
"638 31 CURVE",
"393 704 LINE",
"330 704 LINE",
"85 32 LINE",
"67 30 OFFCURVE",
"31 22 OFFCURVE",
"7 13 CURVE",
"7 0 LINE"
);
},
{
closed = 1;
nodes = (
"519 182 LINE",
"519 217 LINE",
"175 217 LINE",
"175 182 LINE"
);
},
{
closed = 1;
nodes = (
"451 786 OFFCURVE",
"511 825 OFFCURVE",
"522 909 CURVE",
"466 909 LINE",
"458 833 OFFCURVE",
"407 823 OFFCURVE",
"366 823 CURVE SMOOTH",
"325 823 OFFCURVE",
"275 833 OFFCURVE",
"267 909 CURVE",
"211 909 LINE",
"221 825 OFFCURVE",
"282 786 OFFCURVE",
"366 786 CURVE SMOOTH"
);
},
{
closed = 1;
nodes = (
"237 968 LINE",
"244 1003 OFFCURVE",
"267 1025 OFFCURVE",
"296 1025 CURVE SMOOTH",
"334 1025 OFFCURVE",
"381 969 OFFCURVE",
"429 969 CURVE SMOOTH",
"485 969 OFFCURVE",
"516 1010 OFFCURVE",
"524 1073 CURVE",
"494 1073 LINE",
"484 1030 OFFCURVE",
"458 1013 OFFCURVE",
"430 1013 CURVE SMOOTH",
"391 1013 OFFCURVE",
"354 1068 OFFCURVE",
"299 1068 CURVE SMOOTH",
"249 1068 OFFCURVE",
"214 1037 OFFCURVE",
"205 968 CURVE"
);
}
);
width = 723;
}
);
leftKerningGroup = A;
note = Abrevetilde;
rightKerningGroup = A;
unicode = 1EB4;
},
{
glyphname = Acaron;
lastChange = "2015-10-01 16:44:42 +0000";
layers = (
{
layerId = "100B1594-ACEA-4BEF-8FE3-15A73D27750B";
name = Regular;
paths = (
{
closed = 1;
nodes = (
"221 0 LINE",
"221 11 LINE",
"199 19 OFFCURVE",
"174 26 OFFCURVE",
"138 30 CURVE",
"344 604 LINE",
"547 30 LINE",
"517 27 OFFCURVE",
"492 22 OFFCURVE",
"466 12 CURVE",
"466 0 LINE",
"716 0 LINE",
"716 12 LINE",
"691 21 OFFCURVE",
"664 27 OFFCURVE",
"638 31 CURVE",
"393 704 LINE",
"330 704 LINE",
"85 32 LINE",
"67 30 OFFCURVE",
"31 22 OFFCURVE",
"7 13 CURVE",
"7 0 LINE"
);
},
{
closed = 1;
nodes = (
"519 182 LINE",
"519 217 LINE",
"175 217 LINE",
"175 182 LINE"
);
},
{
closed = 1;
nodes = (
"383 786 LINE",
"412 827 OFFCURVE",
"473 882 OFFCURVE",
"514 909 CURVE",
"476 941 LINE",
"438 913 OFFCURVE",
"390 868 OFFCURVE",
"364 832 CURVE",
"359 832 LINE",
"333 868 OFFCURVE",
"284 913 OFFCURVE",
"246 941 CURVE",
"209 909 LINE",
"249 882 OFFCURVE",
"311 827 OFFCURVE",
"340 786 CURVE"
);
}
);
width = 723;
}
);
leftKerningGroup = A;
note = Acaron;
rightKerningGroup = A;
unicode = 01CD;
},
{
glyphname = Acircumflex;
lastChange = "2015-10-01 16:44:42 +0000";
layers = (
{
layerId = "100B1594-ACEA-4BEF-8FE3-15A73D27750B";
name = Regular;
paths = (
{
closed = 1;
nodes = (
"221 0 LINE",
"221 11 LINE",
"199 19 OFFCURVE",
"174 26 OFFCURVE",
"138 30 CURVE",
"344 604 LINE",
"547 30 LINE",
"517 27 OFFCURVE",
"492 22 OFFCURVE",
"466 12 CURVE",
"466 0 LINE",
"716 0 LINE",
"716 12 LINE",
"691 21 OFFCURVE",
"664 27 OFFCURVE",
"638 31 CURVE",
"393 704 LINE",
"330 704 LINE",
"85 32 LINE",
"67 30 OFFCURVE",
"31 22 OFFCURVE",
"7 13 CURVE",
"7 0 LINE"
);
},
{
closed = 1;
nodes = (
"519 182 LINE",
"519 217 LINE",
"175 217 LINE",
"175 182 LINE"
);
},
{
closed = 1;
nodes = (
"284 808 OFFCURVE",
"333 853 OFFCURVE",
"359 889 CURVE",
"364 889 LINE",
"390 853 OFFCURVE",
"438 808 OFFCURVE",
"476 780 CURVE",
"514 812 LINE",
"473 839 OFFCURVE",
"412 894 OFFCURVE",
"383 934 CURVE",
"340 934 LINE",
"311 894 OFFCURVE",
"249 839 OFFCURVE",
"209 812 CURVE",
"246 780 LINE"
);
}
);
width = 723;
}
);
leftKerningGroup = A;
note = Acircumflex;
rightKerningGroup = A;
unicode = 00C2;
},
{
glyphname = Acircumflexacute;
lastChange = "2015-10-01 16:44:41 +0000";
layers = (
{
layerId = "100B1594-ACEA-4BEF-8FE3-15A73D27750B";
name = Regular;
paths = (
{
closed = 1;
nodes = (
"221 0 LINE",
"221 11 LINE",
"199 19 OFFCURVE",
"174 26 OFFCURVE",
"138 30 CURVE",
"344 604 LINE",
"547 30 LINE",
"517 27 OFFCURVE",
"492 22 OFFCURVE",
"466 12 CURVE",
"466 0 LINE",
"716 0 LINE",
"716 12 LINE",
"691 21 OFFCURVE",
"664 27 OFFCURVE",
"638 31 CURVE",
"393 704 LINE",
"330 704 LINE",
"85 32 LINE",
"67 30 OFFCURVE",
"31 22 OFFCURVE",
"7 13 CURVE",
"7 0 LINE"
);
},
{
closed = 1;
nodes = (
"519 182 LINE",
"519 217 LINE",
"175 217 LINE",
"175 182 LINE"
);
},
{
closed = 1;
nodes = (
"284 808 OFFCURVE",
"332 853 OFFCURVE",
"359 889 CURVE",
"363 889 LINE",
"390 853 OFFCURVE",
"438 808 OFFCURVE",
"476 780 CURVE",
"513 812 LINE",
"474 839 OFFCURVE",
"412 894 OFFCURVE",
"382 934 CURVE",
"340 934 LINE",
"310 894 OFFCURVE",
"249 839 OFFCURVE",
"209 812 CURVE",
"247 780 LINE"
);
},
{
closed = 1;
nodes = (
"585 957 LINE SMOOTH",
"617 974 OFFCURVE",
"630 994 OFFCURVE",
"630 1010 CURVE SMOOTH",
"630 1023 OFFCURVE",
"620 1033 OFFCURVE",
"605 1033 CURVE SMOOTH",
"589 1033 OFFCURVE",
"568 1023 OFFCURVE",
"546 1000 CURVE SMOOTH",
"465 921 LINE",
"480 900 LINE"
);
}
);
width = 723;
}
);
leftKerningGroup = A;
note = Acircumflexacute;
rightKerningGroup = A;
unicode = 1EA4;
},
{
glyphname = Acircumflexdotbelow;
lastChange = "2015-10-01 16:44:41 +0000";
layers = (
{
layerId = "100B1594-ACEA-4BEF-8FE3-15A73D27750B";
name = Regular;
paths = (
{
closed = 1;
nodes = (
"221 0 LINE",
"221 11 LINE",
"199 19 OFFCURVE",
"174 26 OFFCURVE",
"138 30 CURVE",
"344 604 LINE",
"547 30 LINE",
"517 27 OFFCURVE",
"492 22 OFFCURVE",
"466 12 CURVE",
"466 0 LINE",
"716 0 LINE",
"716 12 LINE",
"691 21 OFFCURVE",
"664 27 OFFCURVE",
"638 31 CURVE",
"393 704 LINE",
"330 704 LINE",
"85 32 LINE",
"67 30 OFFCURVE",
"31 22 OFFCURVE",
"7 13 CURVE",
"7 0 LINE"
);
},
{
closed = 1;
nodes = (
"388 -151 OFFCURVE",
"406 -132 OFFCURVE",
"406 -106 CURVE SMOOTH",
"406 -78 OFFCURVE",
"388 -59 OFFCURVE",
"361 -59 CURVE SMOOTH",
"334 -59 OFFCURVE",
"316 -78 OFFCURVE",
"316 -106 CURVE SMOOTH",
"316 -132 OFFCURVE",
"334 -151 OFFCURVE",
"361 -151 CURVE SMOOTH"
);
},
{
closed = 1;
nodes = (
"519 182 LINE",
"519 217 LINE",
"175 217 LINE",
"175 182 LINE"
);
},
{
closed = 1;
nodes = (
"284 807 OFFCURVE",
"333 852 OFFCURVE",
"359 888 CURVE",
"364 888 LINE",
"390 852 OFFCURVE",
"438 807 OFFCURVE",
"476 779 CURVE",
"514 811 LINE",
"473 838 OFFCURVE",
"412 893 OFFCURVE",
"383 933 CURVE",
"340 933 LINE",
"311 893 OFFCURVE",
"249 838 OFFCURVE",
"209 811 CURVE",
"246 779 LINE"
);
}
);
width = 723;
}
);
leftKerningGroup = A;
note = Acircumflexdotbelow;
rightKerningGroup = A;
unicode = 1EAC;
},
{
glyphname = Acircumflexgrave;
lastChange = "2015-10-01 16:44:41 +0000";
layers = (
{
layerId = "100B1594-ACEA-4BEF-8FE3-15A73D27750B";
name = Regular;
paths = (
{
closed = 1;
nodes = (
"221 0 LINE",
"221 11 LINE",
"199 19 OFFCURVE",
"174 26 OFFCURVE",
"138 30 CURVE",
"344 604 LINE",
"547 30 LINE",
"517 27 OFFCURVE",
"492 22 OFFCURVE",
"466 12 CURVE",
"466 0 LINE",
"716 0 LINE",
"716 12 LINE",
"691 21 OFFCURVE",
"664 27 OFFCURVE",
"638 31 CURVE",
"393 704 LINE",
"330 704 LINE",
"85 32 LINE",
"67 30 OFFCURVE",
"31 22 OFFCURVE",
"7 13 CURVE",
"7 0 LINE"
);
},
{
closed = 1;
nodes = (
"519 182 LINE",
"519 217 LINE",
"175 217 LINE",
"175 182 LINE"
);
},
{
closed = 1;
nodes = (
"265 921 LINE",
"193 992 LINE SMOOTH",
"168 1017 OFFCURVE",
"143 1033 OFFCURVE",
"125 1033 CURVE SMOOTH",
"110 1033 OFFCURVE",
"100 1023 OFFCURVE",
"100 1010 CURVE SMOOTH",
"100 992 OFFCURVE",
"121 970 OFFCURVE",
"155 951 CURVE SMOOTH",
"249 900 LINE"
);
},
{
closed = 1;
nodes = (
"284 808 OFFCURVE",
"332 853 OFFCURVE",
"359 889 CURVE",
"363 889 LINE",
"390 853 OFFCURVE",
"438 808 OFFCURVE",
"476 780 CURVE",
"513 812 LINE",
"474 839 OFFCURVE",
"412 894 OFFCURVE",
"382 934 CURVE",
"340 934 LINE",
"310 894 OFFCURVE",
"249 839 OFFCURVE",
"209 812 CURVE",
"247 780 LINE"
);
}
);
width = 723;
}
);
leftKerningGroup = A;
note = Acircumflexgrave;
rightKerningGroup = A;
unicode = 1EA6;
},
{
glyphname = Acircumflexhookabove;
lastChange = "2015-10-01 16:44:41 +0000";
layers = (
{
layerId = "100B1594-ACEA-4BEF-8FE3-15A73D27750B";
name = Regular;
paths = (
{
closed = 1;
nodes = (
"221 0 LINE",
"221 11 LINE",
"199 19 OFFCURVE",
"174 26 OFFCURVE",
"138 30 CURVE",
"344 604 LINE",
"547 30 LINE",
"517 27 OFFCURVE",
"492 22 OFFCURVE",
"466 12 CURVE",
"466 0 LINE",
"716 0 LINE",
"716 12 LINE",
"691 21 OFFCURVE",
"664 27 OFFCURVE",
"638 31 CURVE",
"393 704 LINE",
"330 704 LINE",
"85 32 LINE",
"67 30 OFFCURVE",
"31 22 OFFCURVE",
"7 13 CURVE",
"7 0 LINE"
);
},
{
closed = 1;
nodes = (
"519 182 LINE",
"519 217 LINE",
"175 217 LINE",
"175 182 LINE"
);
},
{
closed = 1;
nodes = (
"284 808 OFFCURVE",
"332 853 OFFCURVE",
"359 889 CURVE",
"363 889 LINE",
"390 853 OFFCURVE",
"438 808 OFFCURVE",
"476 780 CURVE",
"513 812 LINE",
"474 839 OFFCURVE",
"412 894 OFFCURVE",
"382 934 CURVE",
"340 934 LINE",
"310 894 OFFCURVE",
"249 839 OFFCURVE",
"209 812 CURVE",
"247 780 LINE"
);
},
{
closed = 1;
nodes = (
"499 891 LINE",
"508 944 LINE",
"553 948 OFFCURVE",
"581 967 OFFCURVE",
"581 1007 CURVE SMOOTH",
"581 1054 OFFCURVE",
"539 1073 OFFCURVE",
"495 1073 CURVE SMOOTH",
"470 1073 OFFCURVE",
"445 1066 OFFCURVE",
"429 1059 CURVE",
"435 1032 LINE",
"452 1041 OFFCURVE",
"470 1045 OFFCURVE",
"485 1045 CURVE SMOOTH",
"519 1045 OFFCURVE",
"535 1029 OFFCURVE",
"535 1008 CURVE SMOOTH",
"535 982 OFFCURVE",
"516 966 OFFCURVE",
"481 966 CURVE SMOOTH",
"460 966 LINE",
"464 891 LINE"
);
}
);
width = 723;
}
);
leftKerningGroup = A;
note = Acircumflexhookabove;
rightKerningGroup = A;
unicode = 1EA8;
},
{
glyphname = Acircumflextilde;
lastChange = "2015-10-01 16:44:41 +0000";
layers = (
{
layerId = "100B1594-ACEA-4BEF-8FE3-15A73D27750B";
name = Regular;
paths = (
{
closed = 1;
nodes = (
"221 0 LINE",
"221 11 LINE",
"199 19 OFFCURVE",
"174 26 OFFCURVE",
"138 30 CURVE",
"344 604 LINE",
"547 30 LINE",
"517 27 OFFCURVE",
"492 22 OFFCURVE",
"466 12 CURVE",
"466 0 LINE",
"716 0 LINE",
"716 12 LINE",
"691 21 OFFCURVE",
"664 27 OFFCURVE",
"638 31 CURVE",
"393 704 LINE",
"330 704 LINE",
"85 32 LINE",
"67 30 OFFCURVE",
"31 22 OFFCURVE",
"7 13 CURVE",
"7 0 LINE"
);
},
{
closed = 1;
nodes = (
"519 182 LINE",
"519 217 LINE",
"175 217 LINE",
"175 182 LINE"
);
},
{
closed = 1;
nodes = (
"284 808 OFFCURVE",
"332 853 OFFCURVE",
"359 889 CURVE",
"363 889 LINE",
"390 853 OFFCURVE",
"438 808 OFFCURVE",
"476 780 CURVE",
"513 812 LINE",
"474 839 OFFCURVE",
"412 894 OFFCURVE",
"382 934 CURVE",
"340 934 LINE",
"310 894 OFFCURVE",
"249 839 OFFCURVE",
"209 812 CURVE",
"247 780 LINE"
);
},
{
closed = 1;
nodes = (
"231 963 LINE",
"239 998 OFFCURVE",
"262 1020 OFFCURVE",
"291 1020 CURVE SMOOTH",
"329 1020 OFFCURVE",
"383 964 OFFCURVE",
"430 964 CURVE SMOOTH",
"487 964 OFFCURVE",
"516 1005 OFFCURVE",
"524 1068 CURVE",
"494 1068 LINE",
"484 1025 OFFCURVE",
"460 1008 OFFCURVE",
"432 1008 CURVE SMOOTH",
"393 1008 OFFCURVE",
"348 1063 OFFCURVE",
"293 1063 CURVE SMOOTH",
"243 1063 OFFCURVE",
"209 1032 OFFCURVE",
"200 963 CURVE"
);
}
);
width = 723;
}
);
leftKerningGroup = A;
note = Acircumflextilde;
rightKerningGroup = A;
unicode = 1EAA;
},
{
glyphname = Adieresis;
lastChange = "2015-10-01 16:44:41 +0000";
layers = (
{
layerId = "100B1594-ACEA-4BEF-8FE3-15A73D27750B";
name = Regular;
paths = (
{
closed = 1;
nodes = (
"221 0 LINE",
"221 11 LINE",
"199 19 OFFCURVE",
"174 26 OFFCURVE",
"138 30 CURVE",
"344 604 LINE",
"547 30 LINE",
"517 27 OFFCURVE",
"492 22 OFFCURVE",
"466 12 CURVE",
"466 0 LINE",
"716 0 LINE",
"716 12 LINE",
"691 21 OFFCURVE",
"664 27 OFFCURVE",
"638 31 CURVE",
"393 704 LINE",
"330 704 LINE",
"85 32 LINE",
"67 30 OFFCURVE",
"31 22 OFFCURVE",
"7 13 CURVE",
"7 0 LINE"
);
},
{
closed = 1;
nodes = (
"519 182 LINE",
"519 217 LINE",
"175 217 LINE",
"175 182 LINE"
);
},
{
closed = 1;
nodes = (
"269 785 OFFCURVE",
"287 804 OFFCURVE",
"287 830 CURVE SMOOTH",
"287 858 OFFCURVE",
"269 877 OFFCURVE",
"242 877 CURVE SMOOTH",
"216 877 OFFCURVE",
"198 858 OFFCURVE",
"198 830 CURVE SMOOTH",
"198 804 OFFCURVE",
"216 785 OFFCURVE",
"242 785 CURVE SMOOTH"
);
},
{
closed = 1;
nodes = (
"489 785 OFFCURVE",
"507 804 OFFCURVE",
"507 830 CURVE SMOOTH",
"507 858 OFFCURVE",
"489 877 OFFCURVE",
"462 877 CURVE SMOOTH",
"435 877 OFFCURVE",
"418 858 OFFCURVE",
"418 830 CURVE SMOOTH",
"418 804 OFFCURVE",
"435 785 OFFCURVE",
"462 785 CURVE SMOOTH"
);
}
);
width = 723;
}
);
leftKerningGroup = A;
note = Adieresis;
rightKerningGroup = A;
unicode = 00C4;
},
{
glyphname = Adotbelow;
lastChange = "2015-10-01 16:44:41 +0000";
layers = (
{
layerId = "100B1594-ACEA-4BEF-8FE3-15A73D27750B";
name = Regular;
paths = (
{
closed = 1;
nodes = (
"221 0 LINE",
"221 11 LINE",
"199 19 OFFCURVE",
"174 26 OFFCURVE",
"138 30 CURVE",
"344 604 LINE",
"547 30 LINE",
"517 27 OFFCURVE",
"492 22 OFFCURVE",
"466 12 CURVE",
"466 0 LINE",
"716 0 LINE",
"716 12 LINE",
"691 21 OFFCURVE",
"664 27 OFFCURVE",
"638 31 CURVE",
"393 704 LINE",
"330 704 LINE",
"85 32 LINE",
"67 30 OFFCURVE",
"31 22 OFFCURVE",
"7 13 CURVE",
"7 0 LINE"
);
},
{
closed = 1;
nodes = (
"388 -151 OFFCURVE",
"406 -132 OFFCURVE",
"406 -106 CURVE SMOOTH",
"406 -78 OFFCURVE",
"388 -59 OFFCURVE",
"361 -59 CURVE SMOOTH",
"334 -59 OFFCURVE",
"316 -78 OFFCURVE",
"316 -106 CURVE SMOOTH",
"316 -132 OFFCURVE",
"334 -151 OFFCURVE",
"361 -151 CURVE SMOOTH"
);
},
{
closed = 1;
nodes = (
"519 182 LINE",
"519 217 LINE",
"175 217 LINE",
"175 182 LINE"
);
}
);
width = 723;
}
);
leftKerningGroup = A;
note = Adotbelow;
rightKerningGroup = A;
unicode = 1EA0;
},
{
glyphname = Agrave;
lastChange = "2015-10-01 16:44:41 +0000";
layers = (
{
layerId = "100B1594-ACEA-4BEF-8FE3-15A73D27750B";
name = Regular;
paths = (
{
closed = 1;
nodes = (
"221 0 LINE",
"221 11 LINE",
"199 19 OFFCURVE",
"174 26 OFFCURVE",
"138 30 CURVE",
"344 604 LINE",
"547 30 LINE",
"517 27 OFFCURVE",
"492 22 OFFCURVE",
"466 12 CURVE",
"466 0 LINE",
"716 0 LINE",
"716 12 LINE",
"691 21 OFFCURVE",
"664 27 OFFCURVE",
"638 31 CURVE",
"393 704 LINE",
"330 704 LINE",
"85 32 LINE",
"67 30 OFFCURVE",
"31 22 OFFCURVE",
"7 13 CURVE",
"7 0 LINE"
);
},
{
closed = 1;
nodes = (
"519 182 LINE",
"519 217 LINE",
"175 217 LINE",
"175 182 LINE"
);
},
{
closed = 1;
nodes = (
"424 809 LINE",
"308 916 LINE",
"300 924 OFFCURVE",
"285 938 OFFCURVE",
"264 938 CURVE SMOOTH",
"243 938 OFFCURVE",
"232 924 OFFCURVE",
"232 911 CURVE SMOOTH",
"232 895 OFFCURVE",
"244 881 OFFCURVE",
"266 868 CURVE SMOOTH",
"408 786 LINE"
);
}
);
width = 723;
}
);
leftKerningGroup = A;
note = Agrave;
rightKerningGroup = A;
unicode = 00C0;
},
{
glyphname = Ahookabove;
lastChange = "2015-10-01 16:44:41 +0000";
layers = (
{
layerId = "100B1594-ACEA-4BEF-8FE3-15A73D27750B";
name = Regular;
paths = (
{
closed = 1;
nodes = (
"221 0 LINE",
"221 11 LINE",
"199 19 OFFCURVE",
"174 26 OFFCURVE",
"138 30 CURVE",
"344 604 LINE",
"547 30 LINE",
"517 27 OFFCURVE",
"492 22 OFFCURVE",
"466 12 CURVE",
"466 0 LINE",
"716 0 LINE",
"716 12 LINE",
"691 21 OFFCURVE",
"664 27 OFFCURVE",
"638 31 CURVE",
"393 704 LINE",
"330 704 LINE",
"85 32 LINE",
"67 30 OFFCURVE",
"31 22 OFFCURVE",
"7 13 CURVE",
"7 0 LINE"
);
},
{
closed = 1;
nodes = (
"519 182 LINE",
"519 217 LINE",
"175 217 LINE",
"175 182 LINE"
);
},
{
closed = 1;
nodes = (
"386 779 LINE",
"396 843 LINE",
"448 848 OFFCURVE",
"480 872 OFFCURVE",
"480 919 CURVE SMOOTH",
"480 975 OFFCURVE",
"432 998 OFFCURVE",
"382 998 CURVE SMOOTH",
"352 998 OFFCURVE",
"323 990 OFFCURVE",
"305 981 CURVE",
"312 951 LINE",
"332 962 OFFCURVE",
"353 967 OFFCURVE",
"370 967 CURVE SMOOTH",
"409 967 OFFCURVE",
"429 946 OFFCURVE",
"429 921 CURVE SMOOTH",
"429 890 OFFCURVE",
"406 869 OFFCURVE",
"366 869 CURVE SMOOTH",
"342 869 LINE",
"347 779 LINE"
);
}
);
width = 723;
}
);
leftKerningGroup = A;
note = Ahookabove;
rightKerningGroup = A;
unicode = 1EA2;
},
{
glyphname = Amacron;
lastChange = "2015-10-01 16:44:41 +0000";
layers = (
{
layerId = "100B1594-ACEA-4BEF-8FE3-15A73D27750B";
name = Regular;
paths = (
{
closed = 1;
nodes = (
"221 0 LINE",
"221 11 LINE",
"199 19 OFFCURVE",
"174 26 OFFCURVE",
"138 30 CURVE",
"344 604 LINE",
"547 30 LINE",
"517 27 OFFCURVE",
"492 22 OFFCURVE",
"466 12 CURVE",
"466 0 LINE",
"716 0 LINE",
"716 12 LINE",
"691 21 OFFCURVE",
"664 27 OFFCURVE",
"638 31 CURVE",
"393 704 LINE",
"330 704 LINE",
"85 32 LINE",
"67 30 OFFCURVE",
"31 22 OFFCURVE",
"7 13 CURVE",
"7 0 LINE"
);
},
{
closed = 1;
nodes = (
"519 182 LINE",
"519 217 LINE",
"175 217 LINE",
"175 182 LINE"
);
},
{
closed = 1;
nodes = (
"528 784 LINE",
"528 819 LINE",
"195 819 LINE",
"195 784 LINE"
);
}
);
width = 723;
}
);
leftKerningGroup = A;
note = Amacron;
rightKerningGroup = A;
unicode = 0100;
},
{
glyphname = Aogonek;
lastChange = "2015-10-01 16:44:41 +0000";
layers = (
{
layerId = "100B1594-ACEA-4BEF-8FE3-15A73D27750B";
name = Regular;
paths = (
{
closed = 1;
nodes = (
"221 0 LINE",
"221 11 LINE",
"199 19 OFFCURVE",
"174 26 OFFCURVE",
"138 30 CURVE",
"344 604 LINE",
"547 30 LINE",
"517 27 OFFCURVE",
"492 22 OFFCURVE",
"466 12 CURVE",
"466 0 LINE",
"716 0 LINE",
"716 12 LINE",
"691 21 OFFCURVE",
"664 27 OFFCURVE",
"638 31 CURVE",
"393 704 LINE",
"330 704 LINE",
"85 32 LINE",
"67 30 OFFCURVE",
"31 22 OFFCURVE",
"7 13 CURVE",
"7 0 LINE"
);
},
{
closed = 1;
nodes = (
"519 182 LINE",
"519 217 LINE",
"175 217 LINE",
"175 182 LINE"
);
},
{
closed = 1;
nodes = (
"713 -187 OFFCURVE",
"741 -181 OFFCURVE",
"765 -170 CURVE",
"765 -129 LINE",
"746 -139 OFFCURVE",
"727 -143 OFFCURVE",
"711 -143 CURVE SMOOTH",
"676 -143 OFFCURVE",
"649 -126 OFFCURVE",
"649 -92 CURVE SMOOTH",
"649 -56 OFFCURVE",
"678 -20 OFFCURVE",
"712 0 CURVE",
"662 0 LINE",
"610 -20 OFFCURVE",
"579 -63 OFFCURVE",
"579 -107 CURVE SMOOTH",
"579 -149 OFFCURVE",
"614 -187 OFFCURVE",
"681 -187 CURVE SMOOTH"
);
}
);
width = 723;
}
);
leftKerningGroup = A;
note = Aogonek;
rightKerningGroup = A;
unicode = 0104;
},
{
glyphname = Aring;
lastChange = "2015-10-01 16:44:41 +0000";
layers = (
{
layerId = "100B1594-ACEA-4BEF-8FE3-15A73D27750B";
name = Regular;
paths = (
{
closed = 1;
nodes = (
"221 0 LINE",
"221 11 LINE",
"199 19 OFFCURVE",
"174 26 OFFCURVE",
"138 30 CURVE",
"344 604 LINE",
"547 30 LINE",
"517 27 OFFCURVE",
"492 22 OFFCURVE",
"466 12 CURVE",
"466 0 LINE",
"716 0 LINE",
"716 12 LINE",
"691 21 OFFCURVE",
"664 27 OFFCURVE",
"638 31 CURVE",
"393 704 LINE",
"330 704 LINE",
"85 32 LINE",
"67 30 OFFCURVE",
"31 22 OFFCURVE",
"7 13 CURVE",
"7 0 LINE"
);
},
{
closed = 1;
nodes = (
"519 182 LINE",
"519 217 LINE",
"175 217 LINE",
"175 182 LINE"
);
},
{
closed = 1;
nodes = (
"415 739 OFFCURVE",
"453 774 OFFCURVE",
"453 826 CURVE SMOOTH",
"453 879 OFFCURVE",
"415 915 OFFCURVE",
"361 915 CURVE SMOOTH",
"306 915 OFFCURVE",
"268 879 OFFCURVE",
"268 826 CURVE SMOOTH",
"268 774 OFFCURVE",
"306 739 OFFCURVE",
"361 739 CURVE SMOOTH"
);
},
{
closed = 1;
nodes = (
"328 771 OFFCURVE",
"303 792 OFFCURVE",
"303 826 CURVE SMOOTH",
"303 860 OFFCURVE",
"328 882 OFFCURVE",
"361 882 CURVE SMOOTH",
"394 882 OFFCURVE",
"417 860 OFFCURVE",
"417 826 CURVE SMOOTH",
"417 792 OFFCURVE",
"394 771 OFFCURVE",
"361 771 CURVE SMOOTH"
);
}
);
width = 723;
}
);
leftKerningGroup = A;
note = Aring;
rightKerningGroup = A;
unicode = 00C5;
},
{
glyphname = Aringacute;
lastChange = "2015-10-01 16:44:41 +0000";
layers = (
{
layerId = "100B1594-ACEA-4BEF-8FE3-15A73D27750B";
name = Regular;
paths = (
{
closed = 1;
nodes = (
"221 0 LINE",
"221 11 LINE",
"199 19 OFFCURVE",
"174 26 OFFCURVE",
"138 30 CURVE",
"344 604 LINE",
"547 30 LINE",
"517 27 OFFCURVE",
"492 22 OFFCURVE",
"466 12 CURVE",
"466 0 LINE",
"716 0 LINE",
"716 12 LINE",
"691 21 OFFCURVE",
"664 27 OFFCURVE",
"638 31 CURVE",
"393 704 LINE",
"330 704 LINE",
"85 32 LINE",
"67 30 OFFCURVE",
"31 22 OFFCURVE",
"7 13 CURVE",
"7 0 LINE"
);
},
{
closed = 1;
nodes = (
"519 182 LINE",
"519 217 LINE",
"175 217 LINE",
"175 182 LINE"
);
},
{
closed = 1;
nodes = (
"415 737 OFFCURVE",
"453 772 OFFCURVE",
"453 824 CURVE SMOOTH",
"453 877 OFFCURVE",
"415 913 OFFCURVE",
"361 913 CURVE SMOOTH",
"306 913 OFFCURVE",
"268 877 OFFCURVE",
"268 824 CURVE SMOOTH",
"268 772 OFFCURVE",
"306 737 OFFCURVE",
"361 737 CURVE SMOOTH"
);
},
{
closed = 1;
nodes = (
"328 769 OFFCURVE",
"303 790 OFFCURVE",
"303 824 CURVE SMOOTH",
"303 858 OFFCURVE",
"328 880 OFFCURVE",
"361 880 CURVE SMOOTH",
"394 880 OFFCURVE",
"417 858 OFFCURVE",
"417 824 CURVE SMOOTH",
"417 790 OFFCURVE",
"394 769 OFFCURVE",
"361 769 CURVE SMOOTH"
);
},
{
closed = 1;
nodes = (
"460 1021 LINE SMOOTH",
"481 1034 OFFCURVE",
"492 1048 OFFCURVE",
"492 1064 CURVE SMOOTH",
"492 1077 OFFCURVE",
"482 1091 OFFCURVE",
"461 1091 CURVE SMOOTH",
"439 1091 OFFCURVE",
"423 1075 OFFCURVE",
"416 1068 CURVE",
"302 962 LINE",
"318 939 LINE"
);
}
);
width = 723;
}
);
leftKerningGroup = A;
note = Aringacute;
rightKerningGroup = A;
unicode = 01FA;
},
{
glyphname = Atilde;
lastChange = "2015-10-01 16:44:41 +0000";
layers = (
{
layerId = "100B1594-ACEA-4BEF-8FE3-15A73D27750B";
name = Regular;
paths = (
{
closed = 1;
nodes = (
"221 0 LINE",
"221 11 LINE",
"199 19 OFFCURVE",
"174 26 OFFCURVE",
"138 30 CURVE",
"344 604 LINE",
"547 30 LINE",
"517 27 OFFCURVE",
"492 22 OFFCURVE",
"466 12 CURVE",
"466 0 LINE",
"716 0 LINE",
"716 12 LINE",
"691 21 OFFCURVE",
"664 27 OFFCURVE",
"638 31 CURVE",
"393 704 LINE",
"330 704 LINE",
"85 32 LINE",
"67 30 OFFCURVE",
"31 22 OFFCURVE",
"7 13 CURVE",
"7 0 LINE"
);
},
{
closed = 1;
nodes = (
"519 182 LINE",
"519 217 LINE",
"175 217 LINE",
"175 182 LINE"
);
},
{
closed = 1;
nodes = (
"222 786 LINE",
"230 821 OFFCURVE",
"254 843 OFFCURVE",
"285 843 CURVE SMOOTH",
"325 843 OFFCURVE",
"381 787 OFFCURVE",
"431 787 CURVE SMOOTH",
"490 787 OFFCURVE",
"521 828 OFFCURVE",
"530 891 CURVE",
"498 891 LINE",
"488 848 OFFCURVE",
"462 831 OFFCURVE",
"433 831 CURVE SMOOTH",
"392 831 OFFCURVE",
"345 886 OFFCURVE",
"287 886 CURVE SMOOTH",
"235 886 OFFCURVE",
"199 855 OFFCURVE",
"189 786 CURVE"
);
}
);
width = 723;
}
);
leftKerningGroup = A;
note = Atilde;
rightKerningGroup = A;
unicode = 00C3;
},
{
glyphname = AE;
lastChange = "2015-10-01 16:44:41 +0000";
layers = (
{
layerId = "100B1594-ACEA-4BEF-8FE3-15A73D27750B";
name = Regular;
paths = (
{
closed = 1;
nodes = (
"225 0 LINE",
"225 11 LINE",
"203 19 OFFCURVE",
"175 26 OFFCURVE",
"139 30 CURVE",
"229 182 LINE",
"508 182 LINE",
"508 30 LINE",
"472 26 OFFCURVE",
"447 19 OFFCURVE",
"425 12 CURVE",
"425 0 LINE",
"935 0 LINE",
"950 144 LINE",
"928 144 LINE",
"916 125 OFFCURVE",
"893 65 OFFCURVE",
"890 35 CURVE",
"600 35 LINE",
"600 341 LINE",
"809 341 LINE",
"811 324 OFFCURVE",
"818 284 OFFCURVE",
"827 258 CURVE",
"844 258 LINE",
"844 460 LINE",
"827 460 LINE",
"818 436 OFFCURVE",
"811 395 OFFCURVE",
"809 377 CURVE",
"600 377 LINE",
"600 663 LINE",
"887 663 LINE",
"889 637 OFFCURVE",
"903 574 OFFCURVE",
"914 554 CURVE",
"936 554 LINE",
"936 700 LINE",
"421 700 LINE",
"421 688 LINE",
"436 681 OFFCURVE",
"453 678 OFFCURVE",
"470 674 CURVE",
"81 32 LINE",
"55 27 OFFCURVE",
"32 21 OFFCURVE",
"7 12 CURVE",
"7 0 LINE"
);
},
{
closed = 1;
nodes = (
"503 650 LINE",
"508 650 LINE",
"508 217 LINE",
"251 217 LINE"
);
}
);
width = 998;
}
);
leftKerningGroup = A;
note = AE;
unicode = 00C6;
},
{
glyphname = AEacute;
lastChange = "2015-10-01 16:44:41 +0000";
layers = (
{
layerId = "100B1594-ACEA-4BEF-8FE3-15A73D27750B";
name = Regular;
paths = (
{
closed = 1;
nodes = (
"225 0 LINE",
"225 11 LINE",
"203 19 OFFCURVE",
"175 26 OFFCURVE",
"139 30 CURVE",
"229 182 LINE",
"508 182 LINE",
"508 30 LINE",
"472 26 OFFCURVE",
"447 19 OFFCURVE",
"425 12 CURVE",
"425 0 LINE",
"935 0 LINE",
"950 144 LINE",
"928 144 LINE",
"916 125 OFFCURVE",
"893 65 OFFCURVE",
"890 35 CURVE",
"600 35 LINE",
"600 341 LINE",
"809 341 LINE",
"811 324 OFFCURVE",
"818 284 OFFCURVE",
"827 258 CURVE",
"844 258 LINE",
"844 460 LINE",
"827 460 LINE",
"818 436 OFFCURVE",
"811 395 OFFCURVE",
"809 377 CURVE",
"600 377 LINE",
"600 663 LINE",
"887 663 LINE",
"889 637 OFFCURVE",
"903 574 OFFCURVE",
"914 554 CURVE",
"936 554 LINE",
"936 700 LINE",
"421 700 LINE",
"421 688 LINE",
"436 681 OFFCURVE",
"453 678 OFFCURVE",
"470 674 CURVE",
"81 32 LINE",
"55 27 OFFCURVE",
"32 21 OFFCURVE",
"7 12 CURVE",
"7 0 LINE"
);
},
{
closed = 1;
nodes = (
"503 650 LINE",
"508 650 LINE",
"508 217 LINE",
"251 217 LINE"
);
},
{
closed = 1;
nodes = (
"776 868 LINE SMOOTH",
"797 881 OFFCURVE",
"808 895 OFFCURVE",
"808 911 CURVE SMOOTH",
"808 924 OFFCURVE",
"798 938 OFFCURVE",
"777 938 CURVE SMOOTH",
"755 938 OFFCURVE",
"739 922 OFFCURVE",
"732 915 CURVE",
"618 809 LINE",
"634 786 LINE"
);
}
);
width = 998;
}
);
leftKerningGroup = A;
note = AEacute;
unicode = 01FC;
},
{
glyphname = B;
lastChange = "2015-10-01 16:44:41 +0000";
layers = (
{
layerId = "100B1594-ACEA-4BEF-8FE3-15A73D27750B";
name = Regular;
paths = (
{
closed = 1;
nodes = (
"354 0 LINE SMOOTH",
"514 0 OFFCURVE",
"575 67 OFFCURVE",
"575 191 CURVE SMOOTH",
"575 262 OFFCURVE",
"540 348 OFFCURVE",
"416 368 CURVE",
"416 373 LINE",
"509 392 OFFCURVE",
"546 467 OFFCURVE",
"546 535 CURVE SMOOTH",
"546 646 OFFCURVE",
"485 700 OFFCURVE",
"323 700 CURVE SMOOTH",
"36 700 LINE",
"36 687 LINE",
"63 678 OFFCURVE",
"91 673 OFFCURVE",
"117 669 CURVE",
"117 31 LINE",
"86 28 OFFCURVE",
"67 23 OFFCURVE",
"36 12 CURVE",
"36 0 LINE"
);
},
{
closed = 1;
nodes = (
"210 350 LINE",
"331 350 LINE SMOOTH",
"429 350 OFFCURVE",
"485 295 OFFCURVE",
"485 194 CURVE SMOOTH",
"485 90 OFFCURVE",
"442 35 OFFCURVE",
"344 35 CURVE SMOOTH",
"210 35 LINE"
);
},
{
closed = 1;
nodes = (
"210 663 LINE",
"313 663 LINE SMOOTH",
"413 663 OFFCURVE",
"454 622 OFFCURVE",
"454 532 CURVE SMOOTH",
"454 444 OFFCURVE",
"406 386 OFFCURVE",
"309 386 CURVE SMOOTH",
"210 386 LINE"
);
}
);
width = 605;
}
);
note = B;
unicode = 0042;
},
{
glyphname = C;
lastChange = "2015-10-01 16:44:40 +0000";
layers = (
{
layerId = "100B1594-ACEA-4BEF-8FE3-15A73D27750B";
name = Regular;
paths = (
{
closed = 1;
nodes = (
"451 -10 OFFCURVE",
"525 13 OFFCURVE",
"572 54 CURVE",
"559 81 LINE",
"502 44 OFFCURVE",
"430 27 OFFCURVE",
"384 27 CURVE SMOOTH",
"208 27 OFFCURVE",
"141 163 OFFCURVE",
"141 350 CURVE SMOOTH",
"141 537 OFFCURVE",
"218 673 OFFCURVE",
"391 673 CURVE SMOOTH",
"445 673 OFFCURVE",
"492 655 OFFCURVE",
"522 631 CURVE",
"525 597 OFFCURVE",
"532 545 OFFCURVE",
"541 519 CURVE",
"565 519 LINE",
"574 641 LINE",
"528 683 OFFCURVE",
"462 710 OFFCURVE",
"367 710 CURVE SMOOTH",
"160 710 OFFCURVE",
"47 572 OFFCURVE",
"47 350 CURVE SMOOTH",
"47 127 OFFCURVE",
"154 -10 OFFCURVE",
"368 -10 CURVE SMOOTH"
);
}
);
width = 619;
}
);
leftKerningGroup = C;
note = C;
unicode = 0043;
},
{
glyphname = Cacute;
lastChange = "2015-10-01 16:44:41 +0000";
layers = (
{
layerId = "100B1594-ACEA-4BEF-8FE3-15A73D27750B";
name = Regular;
paths = (
{
closed = 1;
nodes = (
"451 -10 OFFCURVE",
"525 13 OFFCURVE",
"572 54 CURVE",
"559 81 LINE",
"502 44 OFFCURVE",
"430 27 OFFCURVE",
"384 27 CURVE SMOOTH",
"208 27 OFFCURVE",
"141 163 OFFCURVE",
"141 350 CURVE SMOOTH",
"141 537 OFFCURVE",
"218 673 OFFCURVE",
"391 673 CURVE SMOOTH",
"445 673 OFFCURVE",
"492 655 OFFCURVE",
"522 631 CURVE",
"525 597 OFFCURVE",
"532 545 OFFCURVE",
"541 519 CURVE",
"565 519 LINE",
"574 641 LINE",
"528 683 OFFCURVE",
"462 710 OFFCURVE",
"367 710 CURVE SMOOTH",
"160 710 OFFCURVE",
"47 572 OFFCURVE",
"47 350 CURVE SMOOTH",
"47 127 OFFCURVE",
"154 -10 OFFCURVE",
"368 -10 CURVE SMOOTH"
);
},
{
closed = 1;
nodes = (
"454 868 LINE SMOOTH",
"475 881 OFFCURVE",
"486 895 OFFCURVE",
"486 911 CURVE SMOOTH",
"486 924 OFFCURVE",
"476 938 OFFCURVE",
"455 938 CURVE SMOOTH",
"433 938 OFFCURVE",
"417 922 OFFCURVE",
"410 915 CURVE",
"296 809 LINE",
"312 786 LINE"
);
}
);
width = 619;
}
);
leftKerningGroup = C;
note = Cacute;
unicode = 0106;
},
{
glyphname = Ccaron;
lastChange = "2015-10-01 16:44:41 +0000";
layers = (
{
layerId = "100B1594-ACEA-4BEF-8FE3-15A73D27750B";
name = Regular;
paths = (
{
closed = 1;
nodes = (
"451 -10 OFFCURVE",
"525 13 OFFCURVE",
"572 54 CURVE",
"559 81 LINE",
"502 44 OFFCURVE",
"430 27 OFFCURVE",
"384 27 CURVE SMOOTH",
"208 27 OFFCURVE",
"141 163 OFFCURVE",
"141 350 CURVE SMOOTH",
"141 537 OFFCURVE",
"218 673 OFFCURVE",
"391 673 CURVE SMOOTH",
"445 673 OFFCURVE",
"492 655 OFFCURVE",
"522 631 CURVE",
"525 597 OFFCURVE",
"532 545 OFFCURVE",
"541 519 CURVE",
"565 519 LINE",
"574 641 LINE",
"528 683 OFFCURVE",
"462 710 OFFCURVE",
"367 710 CURVE SMOOTH",
"160 710 OFFCURVE",
"47 572 OFFCURVE",
"47 350 CURVE SMOOTH",
"47 127 OFFCURVE",
"154 -10 OFFCURVE",
"368 -10 CURVE SMOOTH"
);
},
{
closed = 1;
nodes = (
"405 786 LINE",
"434 827 OFFCURVE",
"495 882 OFFCURVE",
"536 909 CURVE",
"498 941 LINE",
"460 913 OFFCURVE",
"412 868 OFFCURVE",
"386 832 CURVE",
"381 832 LINE",
"355 868 OFFCURVE",
"306 913 OFFCURVE",
"268 941 CURVE",
"231 909 LINE",
"271 882 OFFCURVE",
"333 827 OFFCURVE",
"362 786 CURVE"
);
}
);
width = 619;
}
);
leftKerningGroup = C;
note = Ccaron;
unicode = 010C;
},
{
glyphname = Ccedilla;
lastChange = "2015-10-01 16:44:41 +0000";
layers = (
{
layerId = "100B1594-ACEA-4BEF-8FE3-15A73D27750B";
name = Regular;
paths = (
{
closed = 1;
nodes = (
"451 -10 OFFCURVE",
"525 13 OFFCURVE",
"572 54 CURVE",
"559 81 LINE",
"502 44 OFFCURVE",
"430 27 OFFCURVE",
"384 27 CURVE SMOOTH",
"208 27 OFFCURVE",
"141 163 OFFCURVE",
"141 350 CURVE SMOOTH",
"141 537 OFFCURVE",
"218 673 OFFCURVE",
"391 673 CURVE SMOOTH",
"445 673 OFFCURVE",
"492 655 OFFCURVE",
"522 631 CURVE",
"525 597 OFFCURVE",
"532 545 OFFCURVE",
"541 519 CURVE",
"565 519 LINE",
"574 641 LINE",
"528 683 OFFCURVE",
"462 710 OFFCURVE",
"367 710 CURVE SMOOTH",
"160 710 OFFCURVE",
"47 572 OFFCURVE",
"47 350 CURVE SMOOTH",
"47 127 OFFCURVE",
"154 -10 OFFCURVE",
"368 -10 CURVE SMOOTH"
);
},
{
closed = 1;
nodes = (
"400 -222 OFFCURVE",
"453 -194 OFFCURVE",
"453 -135 CURVE SMOOTH",
"453 -89 OFFCURVE",
"413 -68 OFFCURVE",
"347 -68 CURVE",
"383 9 LINE",
"338 9 LINE",
"297 -72 LINE",
"319 -100 LINE",
"326 -99 OFFCURVE",
"335 -98 OFFCURVE",
"344 -98 CURVE SMOOTH",
"371 -98 OFFCURVE",
"403 -107 OFFCURVE",
"403 -135 CURVE SMOOTH",
"403 -172 OFFCURVE",
"371 -187 OFFCURVE",
"328 -187 CURVE SMOOTH",
"307 -187 OFFCURVE",
"284 -183 OFFCURVE",
"265 -175 CURVE",
"249 -204 LINE",
"273 -216 OFFCURVE",
"305 -222 OFFCURVE",
"333 -222 CURVE SMOOTH"
);
}
);
width = 619;
}
);
leftKerningGroup = C;
note = Ccedilla;
unicode = 00C7;
},
{
glyphname = Ccircumflex;
lastChange = "2015-10-01 16:44:41 +0000";
layers = (
{
layerId = "100B1594-ACEA-4BEF-8FE3-15A73D27750B";
name = Regular;
paths = (
{
closed = 1;
nodes = (
"451 -10 OFFCURVE",
"525 13 OFFCURVE",
"572 54 CURVE",
"559 81 LINE",
"502 44 OFFCURVE",
"430 27 OFFCURVE",
"384 27 CURVE SMOOTH",
"208 27 OFFCURVE",
"141 163 OFFCURVE",
"141 350 CURVE SMOOTH",
"141 537 OFFCURVE",
"218 673 OFFCURVE",
"391 673 CURVE SMOOTH",
"445 673 OFFCURVE",
"492 655 OFFCURVE",
"522 631 CURVE",
"525 597 OFFCURVE",
"532 545 OFFCURVE",
"541 519 CURVE",
"565 519 LINE",
"574 641 LINE",
"528 683 OFFCURVE",
"462 710 OFFCURVE",
"367 710 CURVE SMOOTH",
"160 710 OFFCURVE",
"47 572 OFFCURVE",
"47 350 CURVE SMOOTH",
"47 127 OFFCURVE",
"154 -10 OFFCURVE",
"368 -10 CURVE SMOOTH"
);
},
{
closed = 1;
nodes = (
"298 808 OFFCURVE",
"347 853 OFFCURVE",
"373 889 CURVE",
"378 889 LINE",
"404 853 OFFCURVE",
"452 808 OFFCURVE",
"490 780 CURVE",
"528 812 LINE",
"487 839 OFFCURVE",
"426 894 OFFCURVE",
"397 934 CURVE",
"354 934 LINE",
"325 894 OFFCURVE",
"263 839 OFFCURVE",
"223 812 CURVE",
"260 780 LINE"
);
}
);
width = 619;
}
);
leftKerningGroup = C;
note = Ccircumflex;
unicode = 0108;
},
{
glyphname = Cdotaccent;
lastChange = "2015-10-01 16:44:41 +0000";
layers = (
{
layerId = "100B1594-ACEA-4BEF-8FE3-15A73D27750B";
name = Regular;
paths = (
{
closed = 1;
nodes = (
"451 -10 OFFCURVE",
"525 13 OFFCURVE",
"572 54 CURVE",
"559 81 LINE",
"502 44 OFFCURVE",
"430 27 OFFCURVE",
"384 27 CURVE SMOOTH",
"208 27 OFFCURVE",
"141 163 OFFCURVE",
"141 350 CURVE SMOOTH",
"141 537 OFFCURVE",
"218 673 OFFCURVE",
"391 673 CURVE SMOOTH",
"445 673 OFFCURVE",
"492 655 OFFCURVE",
"522 631 CURVE",
"525 597 OFFCURVE",
"532 545 OFFCURVE",
"541 519 CURVE",
"565 519 LINE",
"574 641 LINE",
"528 683 OFFCURVE",
"462 710 OFFCURVE",
"367 710 CURVE SMOOTH",
"160 710 OFFCURVE",
"47 572 OFFCURVE",
"47 350 CURVE SMOOTH",
"47 127 OFFCURVE",
"154 -10 OFFCURVE",
"368 -10 CURVE SMOOTH"
);
},
{
closed = 1;
nodes = (
"410 785 OFFCURVE",
"428 804 OFFCURVE",
"428 830 CURVE SMOOTH",
"428 858 OFFCURVE",
"410 877 OFFCURVE",
"384 877 CURVE SMOOTH",
"356 877 OFFCURVE",
"339 858 OFFCURVE",
"339 830 CURVE SMOOTH",
"339 804 OFFCURVE",
"356 785 OFFCURVE",
"384 785 CURVE SMOOTH"
);
}
);
width = 619;
}
);
leftKerningGroup = C;
note = Cdotaccent;
unicode = 010A;
},
{
glyphname = D;
lastChange = "2015-10-01 16:44:41 +0000";
layers = (
{
layerId = "100B1594-ACEA-4BEF-8FE3-15A73D27750B";
name = Regular;
paths = (
{
closed = 1;
nodes = (
"339 0 LINE SMOOTH",
"547 0 OFFCURVE",
"631 127 OFFCURVE",
"631 350 CURVE SMOOTH",
"631 573 OFFCURVE",
"548 700 OFFCURVE",
"340 700 CURVE SMOOTH",
"40 700 LINE",
"40 688 LINE",
"65 680 OFFCURVE",
"93 673 OFFCURVE",
"119 669 CURVE",
"119 30 LINE",
"88 27 OFFCURVE",
"62 20 OFFCURVE",
"40 12 CURVE",
"40 0 LINE"
);
},
{
closed = 1;
nodes = (
"211 663 LINE",
"339 663 LINE SMOOTH",
"490 663 OFFCURVE",
"537 537 OFFCURVE",
"537 350 CURVE SMOOTH",
"537 162 OFFCURVE",
"490 35 OFFCURVE",
"337 35 CURVE SMOOTH",
"211 35 LINE"
);
}
);
width = 669;
}
);
note = D;
rightKerningGroup = D;
unicode = 0044;
},
{
glyphname = Eth;
lastChange = "2015-11-28 06:38:43 +0000";
layers = (
{
layerId = "100B1594-ACEA-4BEF-8FE3-15A73D27750B";
name = Regular;
paths = (
{
closed = 1;
nodes = (
"339 0 LINE SMOOTH",
"547 0 OFFCURVE",
"631 127 OFFCURVE",
"631 350 CURVE SMOOTH",
"631 573 OFFCURVE",
"548 700 OFFCURVE",
"340 700 CURVE SMOOTH",
"40 700 LINE",
"40 688 LINE",
"65 680 OFFCURVE",
"93 673 OFFCURVE",
"119 669 CURVE",
"119 30 LINE",
"88 27 OFFCURVE",
"62 20 OFFCURVE",
"40 12 CURVE",
"40 0 LINE"
);
},
{
closed = 1;
nodes = (
"211 663 LINE",
"339 663 LINE SMOOTH",
"490 663 OFFCURVE",
"537 537 OFFCURVE",
"537 350 CURVE SMOOTH",
"537 162 OFFCURVE",
"490 35 OFFCURVE",
"337 35 CURVE SMOOTH",
"211 35 LINE"
);
},
{
closed = 1;
nodes = (
"379 315 LINE",
"379 350 LINE",
"47 350 LINE",
"47 315 LINE"
);
}
);
width = 669;
}
);
note = Eth;
rightKerningGroup = D;
unicode = 00D0;
},
{
glyphname = Dcaron;
lastChange = "2015-10-01 16:44:41 +0000";
layers = (
{
layerId = "100B1594-ACEA-4BEF-8FE3-15A73D27750B";
name = Regular;
paths = (
{
closed = 1;
nodes = (
"339 0 LINE SMOOTH",
"547 0 OFFCURVE",
"631 127 OFFCURVE",
"631 350 CURVE SMOOTH",
"631 573 OFFCURVE",
"548 700 OFFCURVE",
"340 700 CURVE SMOOTH",
"40 700 LINE",
"40 688 LINE",
"65 680 OFFCURVE",
"93 673 OFFCURVE",
"119 669 CURVE",
"119 30 LINE",
"88 27 OFFCURVE",
"62 20 OFFCURVE",
"40 12 CURVE",
"40 0 LINE"
);
},
{
closed = 1;
nodes = (
"211 663 LINE",
"339 663 LINE SMOOTH",
"490 663 OFFCURVE",
"537 537 OFFCURVE",
"537 350 CURVE SMOOTH",
"537 162 OFFCURVE",
"490 35 OFFCURVE",
"337 35 CURVE SMOOTH",
"211 35 LINE"
);
},
{
closed = 1;
nodes = (
"355 786 LINE",
"384 827 OFFCURVE",
"445 882 OFFCURVE",
"486 909 CURVE",
"448 941 LINE",
"410 913 OFFCURVE",
"362 868 OFFCURVE",
"336 832 CURVE",
"331 832 LINE",
"305 868 OFFCURVE",
"256 913 OFFCURVE",
"218 941 CURVE",
"181 909 LINE",
"221 882 OFFCURVE",
"283 827 OFFCURVE",
"312 786 CURVE"
);
}
);
width = 669;
}
);
note = Dcaron;
rightKerningGroup = D;
unicode = 010E;
},
{
glyphname = Dcroat;
lastChange = "2015-11-28 06:38:48 +0000";
layers = (
{
layerId = "100B1594-ACEA-4BEF-8FE3-15A73D27750B";
name = Regular;
paths = (
{
closed = 1;
nodes = (
"339 0 LINE SMOOTH",
"547 0 OFFCURVE",
"631 127 OFFCURVE",
"631 350 CURVE SMOOTH",
"631 573 OFFCURVE",
"548 700 OFFCURVE",
"340 700 CURVE SMOOTH",
"40 700 LINE",
"40 688 LINE",
"65 680 OFFCURVE",
"93 673 OFFCURVE",
"119 669 CURVE",
"119 30 LINE",
"88 27 OFFCURVE",
"62 20 OFFCURVE",
"40 12 CURVE",
"40 0 LINE"
);
},
{
closed = 1;
nodes = (
"211 663 LINE",
"339 663 LINE SMOOTH",
"490 663 OFFCURVE",
"537 537 OFFCURVE",
"537 350 CURVE SMOOTH",
"537 162 OFFCURVE",
"490 35 OFFCURVE",
"337 35 CURVE SMOOTH",
"211 35 LINE"
);
},
{
closed = 1;
nodes = (
"379 315 LINE",
"379 350 LINE",
"47 350 LINE",
"47 315 LINE"
);
}
);
width = 669;
}
);
note = Dcroat;
rightKerningGroup = D;
unicode = 0110;
},
{
glyphname = Ddotbelow;
lastChange = "2015-11-28 06:39:19 +0000";
layers = (
{
layerId = "100B1594-ACEA-4BEF-8FE3-15A73D27750B";
name = Regular;
paths = (
{
closed = 1;
nodes = (
"339 0 LINE SMOOTH",
"547 0 OFFCURVE",
"631 127 OFFCURVE",
"631 350 CURVE SMOOTH",
"631 573 OFFCURVE",
"548 700 OFFCURVE",
"340 700 CURVE SMOOTH",
"40 700 LINE",
"40 688 LINE",
"65 680 OFFCURVE",
"93 673 OFFCURVE",
"119 669 CURVE",
"119 30 LINE",
"88 27 OFFCURVE",
"62 20 OFFCURVE",
"40 12 CURVE",
"40 0 LINE"
);
},
{
closed = 1;
nodes = (
"211 663 LINE",
"339 663 LINE SMOOTH",
"490 663 OFFCURVE",
"537 537 OFFCURVE",
"537 350 CURVE SMOOTH",
"537 162 OFFCURVE",
"490 35 OFFCURVE",
"337 35 CURVE SMOOTH",
"211 35 LINE"
);
},
{
closed = 1;
nodes = (
"351 -151 OFFCURVE",
"369 -132 OFFCURVE",
"369 -106 CURVE SMOOTH",
"369 -78 OFFCURVE",
"351 -59 OFFCURVE",
"324 -59 CURVE SMOOTH",
"297 -59 OFFCURVE",
"279 -78 OFFCURVE",
"279 -106 CURVE SMOOTH",
"279 -132 OFFCURVE",
"297 -151 OFFCURVE",
"324 -151 CURVE SMOOTH"
);
}
);
width = 669;
}
);
note = Ddotbelow;
rightKerningGroup = D;
unicode = 1E0C;
},
{
glyphname = Dlinebelow;
lastChange = "2015-11-28 06:39:23 +0000";
layers = (
{
layerId = "100B1594-ACEA-4BEF-8FE3-15A73D27750B";
name = Regular;
paths = (
{
closed = 1;
nodes = (
"339 0 LINE SMOOTH",
"547 0 OFFCURVE",
"631 127 OFFCURVE",
"631 350 CURVE SMOOTH",
"631 573 OFFCURVE",
"548 700 OFFCURVE",
"340 700 CURVE SMOOTH",
"40 700 LINE",
"40 688 LINE",
"65 680 OFFCURVE",
"93 673 OFFCURVE",
"119 669 CURVE",
"119 30 LINE",
"88 27 OFFCURVE",
"62 20 OFFCURVE",
"40 12 CURVE",
"40 0 LINE"
);
},
{
closed = 1;
nodes = (
"211 663 LINE",
"339 663 LINE SMOOTH",
"490 663 OFFCURVE",
"537 537 OFFCURVE",
"537 350 CURVE SMOOTH",
"537 162 OFFCURVE",
"490 35 OFFCURVE",
"337 35 CURVE SMOOTH",
"211 35 LINE"
);
},
{
closed = 1;
nodes = (
"475 -104 LINE",
"475 -69 LINE",
"142 -69 LINE",
"142 -104 LINE"
);
}
);
width = 669;
}
);
note = Dlinebelow;
rightKerningGroup = D;
unicode = 1E0E;
},
{
glyphname = E;
lastChange = "2015-10-01 16:44:41 +0000";
layers = (
{
layerId = "100B1594-ACEA-4BEF-8FE3-15A73D27750B";
name = Regular;
paths = (
{
closed = 1;
nodes = (
"551 0 LINE",
"565 144 LINE",
"543 144 LINE",
"531 125 OFFCURVE",
"508 65 OFFCURVE",
"506 35 CURVE",
"216 35 LINE",
"216 663 LINE",
"503 663 LINE",
"505 637 OFFCURVE",
"519 574 OFFCURVE",
"530 554 CURVE",
"551 554 LINE",
"551 700 LINE",
"40 700 LINE",
"40 688 LINE",
"65 680 OFFCURVE",
"96 672 OFFCURVE",
"123 669 CURVE",
"123 31 LINE",
"92 28 OFFCURVE",
"62 20 OFFCURVE",
"40 12 CURVE",
"40 0 LINE"
);
},
{
closed = 1;
nodes = (
"459 243 LINE",
"459 445 LINE",
"443 445 LINE",
"433 421 OFFCURVE",
"426 380 OFFCURVE",
"424 362 CURVE",
"147 362 LINE",
"147 326 LINE",
"424 326 LINE",
"426 309 OFFCURVE",
"433 269 OFFCURVE",
"443 243 CURVE"
);
}
);
width = 613;
}
);
note = E;
unicode = 0045;
},
{
glyphname = Eacute;
lastChange = "2015-10-01 16:44:41 +0000";
layers = (
{
layerId = "100B1594-ACEA-4BEF-8FE3-15A73D27750B";
name = Regular;
paths = (
{
closed = 1;
nodes = (
"551 0 LINE",
"565 144 LINE",
"543 144 LINE",
"531 125 OFFCURVE",
"508 65 OFFCURVE",
"506 35 CURVE",
"216 35 LINE",
"216 663 LINE",
"503 663 LINE",
"505 637 OFFCURVE",
"519 574 OFFCURVE",
"530 554 CURVE",
"551 554 LINE",
"551 700 LINE",
"40 700 LINE",
"40 688 LINE",
"65 680 OFFCURVE",
"96 672 OFFCURVE",
"123 669 CURVE",
"123 31 LINE",
"92 28 OFFCURVE",
"62 20 OFFCURVE",
"40 12 CURVE",
"40 0 LINE"
);
},
{
closed = 1;
nodes = (
"459 243 LINE",
"459 445 LINE",
"443 445 LINE",
"433 421 OFFCURVE",
"426 380 OFFCURVE",
"424 362 CURVE",
"147 362 LINE",
"147 326 LINE",
"424 326 LINE",
"426 309 OFFCURVE",
"433 269 OFFCURVE",
"443 243 CURVE"
);
},
{
closed = 1;
nodes = (
"390 868 LINE SMOOTH",
"411 881 OFFCURVE",
"422 895 OFFCURVE",
"422 911 CURVE SMOOTH",
"422 924 OFFCURVE",
"412 938 OFFCURVE",
"391 938 CURVE SMOOTH",
"369 938 OFFCURVE",
"353 922 OFFCURVE",
"346 915 CURVE",
"232 809 LINE",
"248 786 LINE"
);
}
);
width = 613;
}
);
note = Eacute;
unicode = 00C9;
},
{
glyphname = Ebreve;
lastChange = "2015-10-01 16:44:42 +0000";
layers = (
{
layerId = "100B1594-ACEA-4BEF-8FE3-15A73D27750B";
name = Regular;
paths = (
{
closed = 1;
nodes = (
"551 0 LINE",
"565 144 LINE",
"543 144 LINE",
"531 125 OFFCURVE",
"508 65 OFFCURVE",
"506 35 CURVE",
"216 35 LINE",
"216 663 LINE",
"503 663 LINE",
"505 637 OFFCURVE",
"519 574 OFFCURVE",
"530 554 CURVE",
"551 554 LINE",
"551 700 LINE",
"40 700 LINE",
"40 688 LINE",
"65 680 OFFCURVE",
"96 672 OFFCURVE",
"123 669 CURVE",
"123 31 LINE",
"92 28 OFFCURVE",
"62 20 OFFCURVE",
"40 12 CURVE",
"40 0 LINE"
);
},
{
closed = 1;
nodes = (
"459 243 LINE",
"459 445 LINE",
"443 445 LINE",
"433 421 OFFCURVE",
"426 380 OFFCURVE",
"424 362 CURVE",
"147 362 LINE",
"147 326 LINE",
"424 326 LINE",
"426 309 OFFCURVE",
"433 269 OFFCURVE",
"443 243 CURVE"
);
},
{
closed = 1;
nodes = (
"426 777 OFFCURVE",
"487 816 OFFCURVE",
"497 901 CURVE",
"441 901 LINE",
"433 825 OFFCURVE",
"383 814 OFFCURVE",
"342 814 CURVE SMOOTH",
"301 814 OFFCURVE",
"250 825 OFFCURVE",
"242 901 CURVE",
"186 901 LINE",
"197 816 OFFCURVE",
"257 777 OFFCURVE",
"342 777 CURVE SMOOTH"
);
}
);
width = 613;
}
);
note = Ebreve;
unicode = 0114;
},
{
glyphname = Ecaron;
lastChange = "2015-10-01 16:44:41 +0000";
layers = (
{
layerId = "100B1594-ACEA-4BEF-8FE3-15A73D27750B";
name = Regular;
paths = (
{
closed = 1;
nodes = (
"551 0 LINE",
"565 144 LINE",
"543 144 LINE",
"531 125 OFFCURVE",
"508 65 OFFCURVE",
"506 35 CURVE",
"216 35 LINE",
"216 663 LINE",
"503 663 LINE",
"505 637 OFFCURVE",
"519 574 OFFCURVE",
"530 554 CURVE",
"551 554 LINE",
"551 700 LINE",
"40 700 LINE",
"40 688 LINE",
"65 680 OFFCURVE",
"96 672 OFFCURVE",
"123 669 CURVE",
"123 31 LINE",
"92 28 OFFCURVE",
"62 20 OFFCURVE",
"40 12 CURVE",
"40 0 LINE"
);
},
{
closed = 1;
nodes = (
"459 243 LINE",
"459 445 LINE",
"443 445 LINE",
"433 421 OFFCURVE",
"426 380 OFFCURVE",
"424 362 CURVE",
"147 362 LINE",
"147 326 LINE",
"424 326 LINE",
"426 309 OFFCURVE",
"433 269 OFFCURVE",
"443 243 CURVE"
);
},
{
closed = 1;
nodes = (
"361 786 LINE",
"390 827 OFFCURVE",
"451 882 OFFCURVE",
"492 909 CURVE",
"454 941 LINE",
"416 913 OFFCURVE",
"368 868 OFFCURVE",
"342 832 CURVE",
"337 832 LINE",
"311 868 OFFCURVE",
"262 913 OFFCURVE",
"224 941 CURVE",
"187 909 LINE",
"227 882 OFFCURVE",
"289 827 OFFCURVE",
"318 786 CURVE"
);
}
);
width = 613;
}
);
note = Ecaron;
unicode = 011A;
},
{
glyphname = Ecircumflex;
lastChange = "2015-10-01 16:44:41 +0000";
layers = (
{
layerId = "100B1594-ACEA-4BEF-8FE3-15A73D27750B";
name = Regular;
paths = (
{
closed = 1;
nodes = (
"551 0 LINE",
"565 144 LINE",
"543 144 LINE",
"531 125 OFFCURVE",
"508 65 OFFCURVE",
"506 35 CURVE",
"216 35 LINE",
"216 663 LINE",
"503 663 LINE",
"505 637 OFFCURVE",
"519 574 OFFCURVE",
"530 554 CURVE",
"551 554 LINE",
"551 700 LINE",
"40 700 LINE",
"40 688 LINE",
"65 680 OFFCURVE",
"96 672 OFFCURVE",
"123 669 CURVE",
"123 31 LINE",
"92 28 OFFCURVE",
"62 20 OFFCURVE",
"40 12 CURVE",
"40 0 LINE"
);
},
{
closed = 1;
nodes = (
"459 243 LINE",
"459 445 LINE",
"443 445 LINE",
"433 421 OFFCURVE",
"426 380 OFFCURVE",
"424 362 CURVE",
"147 362 LINE",
"147 326 LINE",
"424 326 LINE",
"426 309 OFFCURVE",
"433 269 OFFCURVE",
"443 243 CURVE"
);
},
{
closed = 1;
nodes = (
"263 808 OFFCURVE",
"312 853 OFFCURVE",
"338 889 CURVE",
"343 889 LINE",
"369 853 OFFCURVE",
"417 808 OFFCURVE",
"455 780 CURVE",
"493 812 LINE",
"452 839 OFFCURVE",
"391 894 OFFCURVE",
"362 934 CURVE",
"319 934 LINE",
"290 894 OFFCURVE",
"228 839 OFFCURVE",
"188 812 CURVE",
"225 780 LINE"
);
}
);
width = 613;
}
);
note = Ecircumflex;
unicode = 00CA;
},
{
glyphname = Ecircumflexacute;
lastChange = "2015-10-01 16:44:41 +0000";
layers = (
{
layerId = "100B1594-ACEA-4BEF-8FE3-15A73D27750B";
name = Regular;
paths = (
{
closed = 1;
nodes = (
"551 0 LINE",
"565 144 LINE",
"543 144 LINE",
"531 125 OFFCURVE",
"508 65 OFFCURVE",
"506 35 CURVE",
"216 35 LINE",
"216 663 LINE",
"503 663 LINE",
"505 637 OFFCURVE",
"519 574 OFFCURVE",
"530 554 CURVE",
"551 554 LINE",
"551 700 LINE",
"40 700 LINE",
"40 688 LINE",
"65 680 OFFCURVE",
"96 672 OFFCURVE",
"123 669 CURVE",
"123 31 LINE",
"92 28 OFFCURVE",
"62 20 OFFCURVE",
"40 12 CURVE",
"40 0 LINE"
);
},
{
closed = 1;
nodes = (
"459 243 LINE",
"459 445 LINE",
"443 445 LINE",
"433 421 OFFCURVE",
"426 380 OFFCURVE",
"424 362 CURVE",
"147 362 LINE",
"147 326 LINE",
"424 326 LINE",
"426 309 OFFCURVE",
"433 269 OFFCURVE",
"443 243 CURVE"
);
},
{
closed = 1;
nodes = (
"256 808 OFFCURVE",
"304 853 OFFCURVE",
"331 889 CURVE",
"335 889 LINE",
"362 853 OFFCURVE",
"410 808 OFFCURVE",
"448 780 CURVE",
"485 812 LINE",
"446 839 OFFCURVE",
"384 894 OFFCURVE",
"354 934 CURVE",
"312 934 LINE",
"282 894 OFFCURVE",
"221 839 OFFCURVE",
"181 812 CURVE",
"219 780 LINE"
);
},
{
closed = 1;
nodes = (
"557 957 LINE SMOOTH",
"589 974 OFFCURVE",
"602 994 OFFCURVE",
"602 1010 CURVE SMOOTH",
"602 1023 OFFCURVE",
"592 1033 OFFCURVE",
"577 1033 CURVE SMOOTH",
"561 1033 OFFCURVE",
"540 1023 OFFCURVE",
"518 1000 CURVE SMOOTH",
"437 921 LINE",
"452 900 LINE"
);
}
);
width = 613;
}
);
note = Ecircumflexacute;
unicode = 1EBE;
},
{
glyphname = Ecircumflexdotbelow;
lastChange = "2015-10-01 16:44:41 +0000";
layers = (
{
layerId = "100B1594-ACEA-4BEF-8FE3-15A73D27750B";
name = Regular;
paths = (
{
closed = 1;
nodes = (
"551 0 LINE",
"565 144 LINE",
"543 144 LINE",
"531 125 OFFCURVE",
"508 65 OFFCURVE",
"506 35 CURVE",
"216 35 LINE",
"216 663 LINE",
"503 663 LINE",
"505 637 OFFCURVE",
"519 574 OFFCURVE",
"530 554 CURVE",
"551 554 LINE",
"551 700 LINE",
"40 700 LINE",
"40 688 LINE",
"65 680 OFFCURVE",
"96 672 OFFCURVE",
"123 669 CURVE",
"123 31 LINE",
"92 28 OFFCURVE",
"62 20 OFFCURVE",
"40 12 CURVE",
"40 0 LINE"
);
},
{
closed = 1;
nodes = (
"362 -151 OFFCURVE",
"380 -132 OFFCURVE",
"380 -106 CURVE SMOOTH",
"380 -78 OFFCURVE",
"362 -59 OFFCURVE",
"335 -59 CURVE SMOOTH",
"308 -59 OFFCURVE",
"290 -78 OFFCURVE",
"290 -106 CURVE SMOOTH",
"290 -132 OFFCURVE",
"308 -151 OFFCURVE",
"335 -151 CURVE SMOOTH"
);
},
{
closed = 1;
nodes = (
"459 243 LINE",
"459 445 LINE",
"443 445 LINE",
"433 421 OFFCURVE",
"426 380 OFFCURVE",
"424 362 CURVE",
"147 362 LINE",
"147 326 LINE",
"424 326 LINE",
"426 309 OFFCURVE",
"433 269 OFFCURVE",
"443 243 CURVE"
);
},
{
closed = 1;
nodes = (
"256 808 OFFCURVE",
"305 853 OFFCURVE",
"331 889 CURVE",
"336 889 LINE",
"362 853 OFFCURVE",
"410 808 OFFCURVE",
"448 780 CURVE",
"486 812 LINE",
"445 839 OFFCURVE",
"384 894 OFFCURVE",
"355 934 CURVE",
"312 934 LINE",
"283 894 OFFCURVE",
"221 839 OFFCURVE",
"181 812 CURVE",
"218 780 LINE"
);
}
);
width = 613;
}
);
note = Ecircumflexdotbelow;
unicode = 1EC6;
},
{
glyphname = Ecircumflexgrave;
lastChange = "2015-10-01 16:44:41 +0000";
layers = (
{
layerId = "100B1594-ACEA-4BEF-8FE3-15A73D27750B";
name = Regular;
paths = (
{
closed = 1;
nodes = (
"551 0 LINE",
"565 144 LINE",
"543 144 LINE",
"531 125 OFFCURVE",
"508 65 OFFCURVE",
"506 35 CURVE",
"216 35 LINE",
"216 663 LINE",
"503 663 LINE",
"505 637 OFFCURVE",
"519 574 OFFCURVE",
"530 554 CURVE",
"551 554 LINE",
"551 700 LINE",
"40 700 LINE",
"40 688 LINE",
"65 680 OFFCURVE",
"96 672 OFFCURVE",
"123 669 CURVE",
"123 31 LINE",
"92 28 OFFCURVE",
"62 20 OFFCURVE",
"40 12 CURVE",
"40 0 LINE"
);
},
{
closed = 1;
nodes = (
"459 243 LINE",
"459 445 LINE",
"443 445 LINE",
"433 421 OFFCURVE",
"426 380 OFFCURVE",
"424 362 CURVE",
"147 362 LINE",
"147 326 LINE",
"424 326 LINE",
"426 309 OFFCURVE",
"433 269 OFFCURVE",
"443 243 CURVE"
);
},
{
closed = 1;
nodes = (
"237 921 LINE",
"165 992 LINE SMOOTH",
"140 1017 OFFCURVE",
"115 1033 OFFCURVE",
"97 1033 CURVE SMOOTH",
"82 1033 OFFCURVE",
"72 1023 OFFCURVE",
"72 1010 CURVE SMOOTH",
"72 992 OFFCURVE",
"93 970 OFFCURVE",
"127 951 CURVE SMOOTH",
"221 900 LINE"
);
},
{
closed = 1;
nodes = (
"256 808 OFFCURVE",
"304 853 OFFCURVE",
"331 889 CURVE",
"335 889 LINE",
"362 853 OFFCURVE",
"410 808 OFFCURVE",
"448 780 CURVE",
"485 812 LINE",
"446 839 OFFCURVE",
"384 894 OFFCURVE",
"354 934 CURVE",
"312 934 LINE",
"282 894 OFFCURVE",
"221 839 OFFCURVE",
"181 812 CURVE",
"219 780 LINE"
);
}
);
width = 613;
}
);
note = Ecircumflexgrave;
unicode = 1EC0;
},
{
glyphname = Ecircumflexhookabove;
lastChange = "2015-10-01 16:44:41 +0000";
layers = (
{
layerId = "100B1594-ACEA-4BEF-8FE3-15A73D27750B";
name = Regular;
paths = (
{
closed = 1;
nodes = (
"551 0 LINE",
"565 144 LINE",
"543 144 LINE",
"531 125 OFFCURVE",
"508 65 OFFCURVE",
"506 35 CURVE",
"216 35 LINE",
"216 663 LINE",
"503 663 LINE",
"505 637 OFFCURVE",
"519 574 OFFCURVE",
"530 554 CURVE",
"551 554 LINE",
"551 700 LINE",
"40 700 LINE",
"40 688 LINE",
"65 680 OFFCURVE",
"96 672 OFFCURVE",
"123 669 CURVE",
"123 31 LINE",
"92 28 OFFCURVE",
"62 20 OFFCURVE",
"40 12 CURVE",
"40 0 LINE"
);
},
{
closed = 1;
nodes = (
"459 243 LINE",
"459 445 LINE",
"443 445 LINE",
"433 421 OFFCURVE",
"426 380 OFFCURVE",
"424 362 CURVE",
"147 362 LINE",
"147 326 LINE",
"424 326 LINE",
"426 309 OFFCURVE",
"433 269 OFFCURVE",
"443 243 CURVE"
);
},
{
closed = 1;
nodes = (
"256 808 OFFCURVE",
"304 853 OFFCURVE",
"331 889 CURVE",
"335 889 LINE",
"362 853 OFFCURVE",
"410 808 OFFCURVE",
"448 780 CURVE",
"485 812 LINE",
"446 839 OFFCURVE",
"384 894 OFFCURVE",
"354 934 CURVE",
"312 934 LINE",
"282 894 OFFCURVE",
"221 839 OFFCURVE",
"181 812 CURVE",
"219 780 LINE"
);
},
{
closed = 1;
nodes = (
"471 891 LINE",
"480 944 LINE",
"525 948 OFFCURVE",
"553 967 OFFCURVE",
"553 1007 CURVE SMOOTH",
"553 1054 OFFCURVE",
"511 1073 OFFCURVE",
"467 1073 CURVE SMOOTH",
"442 1073 OFFCURVE",
"417 1066 OFFCURVE",
"401 1059 CURVE",
"407 1032 LINE",
"424 1041 OFFCURVE",
"442 1045 OFFCURVE",
"457 1045 CURVE SMOOTH",
"491 1045 OFFCURVE",
"507 1029 OFFCURVE",
"507 1008 CURVE SMOOTH",
"507 982 OFFCURVE",
"488 966 OFFCURVE",
"453 966 CURVE SMOOTH",
"432 966 LINE",
"436 891 LINE"
);
}
);
width = 613;
}
);
note = Ecircumflexhookabove;
unicode = 1EC2;
},
{
glyphname = Ecircumflextilde;
lastChange = "2015-10-01 16:44:42 +0000";
layers = (
{
layerId = "100B1594-ACEA-4BEF-8FE3-15A73D27750B";
name = Regular;
paths = (
{
closed = 1;
nodes = (
"551 0 LINE",
"565 144 LINE",
"543 144 LINE",
"531 125 OFFCURVE",
"508 65 OFFCURVE",
"506 35 CURVE",
"216 35 LINE",
"216 663 LINE",
"503 663 LINE",
"505 637 OFFCURVE",
"519 574 OFFCURVE",
"530 554 CURVE",
"551 554 LINE",
"551 700 LINE",
"40 700 LINE",
"40 688 LINE",
"65 680 OFFCURVE",
"96 672 OFFCURVE",
"123 669 CURVE",
"123 31 LINE",
"92 28 OFFCURVE",
"62 20 OFFCURVE",
"40 12 CURVE",
"40 0 LINE"
);
},
{
closed = 1;
nodes = (
"459 243 LINE",
"459 445 LINE",
"443 445 LINE",
"433 421 OFFCURVE",
"426 380 OFFCURVE",
"424 362 CURVE",
"147 362 LINE",
"147 326 LINE",
"424 326 LINE",
"426 309 OFFCURVE",
"433 269 OFFCURVE",
"443 243 CURVE"
);
},
{
closed = 1;
nodes = (
"256 808 OFFCURVE",
"304 853 OFFCURVE",
"331 889 CURVE",
"335 889 LINE",
"362 853 OFFCURVE",
"410 808 OFFCURVE",
"448 780 CURVE",
"485 812 LINE",
"446 839 OFFCURVE",
"384 894 OFFCURVE",
"354 934 CURVE",
"312 934 LINE",
"282 894 OFFCURVE",
"221 839 OFFCURVE",
"181 812 CURVE",
"219 780 LINE"
);
},
{
closed = 1;
nodes = (
"203 963 LINE",
"211 998 OFFCURVE",
"234 1020 OFFCURVE",
"263 1020 CURVE SMOOTH",
"301 1020 OFFCURVE",
"355 964 OFFCURVE",
"402 964 CURVE SMOOTH",
"459 964 OFFCURVE",
"488 1005 OFFCURVE",
"496 1068 CURVE",
"466 1068 LINE",
"456 1025 OFFCURVE",
"432 1008 OFFCURVE",
"404 1008 CURVE SMOOTH",
"365 1008 OFFCURVE",
"320 1063 OFFCURVE",
"265 1063 CURVE SMOOTH",
"215 1063 OFFCURVE",
"181 1032 OFFCURVE",
"172 963 CURVE"
);
}
);
width = 613;
}
);
note = Ecircumflextilde;
unicode = 1EC4;
},
{
glyphname = Edieresis;
lastChange = "2015-10-01 16:44:41 +0000";
layers = (
{
layerId = "100B1594-ACEA-4BEF-8FE3-15A73D27750B";
name = Regular;
paths = (
{
closed = 1;
nodes = (
"551 0 LINE",
"565 144 LINE",
"543 144 LINE",
"531 125 OFFCURVE",
"508 65 OFFCURVE",
"506 35 CURVE",
"216 35 LINE",
"216 663 LINE",
"503 663 LINE",
"505 637 OFFCURVE",
"519 574 OFFCURVE",
"530 554 CURVE",
"551 554 LINE",
"551 700 LINE",
"40 700 LINE",
"40 688 LINE",
"65 680 OFFCURVE",
"96 672 OFFCURVE",
"123 669 CURVE",
"123 31 LINE",
"92 28 OFFCURVE",
"62 20 OFFCURVE",
"40 12 CURVE",
"40 0 LINE"
);
},
{
closed = 1;
nodes = (
"459 243 LINE",
"459 445 LINE",
"443 445 LINE",
"433 421 OFFCURVE",
"426 380 OFFCURVE",
"424 362 CURVE",
"147 362 LINE",
"147 326 LINE",
"424 326 LINE",
"426 309 OFFCURVE",
"433 269 OFFCURVE",
"443 243 CURVE"
);
},
{
closed = 1;
nodes = (
"259 785 OFFCURVE",
"277 804 OFFCURVE",
"277 830 CURVE SMOOTH",
"277 858 OFFCURVE",
"259 877 OFFCURVE",
"232 877 CURVE SMOOTH",
"206 877 OFFCURVE",
"188 858 OFFCURVE",
"188 830 CURVE SMOOTH",
"188 804 OFFCURVE",
"206 785 OFFCURVE",
"232 785 CURVE SMOOTH"
);
},
{
closed = 1;
nodes = (
"479 785 OFFCURVE",
"497 804 OFFCURVE",
"497 830 CURVE SMOOTH",
"497 858 OFFCURVE",
"479 877 OFFCURVE",
"452 877 CURVE SMOOTH",
"425 877 OFFCURVE",
"408 858 OFFCURVE",
"408 830 CURVE SMOOTH",
"408 804 OFFCURVE",
"425 785 OFFCURVE",
"452 785 CURVE SMOOTH"
);
}
);
width = 613;
}
);
note = Edieresis;
unicode = 00CB;
},
{
glyphname = Edotaccent;
lastChange = "2015-10-01 16:44:41 +0000";
layers = (
{
layerId = "100B1594-ACEA-4BEF-8FE3-15A73D27750B";
name = Regular;
paths = (
{
closed = 1;
nodes = (
"551 0 LINE",
"565 144 LINE",
"543 144 LINE",
"531 125 OFFCURVE",
"508 65 OFFCURVE",
"506 35 CURVE",
"216 35 LINE",
"216 663 LINE",
"503 663 LINE",
"505 637 OFFCURVE",
"519 574 OFFCURVE",
"530 554 CURVE",
"551 554 LINE",
"551 700 LINE",
"40 700 LINE",
"40 688 LINE",
"65 680 OFFCURVE",
"96 672 OFFCURVE",
"123 669 CURVE",
"123 31 LINE",
"92 28 OFFCURVE",
"62 20 OFFCURVE",
"40 12 CURVE",
"40 0 LINE"
);
},
{
closed = 1;
nodes = (
"459 243 LINE",
"459 445 LINE",
"443 445 LINE",
"433 421 OFFCURVE",
"426 380 OFFCURVE",
"424 362 CURVE",
"147 362 LINE",
"147 326 LINE",
"424 326 LINE",
"426 309 OFFCURVE",
"433 269 OFFCURVE",
"443 243 CURVE"
);
},
{
closed = 1;
nodes = (
"373 785 OFFCURVE",
"391 804 OFFCURVE",
"391 830 CURVE SMOOTH",
"391 858 OFFCURVE",
"373 877 OFFCURVE",
"347 877 CURVE SMOOTH",
"319 877 OFFCURVE",
"302 858 OFFCURVE",
"302 830 CURVE SMOOTH",
"302 804 OFFCURVE",
"319 785 OFFCURVE",
"347 785 CURVE SMOOTH"
);
}
);
width = 613;
}
);
note = Edotaccent;
unicode = 0116;
},
{
glyphname = Edotbelow;
lastChange = "2015-10-01 16:44:41 +0000";
layers = (
{
layerId = "100B1594-ACEA-4BEF-8FE3-15A73D27750B";
name = Regular;
paths = (
{
closed = 1;
nodes = (
"551 0 LINE",
"565 144 LINE",
"543 144 LINE",
"531 125 OFFCURVE",
"508 65 OFFCURVE",
"506 35 CURVE",
"216 35 LINE",
"216 663 LINE",
"503 663 LINE",
"505 637 OFFCURVE",
"519 574 OFFCURVE",
"530 554 CURVE",
"551 554 LINE",
"551 700 LINE",
"40 700 LINE",
"40 688 LINE",
"65 680 OFFCURVE",
"96 672 OFFCURVE",
"123 669 CURVE",
"123 31 LINE",
"92 28 OFFCURVE",
"62 20 OFFCURVE",
"40 12 CURVE",
"40 0 LINE"
);
},
{
closed = 1;
nodes = (
"341 -151 OFFCURVE",
"359 -132 OFFCURVE",
"359 -106 CURVE SMOOTH",
"359 -78 OFFCURVE",
"341 -59 OFFCURVE",
"314 -59 CURVE SMOOTH",
"287 -59 OFFCURVE",
"269 -78 OFFCURVE",
"269 -106 CURVE SMOOTH",
"269 -132 OFFCURVE",
"287 -151 OFFCURVE",
"314 -151 CURVE SMOOTH"
);
},
{
closed = 1;
nodes = (
"459 243 LINE",
"459 445 LINE",
"443 445 LINE",
"433 421 OFFCURVE",
"426 380 OFFCURVE",
"424 362 CURVE",
"147 362 LINE",
"147 326 LINE",
"424 326 LINE",
"426 309 OFFCURVE",
"433 269 OFFCURVE",
"443 243 CURVE"
);
}
);
width = 613;
}
);
note = Edotbelow;
unicode = 1EB8;
},
{
glyphname = Egrave;
lastChange = "2015-10-01 16:44:41 +0000";
layers = (
{
layerId = "100B1594-ACEA-4BEF-8FE3-15A73D27750B";
name = Regular;
paths = (
{
closed = 1;
nodes = (
"551 0 LINE",
"565 144 LINE",
"543 144 LINE",
"531 125 OFFCURVE",
"508 65 OFFCURVE",
"506 35 CURVE",
"216 35 LINE",
"216 663 LINE",
"503 663 LINE",
"505 637 OFFCURVE",
"519 574 OFFCURVE",
"530 554 CURVE",
"551 554 LINE",
"551 700 LINE",
"40 700 LINE",
"40 688 LINE",
"65 680 OFFCURVE",
"96 672 OFFCURVE",
"123 669 CURVE",
"123 31 LINE",
"92 28 OFFCURVE",
"62 20 OFFCURVE",
"40 12 CURVE",
"40 0 LINE"
);
},
{
closed = 1;
nodes = (
"459 243 LINE",
"459 445 LINE",
"443 445 LINE",
"433 421 OFFCURVE",
"426 380 OFFCURVE",
"424 362 CURVE",
"147 362 LINE",
"147 326 LINE",
"424 326 LINE",
"426 309 OFFCURVE",
"433 269 OFFCURVE",
"443 243 CURVE"
);
},
{
closed = 1;
nodes = (
"435 809 LINE",
"319 916 LINE",
"311 924 OFFCURVE",
"296 938 OFFCURVE",
"275 938 CURVE SMOOTH",
"254 938 OFFCURVE",
"243 924 OFFCURVE",
"243 911 CURVE SMOOTH",
"243 895 OFFCURVE",
"255 881 OFFCURVE",
"277 868 CURVE SMOOTH",
"419 786 LINE"
);
}
);
width = 613;
}
);
note = Egrave;
unicode = 00C8;
},
{
glyphname = Ehookabove;
lastChange = "2015-10-01 16:44:41 +0000";
layers = (
{
layerId = "100B1594-ACEA-4BEF-8FE3-15A73D27750B";
name = Regular;
paths = (
{
closed = 1;
nodes = (
"551 0 LINE",
"565 144 LINE",
"543 144 LINE",
"531 125 OFFCURVE",
"508 65 OFFCURVE",
"506 35 CURVE",
"216 35 LINE",
"216 663 LINE",
"503 663 LINE",
"505 637 OFFCURVE",
"519 574 OFFCURVE",
"530 554 CURVE",
"551 554 LINE",
"551 700 LINE",
"40 700 LINE",
"40 688 LINE",
"65 680 OFFCURVE",
"96 672 OFFCURVE",
"123 669 CURVE",
"123 31 LINE",
"92 28 OFFCURVE",
"62 20 OFFCURVE",
"40 12 CURVE",
"40 0 LINE"
);
},
{
closed = 1;
nodes = (
"459 243 LINE",
"459 445 LINE",
"443 445 LINE",
"433 421 OFFCURVE",
"426 380 OFFCURVE",
"424 362 CURVE",
"147 362 LINE",
"147 326 LINE",
"424 326 LINE",
"426 309 OFFCURVE",
"433 269 OFFCURVE",
"443 243 CURVE"
);
},
{
closed = 1;
nodes = (
"355 779 LINE",
"365 843 LINE",
"417 848 OFFCURVE",
"449 872 OFFCURVE",
"449 919 CURVE SMOOTH",
"449 975 OFFCURVE",
"401 998 OFFCURVE",
"351 998 CURVE SMOOTH",
"321 998 OFFCURVE",
"292 990 OFFCURVE",
"274 981 CURVE",
"281 951 LINE",
"301 962 OFFCURVE",
"322 967 OFFCURVE",
"339 967 CURVE SMOOTH",
"378 967 OFFCURVE",
"398 946 OFFCURVE",
"398 921 CURVE SMOOTH",
"398 890 OFFCURVE",
"375 869 OFFCURVE",
"335 869 CURVE SMOOTH",
"311 869 LINE",
"316 779 LINE"
);
}
);
width = 613;
}
);
note = Ehookabove;
unicode = 1EBA;
},
{
glyphname = Emacron;
lastChange = "2015-10-01 16:44:41 +0000";
layers = (
{
layerId = "100B1594-ACEA-4BEF-8FE3-15A73D27750B";
name = Regular;
paths = (
{
closed = 1;
nodes = (
"551 0 LINE",
"565 144 LINE",
"543 144 LINE",
"531 125 OFFCURVE",
"508 65 OFFCURVE",
"506 35 CURVE",
"216 35 LINE",
"216 663 LINE",
"503 663 LINE",
"505 637 OFFCURVE",
"519 574 OFFCURVE",
"530 554 CURVE",
"551 554 LINE",
"551 700 LINE",
"40 700 LINE",
"40 688 LINE",
"65 680 OFFCURVE",
"96 672 OFFCURVE",
"123 669 CURVE",
"123 31 LINE",
"92 28 OFFCURVE",
"62 20 OFFCURVE",
"40 12 CURVE",
"40 0 LINE"
);
},
{
closed = 1;
nodes = (
"459 243 LINE",
"459 445 LINE",
"443 445 LINE",
"433 421 OFFCURVE",
"426 380 OFFCURVE",
"424 362 CURVE",
"147 362 LINE",
"147 326 LINE",
"424 326 LINE",
"426 309 OFFCURVE",
"433 269 OFFCURVE",
"443 243 CURVE"
);
},
{
closed = 1;
nodes = (
"502 784 LINE",
"502 819 LINE",
"169 819 LINE",
"169 784 LINE"
);
}
);
width = 613;
}
);
note = Emacron;
unicode = 0112;
},
{
glyphname = Eogonek;
lastChange = "2015-10-01 16:44:41 +0000";
layers = (
{
layerId = "100B1594-ACEA-4BEF-8FE3-15A73D27750B";
name = Regular;
paths = (
{
closed = 1;
nodes = (
"551 0 LINE",
"565 144 LINE",
"543 144 LINE",
"531 125 OFFCURVE",
"508 65 OFFCURVE",
"506 35 CURVE",
"216 35 LINE",
"216 663 LINE",
"503 663 LINE",
"505 637 OFFCURVE",
"519 574 OFFCURVE",
"530 554 CURVE",
"551 554 LINE",
"551 700 LINE",
"40 700 LINE",
"40 688 LINE",
"65 680 OFFCURVE",
"96 672 OFFCURVE",
"123 669 CURVE",
"123 31 LINE",
"92 28 OFFCURVE",
"62 20 OFFCURVE",
"40 12 CURVE",
"40 0 LINE"
);
},
{
closed = 1;
nodes = (
"525 -187 OFFCURVE",
"553 -181 OFFCURVE",
"577 -170 CURVE",
"577 -129 LINE",
"558 -139 OFFCURVE",
"539 -143 OFFCURVE",
"523 -143 CURVE SMOOTH",
"488 -143 OFFCURVE",
"461 -126 OFFCURVE",
"461 -92 CURVE SMOOTH",
"461 -56 OFFCURVE",
"490 -20 OFFCURVE",
"524 0 CURVE",
"474 0 LINE",
"422 -20 OFFCURVE",
"391 -63 OFFCURVE",
"391 -107 CURVE SMOOTH",
"391 -149 OFFCURVE",
"426 -187 OFFCURVE",
"493 -187 CURVE SMOOTH"
);
},
{
closed = 1;
nodes = (
"459 243 LINE",
"459 445 LINE",
"443 445 LINE",
"433 421 OFFCURVE",
"426 380 OFFCURVE",
"424 362 CURVE",
"147 362 LINE",
"147 326 LINE",
"424 326 LINE",
"426 309 OFFCURVE",
"433 269 OFFCURVE",
"443 243 CURVE"
);
}
);
width = 613;
}
);
note = Eogonek;
unicode = 0118;
},
{
glyphname = Etilde;
lastChange = "2015-10-01 16:44:41 +0000";
layers = (
{
layerId = "100B1594-ACEA-4BEF-8FE3-15A73D27750B";
name = Regular;
paths = (
{
closed = 1;
nodes = (
"551 0 LINE",
"565 144 LINE",
"543 144 LINE",
"531 125 OFFCURVE",
"508 65 OFFCURVE",
"506 35 CURVE",
"216 35 LINE",
"216 663 LINE",
"503 663 LINE",
"505 637 OFFCURVE",
"519 574 OFFCURVE",
"530 554 CURVE",
"551 554 LINE",
"551 700 LINE",
"40 700 LINE",
"40 688 LINE",
"65 680 OFFCURVE",
"96 672 OFFCURVE",
"123 669 CURVE",
"123 31 LINE",
"92 28 OFFCURVE",
"62 20 OFFCURVE",
"40 12 CURVE",
"40 0 LINE"
);
},
{
closed = 1;
nodes = (
"459 243 LINE",
"459 445 LINE",
"443 445 LINE",
"433 421 OFFCURVE",
"426 380 OFFCURVE",
"424 362 CURVE",
"147 362 LINE",
"147 326 LINE",
"424 326 LINE",
"426 309 OFFCURVE",
"433 269 OFFCURVE",
"443 243 CURVE"
);
},
{
closed = 1;
nodes = (
"191 785 LINE",
"199 820 OFFCURVE",
"223 842 OFFCURVE",
"254 842 CURVE SMOOTH",
"294 842 OFFCURVE",
"350 786 OFFCURVE",
"400 786 CURVE SMOOTH",
"459 786 OFFCURVE",
"490 827 OFFCURVE",
"499 890 CURVE",
"467 890 LINE",
"457 847 OFFCURVE",
"431 830 OFFCURVE",
"402 830 CURVE SMOOTH",
"361 830 OFFCURVE",
"314 885 OFFCURVE",
"256 885 CURVE SMOOTH",
"204 885 OFFCURVE",
"168 854 OFFCURVE",
"158 785 CURVE"
);
}
);
width = 613;
}
);
note = Etilde;
unicode = 1EBC;
},
{
glyphname = F;
lastChange = "2015-10-01 16:44:41 +0000";
layers = (
{
layerId = "100B1594-ACEA-4BEF-8FE3-15A73D27750B";
name = Regular;
paths = (
{
closed = 1;
nodes = (
"300 0 LINE",
"300 11 LINE",
"274 20 OFFCURVE",
"242 26 OFFCURVE",
"216 30 CURVE",
"216 663 LINE",
"495 663 LINE",
"497 637 OFFCURVE",
"511 574 OFFCURVE",
"522 554 CURVE",
"544 554 LINE",
"544 700 LINE",
"40 700 LINE",
"40 688 LINE",
"66 679 OFFCURVE",
"97 673 OFFCURVE",
"123 669 CURVE",
"123 30 LINE",
"88 26 OFFCURVE",
"62 19 OFFCURVE",
"40 12 CURVE",
"40 0 LINE"
);
},
{
closed = 1;
nodes = (
"459 243 LINE",
"459 445 LINE",
"443 445 LINE",
"433 421 OFFCURVE",
"426 380 OFFCURVE",
"424 362 CURVE",
"147 362 LINE",
"147 326 LINE",
"424 326 LINE",
"426 309 OFFCURVE",
"433 269 OFFCURVE",
"443 243 CURVE"
);
}
);
width = 570;
}
);
note = F;
unicode = 0046;
},
{
glyphname = G;
lastChange = "2015-10-01 16:44:40 +0000";
layers = (
{
layerId = "100B1594-ACEA-4BEF-8FE3-15A73D27750B";
name = Regular;
paths = (
{
closed = 1;
nodes = (
"444 -10 OFFCURVE",
"539 10 OFFCURVE",
"590 49 CURVE",
"590 307 LINE",
"620 311 OFFCURVE",
"645 321 OFFCURVE",
"660 329 CURVE",
"660 339 LINE",
"422 339 LINE",
"422 327 LINE",
"446 320 OFFCURVE",
"474 314 OFFCURVE",
"501 309 CURVE",
"501 55 LINE",
"464 35 OFFCURVE",
"407 27 OFFCURVE",
"376 27 CURVE SMOOTH",
"201 27 OFFCURVE",
"131 163 OFFCURVE",
"131 350 CURVE SMOOTH",
"131 537 OFFCURVE",
"216 673 OFFCURVE",
"390 673 CURVE SMOOTH",
"445 673 OFFCURVE",
"520 655 OFFCURVE",
"550 631 CURVE",
"553 597 OFFCURVE",
"560 547 OFFCURVE",
"569 519 CURVE",
"593 519 LINE",
"602 641 LINE",
"556 683 OFFCURVE",
"461 710 OFFCURVE",
"366 710 CURVE SMOOTH",
"159 710 OFFCURVE",
"37 572 OFFCURVE",
"37 350 CURVE SMOOTH",
"37 127 OFFCURVE",
"147 -10 OFFCURVE",
"360 -10 CURVE SMOOTH"
);
}
);
width = 671;
}
);
leftKerningGroup = G;
note = G;
unicode = 0047;
},
{
glyphname = Gbreve;
lastChange = "2015-10-01 16:44:41 +0000";
layers = (
{
layerId = "100B1594-ACEA-4BEF-8FE3-15A73D27750B";
name = Regular;
paths = (
{
closed = 1;
nodes = (
"444 -10 OFFCURVE",
"539 10 OFFCURVE",
"590 49 CURVE",
"590 307 LINE",
"620 311 OFFCURVE",
"645 321 OFFCURVE",
"660 329 CURVE",
"660 339 LINE",
"422 339 LINE",
"422 327 LINE",
"446 320 OFFCURVE",
"474 314 OFFCURVE",
"501 309 CURVE",
"501 55 LINE",
"464 35 OFFCURVE",
"407 27 OFFCURVE",
"376 27 CURVE SMOOTH",
"201 27 OFFCURVE",
"131 163 OFFCURVE",
"131 350 CURVE SMOOTH",
"131 537 OFFCURVE",
"216 673 OFFCURVE",
"390 673 CURVE SMOOTH",
"445 673 OFFCURVE",
"520 655 OFFCURVE",
"550 631 CURVE",
"553 597 OFFCURVE",
"560 547 OFFCURVE",
"569 519 CURVE",
"593 519 LINE",
"602 641 LINE",
"556 683 OFFCURVE",
"461 710 OFFCURVE",
"366 710 CURVE SMOOTH",
"159 710 OFFCURVE",
"37 572 OFFCURVE",
"37 350 CURVE SMOOTH",
"37 127 OFFCURVE",
"147 -10 OFFCURVE",
"360 -10 CURVE SMOOTH"
);
},
{
closed = 1;
nodes = (
"451 777 OFFCURVE",
"512 816 OFFCURVE",
"522 901 CURVE",
"466 901 LINE",
"458 825 OFFCURVE",
"408 814 OFFCURVE",
"367 814 CURVE SMOOTH",
"326 814 OFFCURVE",
"275 825 OFFCURVE",
"267 901 CURVE",
"211 901 LINE",
"222 816 OFFCURVE",
"282 777 OFFCURVE",
"367 777 CURVE SMOOTH"
);
}
);
width = 671;
}
);
leftKerningGroup = G;
note = Gbreve;
unicode = 011E;
},
{
glyphname = Gcaron;
lastChange = "2015-10-01 16:44:41 +0000";
layers = (
{
layerId = "100B1594-ACEA-4BEF-8FE3-15A73D27750B";
name = Regular;
paths = (
{
closed = 1;
nodes = (
"444 -10 OFFCURVE",
"539 10 OFFCURVE",
"590 49 CURVE",
"590 307 LINE",
"620 311 OFFCURVE",
"645 321 OFFCURVE",
"660 329 CURVE",
"660 339 LINE",
"422 339 LINE",
"422 327 LINE",
"446 320 OFFCURVE",
"474 314 OFFCURVE",
"501 309 CURVE",
"501 55 LINE",
"464 35 OFFCURVE",
"407 27 OFFCURVE",
"376 27 CURVE SMOOTH",
"201 27 OFFCURVE",
"131 163 OFFCURVE",
"131 350 CURVE SMOOTH",
"131 537 OFFCURVE",
"216 673 OFFCURVE",
"390 673 CURVE SMOOTH",
"445 673 OFFCURVE",
"520 655 OFFCURVE",
"550 631 CURVE",
"553 597 OFFCURVE",
"560 547 OFFCURVE",
"569 519 CURVE",
"593 519 LINE",
"602 641 LINE",
"556 683 OFFCURVE",
"461 710 OFFCURVE",
"366 710 CURVE SMOOTH",
"159 710 OFFCURVE",
"37 572 OFFCURVE",
"37 350 CURVE SMOOTH",
"37 127 OFFCURVE",
"147 -10 OFFCURVE",
"360 -10 CURVE SMOOTH"
);
},
{
closed = 1;
nodes = (
"392 797 LINE",
"421 838 OFFCURVE",
"482 893 OFFCURVE",
"523 920 CURVE",
"485 952 LINE",
"447 924 OFFCURVE",
"399 879 OFFCURVE",
"373 843 CURVE",
"368 843 LINE",
"342 879 OFFCURVE",
"293 924 OFFCURVE",
"255 952 CURVE",
"218 920 LINE",
"258 893 OFFCURVE",
"320 838 OFFCURVE",
"349 797 CURVE"
);
}
);
width = 671;
}
);
leftKerningGroup = G;
note = Gcaron;
unicode = 01E6;
},
{
glyphname = Gcircumflex;
lastChange = "2015-10-01 16:44:41 +0000";
layers = (
{
layerId = "100B1594-ACEA-4BEF-8FE3-15A73D27750B";
name = Regular;
paths = (
{
closed = 1;
nodes = (
"444 -10 OFFCURVE",
"539 10 OFFCURVE",
"590 49 CURVE",
"590 307 LINE",
"620 311 OFFCURVE",
"645 321 OFFCURVE",
"660 329 CURVE",
"660 339 LINE",
"422 339 LINE",
"422 327 LINE",
"446 320 OFFCURVE",
"474 314 OFFCURVE",
"501 309 CURVE",
"501 55 LINE",
"464 35 OFFCURVE",
"407 27 OFFCURVE",
"376 27 CURVE SMOOTH",
"201 27 OFFCURVE",
"131 163 OFFCURVE",
"131 350 CURVE SMOOTH",
"131 537 OFFCURVE",
"216 673 OFFCURVE",
"390 673 CURVE SMOOTH",
"445 673 OFFCURVE",
"520 655 OFFCURVE",
"550 631 CURVE",
"553 597 OFFCURVE",
"560 547 OFFCURVE",
"569 519 CURVE",
"593 519 LINE",
"602 641 LINE",
"556 683 OFFCURVE",
"461 710 OFFCURVE",
"366 710 CURVE SMOOTH",
"159 710 OFFCURVE",
"37 572 OFFCURVE",
"37 350 CURVE SMOOTH",
"37 127 OFFCURVE",
"147 -10 OFFCURVE",
"360 -10 CURVE SMOOTH"
);
},
{
closed = 1;
nodes = (
"304 808 OFFCURVE",
"353 853 OFFCURVE",
"379 889 CURVE",
"384 889 LINE",
"410 853 OFFCURVE",
"458 808 OFFCURVE",
"496 780 CURVE",
"534 812 LINE",
"493 839 OFFCURVE",
"432 894 OFFCURVE",
"403 934 CURVE",
"360 934 LINE",
"331 894 OFFCURVE",
"269 839 OFFCURVE",
"229 812 CURVE",
"266 780 LINE"
);
}
);
width = 671;
}
);
leftKerningGroup = G;
note = Gcircumflex;
unicode = 011C;
},
{
glyphname = Gcommaaccent;
lastChange = "2015-10-01 16:44:41 +0000";
layers = (
{
layerId = "100B1594-ACEA-4BEF-8FE3-15A73D27750B";
name = Regular;
paths = (
{
closed = 1;
nodes = (
"444 -10 OFFCURVE",
"539 10 OFFCURVE",
"590 49 CURVE",
"590 307 LINE",
"620 311 OFFCURVE",
"645 321 OFFCURVE",
"660 329 CURVE",
"660 339 LINE",
"422 339 LINE",
"422 327 LINE",
"446 320 OFFCURVE",
"474 314 OFFCURVE",
"501 309 CURVE",
"501 55 LINE",
"464 35 OFFCURVE",
"407 27 OFFCURVE",
"376 27 CURVE SMOOTH",
"201 27 OFFCURVE",
"131 163 OFFCURVE",
"131 350 CURVE SMOOTH",
"131 537 OFFCURVE",
"216 673 OFFCURVE",
"390 673 CURVE SMOOTH",
"445 673 OFFCURVE",
"520 655 OFFCURVE",
"550 631 CURVE",
"553 597 OFFCURVE",
"560 547 OFFCURVE",
"569 519 CURVE",
"593 519 LINE",
"602 641 LINE",
"556 683 OFFCURVE",
"461 710 OFFCURVE",
"366 710 CURVE SMOOTH",
"159 710 OFFCURVE",
"37 572 OFFCURVE",
"37 350 CURVE SMOOTH",
"37 127 OFFCURVE",
"147 -10 OFFCURVE",
"360 -10 CURVE SMOOTH"
);
},
{
closed = 1;
nodes = (
"396 -263 OFFCURVE",
"426 -190 OFFCURVE",
"426 -135 CURVE SMOOTH",
"426 -98 OFFCURVE",
"409 -69 OFFCURVE",
"366 -69 CURVE SMOOTH",
"338 -69 OFFCURVE",
"312 -86 OFFCURVE",
"312 -118 CURVE SMOOTH",
"312 -145 OFFCURVE",
"329 -162 OFFCURVE",
"352 -166 CURVE SMOOTH",
"358 -167 OFFCURVE",
"364 -167 OFFCURVE",
"371 -166 CURVE",
"367 -207 OFFCURVE",
"347 -249 OFFCURVE",
"322 -277 CURVE",
"354 -302 LINE"
);
}
);
width = 671;
}
);
leftKerningGroup = G;
note = Gcommaaccent;
unicode = 0122;
},
{
glyphname = Gdotaccent;
lastChange = "2015-10-01 16:44:41 +0000";
layers = (
{
layerId = "100B1594-ACEA-4BEF-8FE3-15A73D27750B";
name = Regular;
paths = (
{
closed = 1;
nodes = (
"444 -10 OFFCURVE",
"539 10 OFFCURVE",
"590 49 CURVE",
"590 307 LINE",
"620 311 OFFCURVE",
"645 321 OFFCURVE",
"660 329 CURVE",
"660 339 LINE",
"422 339 LINE",
"422 327 LINE",
"446 320 OFFCURVE",
"474 314 OFFCURVE",
"501 309 CURVE",
"501 55 LINE",
"464 35 OFFCURVE",
"407 27 OFFCURVE",
"376 27 CURVE SMOOTH",
"201 27 OFFCURVE",
"131 163 OFFCURVE",
"131 350 CURVE SMOOTH",
"131 537 OFFCURVE",
"216 673 OFFCURVE",
"390 673 CURVE SMOOTH",
"445 673 OFFCURVE",
"520 655 OFFCURVE",
"550 631 CURVE",
"553 597 OFFCURVE",
"560 547 OFFCURVE",
"569 519 CURVE",
"593 519 LINE",
"602 641 LINE",
"556 683 OFFCURVE",
"461 710 OFFCURVE",
"366 710 CURVE SMOOTH",
"159 710 OFFCURVE",
"37 572 OFFCURVE",
"37 350 CURVE SMOOTH",
"37 127 OFFCURVE",
"147 -10 OFFCURVE",
"360 -10 CURVE SMOOTH"
);
},
{
closed = 1;
nodes = (
"404 785 OFFCURVE",
"422 804 OFFCURVE",
"422 830 CURVE SMOOTH",
"422 858 OFFCURVE",
"404 877 OFFCURVE",
"378 877 CURVE SMOOTH",
"350 877 OFFCURVE",
"333 858 OFFCURVE",
"333 830 CURVE SMOOTH",
"333 804 OFFCURVE",
"350 785 OFFCURVE",
"378 785 CURVE SMOOTH"
);
}
);
width = 671;
}
);
leftKerningGroup = G;
note = Gdotaccent;
unicode = 0120;
},
{
glyphname = Gmacron;
lastChange = "2015-10-01 16:44:41 +0000";
layers = (
{
layerId = "100B1594-ACEA-4BEF-8FE3-15A73D27750B";
name = Regular;
paths = (
{
closed = 1;
nodes = (
"444 -10 OFFCURVE",
"539 10 OFFCURVE",
"590 49 CURVE",
"590 307 LINE",
"620 311 OFFCURVE",
"645 321 OFFCURVE",
"660 329 CURVE",
"660 339 LINE",
"422 339 LINE",
"422 327 LINE",
"446 320 OFFCURVE",
"474 314 OFFCURVE",
"501 309 CURVE",
"501 55 LINE",
"464 35 OFFCURVE",
"407 27 OFFCURVE",
"376 27 CURVE SMOOTH",
"201 27 OFFCURVE",
"131 163 OFFCURVE",
"131 350 CURVE SMOOTH",
"131 537 OFFCURVE",
"216 673 OFFCURVE",
"390 673 CURVE SMOOTH",
"445 673 OFFCURVE",
"520 655 OFFCURVE",
"550 631 CURVE",
"553 597 OFFCURVE",
"560 547 OFFCURVE",
"569 519 CURVE",
"593 519 LINE",
"602 641 LINE",
"556 683 OFFCURVE",
"461 710 OFFCURVE",
"366 710 CURVE SMOOTH",
"159 710 OFFCURVE",
"37 572 OFFCURVE",
"37 350 CURVE SMOOTH",
"37 127 OFFCURVE",
"147 -10 OFFCURVE",
"360 -10 CURVE SMOOTH"
);
},
{
closed = 1;
nodes = (
"526 784 LINE",
"526 819 LINE",
"193 819 LINE",
"193 784 LINE"
);
}
);
width = 671;
}
);
leftKerningGroup = G;
note = Gmacron;
unicode = 1E20;
},
{
glyphname = H;
lastChange = "2015-10-01 16:44:41 +0000";
layers = (
{
layerId = "100B1594-ACEA-4BEF-8FE3-15A73D27750B";
name = Regular;
paths = (
{
closed = 1;
nodes = (
"751 0 LINE",
"751 11 LINE",
"725 20 OFFCURVE",
"697 26 OFFCURVE",
"670 30 CURVE",
"670 668 LINE",
"701 671 OFFCURVE",
"728 679 OFFCURVE",
"751 687 CURVE",
"751 700 LINE",
"500 700 LINE",
"500 688 LINE",
"526 680 OFFCURVE",
"552 673 OFFCURVE",
"578 669 CURVE",
"578 30 LINE",
"549 27 OFFCURVE",
"536 24 OFFCURVE",
"500 10 CURVE",
"500 0 LINE"
);
},
{
closed = 1;
nodes = (
"290 0 LINE",
"290 11 LINE",
"265 19 OFFCURVE",
"238 25 OFFCURVE",
"212 30 CURVE",
"212 669 LINE",
"241 672 OFFCURVE",
"254 675 OFFCURVE",
"290 688 CURVE",
"290 700 LINE",
"40 700 LINE",
"40 688 LINE",
"66 679 OFFCURVE",
"93 673 OFFCURVE",
"119 669 CURVE",
"119 30 LINE",
"88 27 OFFCURVE",
"62 20 OFFCURVE",
"40 12 CURVE",
"40 0 LINE"
);
},
{
closed = 1;
nodes = (
"623 337 LINE",
"623 373 LINE",
"168 373 LINE",
"168 337 LINE"
);
}
);
width = 791;
}
);
note = H;
unicode = 0048;
},
{
glyphname = Hbar;
lastChange = "2015-10-01 16:44:41 +0000";
layers = (
{
layerId = "100B1594-ACEA-4BEF-8FE3-15A73D27750B";
name = Regular;
paths = (
{
closed = 1;
nodes = (
"751 0 LINE",
"751 11 LINE",
"725 20 OFFCURVE",
"697 26 OFFCURVE",
"670 30 CURVE",
"670 668 LINE",
"701 671 OFFCURVE",
"728 679 OFFCURVE",
"751 687 CURVE",
"751 700 LINE",
"500 700 LINE",
"500 688 LINE",
"526 680 OFFCURVE",
"552 673 OFFCURVE",
"578 669 CURVE",
"578 30 LINE",
"549 27 OFFCURVE",
"536 24 OFFCURVE",
"500 10 CURVE",
"500 0 LINE"
);
},
{
closed = 1;
nodes = (
"290 0 LINE",
"290 11 LINE",
"265 19 OFFCURVE",
"238 25 OFFCURVE",
"212 30 CURVE",
"212 669 LINE",
"241 672 OFFCURVE",
"254 675 OFFCURVE",
"290 688 CURVE",
"290 700 LINE",
"40 700 LINE",
"40 688 LINE",
"66 679 OFFCURVE",
"93 673 OFFCURVE",
"119 669 CURVE",
"119 30 LINE",
"88 27 OFFCURVE",
"62 20 OFFCURVE",
"40 12 CURVE",
"40 0 LINE"
);
},
{
closed = 1;
nodes = (
"623 337 LINE",
"623 373 LINE",
"168 373 LINE",
"168 337 LINE"
);
},
{
closed = 1;
nodes = (
"731 504 LINE",
"731 540 LINE",
"59 540 LINE",
"59 504 LINE"
);
}
);
width = 791;
}
);
note = Hbar;
unicode = 0126;
},
{
glyphname = Hbrevebelow;
lastChange = "2015-10-01 16:44:41 +0000";
layers = (
{
layerId = "100B1594-ACEA-4BEF-8FE3-15A73D27750B";
name = Regular;
paths = (
{
closed = 1;
nodes = (
"751 0 LINE",
"751 11 LINE",
"725 20 OFFCURVE",
"697 26 OFFCURVE",
"670 30 CURVE",
"670 668 LINE",
"701 671 OFFCURVE",
"728 679 OFFCURVE",
"751 687 CURVE",
"751 700 LINE",
"500 700 LINE",
"500 688 LINE",
"526 680 OFFCURVE",
"552 673 OFFCURVE",
"578 669 CURVE",
"578 30 LINE",
"549 27 OFFCURVE",
"536 24 OFFCURVE",
"500 10 CURVE",
"500 0 LINE"
);
},
{
closed = 1;
nodes = (
"479 -174 OFFCURVE",
"540 -135 OFFCURVE",
"550 -50 CURVE",
"494 -50 LINE",
"486 -126 OFFCURVE",
"436 -138 OFFCURVE",
"395 -138 CURVE SMOOTH",
"354 -138 OFFCURVE",
"303 -126 OFFCURVE",
"295 -50 CURVE",
"239 -50 LINE",
"250 -135 OFFCURVE",
"310 -174 OFFCURVE",
"395 -174 CURVE SMOOTH"
);
},
{
closed = 1;
nodes = (
"290 0 LINE",
"290 11 LINE",
"265 19 OFFCURVE",
"238 25 OFFCURVE",
"212 30 CURVE",
"212 669 LINE",
"241 672 OFFCURVE",
"254 675 OFFCURVE",
"290 688 CURVE",
"290 700 LINE",
"40 700 LINE",
"40 688 LINE",
"66 679 OFFCURVE",
"93 673 OFFCURVE",
"119 669 CURVE",
"119 30 LINE",
"88 27 OFFCURVE",
"62 20 OFFCURVE",
"40 12 CURVE",
"40 0 LINE"
);
},
{
closed = 1;
nodes = (
"623 337 LINE",
"623 373 LINE",
"168 373 LINE",
"168 337 LINE"
);
}
);
width = 791;
}
);
note = Hbrevebelow;
unicode = 1E2A;
},
{
glyphname = Hcircumflex;
lastChange = "2015-10-01 16:44:41 +0000";
layers = (
{
layerId = "100B1594-ACEA-4BEF-8FE3-15A73D27750B";
name = Regular;
paths = (
{
closed = 1;
nodes = (
"751 0 LINE",
"751 11 LINE",
"725 20 OFFCURVE",
"697 26 OFFCURVE",
"670 30 CURVE",
"670 668 LINE",
"701 671 OFFCURVE",
"728 679 OFFCURVE",
"751 687 CURVE",
"751 700 LINE",
"500 700 LINE",
"500 688 LINE",
"526 680 OFFCURVE",
"552 673 OFFCURVE",
"578 669 CURVE",
"578 30 LINE",
"549 27 OFFCURVE",
"536 24 OFFCURVE",
"500 10 CURVE",
"500 0 LINE"
);
},
{
closed = 1;
nodes = (
"290 0 LINE",
"290 11 LINE",
"265 19 OFFCURVE",
"238 25 OFFCURVE",
"212 30 CURVE",
"212 669 LINE",
"241 672 OFFCURVE",
"254 675 OFFCURVE",
"290 688 CURVE",
"290 700 LINE",
"40 700 LINE",
"40 688 LINE",
"66 679 OFFCURVE",
"93 673 OFFCURVE",
"119 669 CURVE",
"119 30 LINE",
"88 27 OFFCURVE",
"62 20 OFFCURVE",
"40 12 CURVE",
"40 0 LINE"
);
},
{
closed = 1;
nodes = (
"623 337 LINE",
"623 373 LINE",
"168 373 LINE",
"168 337 LINE"
);
},
{
closed = 1;
nodes = (
"318 808 OFFCURVE",
"367 853 OFFCURVE",
"393 889 CURVE",
"398 889 LINE",
"424 853 OFFCURVE",
"472 808 OFFCURVE",
"510 780 CURVE",
"548 812 LINE",
"507 839 OFFCURVE",
"446 894 OFFCURVE",
"417 934 CURVE",
"374 934 LINE",
"345 894 OFFCURVE",
"283 839 OFFCURVE",
"243 812 CURVE",
"280 780 LINE"
);
}
);
width = 791;
}
);
note = Hcircumflex;
unicode = 0124;
},
{
glyphname = Hdotbelow;
lastChange = "2015-10-01 16:44:41 +0000";
layers = (
{
layerId = "100B1594-ACEA-4BEF-8FE3-15A73D27750B";
name = Regular;
paths = (
{
closed = 1;
nodes = (
"751 0 LINE",
"751 11 LINE",
"725 20 OFFCURVE",
"697 26 OFFCURVE",
"670 30 CURVE",
"670 668 LINE",
"701 671 OFFCURVE",
"728 679 OFFCURVE",
"751 687 CURVE",
"751 700 LINE",
"500 700 LINE",
"500 688 LINE",
"526 680 OFFCURVE",
"552 673 OFFCURVE",
"578 669 CURVE",
"578 30 LINE",
"549 27 OFFCURVE",
"536 24 OFFCURVE",
"500 10 CURVE",
"500 0 LINE"
);
},
{
closed = 1;
nodes = (
"418 -151 OFFCURVE",
"436 -132 OFFCURVE",
"436 -106 CURVE SMOOTH",
"436 -78 OFFCURVE",
"418 -59 OFFCURVE",
"391 -59 CURVE SMOOTH",
"364 -59 OFFCURVE",
"346 -78 OFFCURVE",
"346 -106 CURVE SMOOTH",
"346 -132 OFFCURVE",
"364 -151 OFFCURVE",
"391 -151 CURVE SMOOTH"
);
},
{
closed = 1;
nodes = (
"290 0 LINE",
"290 11 LINE",
"265 19 OFFCURVE",
"238 25 OFFCURVE",
"212 30 CURVE",
"212 669 LINE",
"241 672 OFFCURVE",
"254 675 OFFCURVE",
"290 688 CURVE",
"290 700 LINE",
"40 700 LINE",
"40 688 LINE",
"66 679 OFFCURVE",
"93 673 OFFCURVE",
"119 669 CURVE",
"119 30 LINE",
"88 27 OFFCURVE",
"62 20 OFFCURVE",
"40 12 CURVE",
"40 0 LINE"
);
},
{
closed = 1;
nodes = (
"623 337 LINE",
"623 373 LINE",
"168 373 LINE",
"168 337 LINE"
);
}
);
width = 791;
}
);
note = Hdotbelow;
unicode = 1E24;
},
{
glyphname = I;
lastChange = "2015-10-01 16:44:40 +0000";
layers = (
{
layerId = "100B1594-ACEA-4BEF-8FE3-15A73D27750B";
name = Regular;
paths = (
{
closed = 1;
nodes = (
"298 0 LINE",
"298 11 LINE",
"272 19 OFFCURVE",
"242 26 OFFCURVE",
"216 30 CURVE",
"216 669 LINE",
"245 673 OFFCURVE",
"274 679 OFFCURVE",
"298 687 CURVE",
"298 700 LINE",
"43 700 LINE",
"43 688 LINE",
"68 680 OFFCURVE",
"98 673 OFFCURVE",
"124 669 CURVE",
"124 30 LINE",
"96 26 OFFCURVE",
"67 19 OFFCURVE",
"43 12 CURVE",
"43 0 LINE"
);
}
);
width = 341;
}
);
note = I;
unicode = 0049;
},
{
glyphname = IJ;
lastChange = "2015-10-01 16:44:42 +0000";
layers = (
{
layerId = "100B1594-ACEA-4BEF-8FE3-15A73D27750B";
name = Regular;
paths = (
{
closed = 1;
nodes = (
"617 -10 OFFCURVE",
"690 41 OFFCURVE",
"690 143 CURVE SMOOTH",
"690 668 LINE",
"721 671 OFFCURVE",
"747 679 OFFCURVE",
"769 687 CURVE",
"769 700 LINE",
"518 700 LINE",
"518 686 LINE",
"539 679 OFFCURVE",
"560 673 OFFCURVE",
"597 668 CURVE",
"597 143 LINE SMOOTH",
"597 61 OFFCURVE",
"549 33 OFFCURVE",
"485 33 CURVE SMOOTH",
"441 33 OFFCURVE",
"402 46 OFFCURVE",
"373 63 CURVE",
"358 39 LINE",
"396 8 OFFCURVE",
"449 -10 OFFCURVE",
"512 -10 CURVE SMOOTH"
);
},
{
closed = 1;
nodes = (
"298 0 LINE",
"298 11 LINE",
"272 19 OFFCURVE",
"242 26 OFFCURVE",
"216 30 CURVE",
"216 669 LINE",
"245 673 OFFCURVE",
"274 679 OFFCURVE",
"298 687 CURVE",
"298 700 LINE",
"43 700 LINE",
"43 688 LINE",
"68 680 OFFCURVE",
"98 673 OFFCURVE",
"124 669 CURVE",
"124 30 LINE",
"96 26 OFFCURVE",
"67 19 OFFCURVE",
"43 12 CURVE",
"43 0 LINE"
);
}
);
width = 810;
}
);
note = IJ;
rightKerningGroup = J;
unicode = 0132;
},
{
glyphname = Iacute;
lastChange = "2015-10-01 16:44:41 +0000";
layers = (
{
layerId = "100B1594-ACEA-4BEF-8FE3-15A73D27750B";
name = Regular;
paths = (
{
closed = 1;
nodes = (
"298 0 LINE",
"298 11 LINE",
"272 19 OFFCURVE",
"242 26 OFFCURVE",
"216 30 CURVE",
"216 669 LINE",
"245 673 OFFCURVE",
"274 679 OFFCURVE",
"298 687 CURVE",
"298 700 LINE",
"43 700 LINE",
"43 688 LINE",
"68 680 OFFCURVE",
"98 673 OFFCURVE",
"124 669 CURVE",
"124 30 LINE",
"96 26 OFFCURVE",
"67 19 OFFCURVE",
"43 12 CURVE",
"43 0 LINE"
);
},
{
closed = 1;
nodes = (
"231 868 LINE SMOOTH",
"252 881 OFFCURVE",
"263 895 OFFCURVE",
"263 911 CURVE SMOOTH",
"263 924 OFFCURVE",
"253 938 OFFCURVE",
"232 938 CURVE SMOOTH",
"210 938 OFFCURVE",
"194 922 OFFCURVE",
"187 915 CURVE",
"73 809 LINE",
"89 786 LINE"
);
}
);
width = 341;
}
);
note = Iacute;
unicode = 00CD;
},
{
glyphname = Ibreve;
lastChange = "2015-10-01 16:44:41 +0000";
layers = (
{
layerId = "100B1594-ACEA-4BEF-8FE3-15A73D27750B";
name = Regular;
paths = (
{
closed = 1;
nodes = (
"298 0 LINE",
"298 11 LINE",
"272 19 OFFCURVE",
"242 26 OFFCURVE",
"216 30 CURVE",
"216 669 LINE",
"245 673 OFFCURVE",
"274 679 OFFCURVE",
"298 687 CURVE",
"298 700 LINE",
"43 700 LINE",
"43 688 LINE",
"68 680 OFFCURVE",
"98 673 OFFCURVE",
"124 669 CURVE",
"124 30 LINE",
"96 26 OFFCURVE",
"67 19 OFFCURVE",
"43 12 CURVE",
"43 0 LINE"
);
},
{
closed = 1;
nodes = (
"254 777 OFFCURVE",
"315 816 OFFCURVE",
"325 901 CURVE",
"269 901 LINE",
"261 825 OFFCURVE",
"211 814 OFFCURVE",
"170 814 CURVE SMOOTH",
"129 814 OFFCURVE",
"78 825 OFFCURVE",
"70 901 CURVE",
"14 901 LINE",
"25 816 OFFCURVE",
"85 777 OFFCURVE",
"170 777 CURVE SMOOTH"
);
}
);
width = 341;
}
);
note = Ibreve;
unicode = 012C;
},
{
glyphname = Icaron;
lastChange = "2015-10-01 16:44:41 +0000";
layers = (
{
layerId = "100B1594-ACEA-4BEF-8FE3-15A73D27750B";
name = Regular;
paths = (
{
closed = 1;
nodes = (
"298 0 LINE",
"298 11 LINE",
"272 19 OFFCURVE",
"242 26 OFFCURVE",
"216 30 CURVE",
"216 669 LINE",
"245 673 OFFCURVE",
"274 679 OFFCURVE",
"298 687 CURVE",
"298 700 LINE",
"43 700 LINE",
"43 688 LINE",
"68 680 OFFCURVE",
"98 673 OFFCURVE",
"124 669 CURVE",
"124 30 LINE",
"96 26 OFFCURVE",
"67 19 OFFCURVE",
"43 12 CURVE",
"43 0 LINE"
);
},
{
closed = 1;
nodes = (
"191 786 LINE",
"220 827 OFFCURVE",
"281 882 OFFCURVE",
"322 909 CURVE",
"284 941 LINE",
"246 913 OFFCURVE",
"198 868 OFFCURVE",
"172 832 CURVE",
"167 832 LINE",
"141 868 OFFCURVE",
"92 913 OFFCURVE",
"54 941 CURVE",
"17 909 LINE",
"57 882 OFFCURVE",
"119 827 OFFCURVE",
"148 786 CURVE"
);
}
);
width = 341;
}
);
note = Icaron;
unicode = 01CF;
},
{
glyphname = Icircumflex;
lastChange = "2015-10-01 16:44:41 +0000";
layers = (
{
layerId = "100B1594-ACEA-4BEF-8FE3-15A73D27750B";
name = Regular;
paths = (
{
closed = 1;
nodes = (
"298 0 LINE",
"298 11 LINE",
"272 19 OFFCURVE",
"242 26 OFFCURVE",
"216 30 CURVE",
"216 669 LINE",
"245 673 OFFCURVE",
"274 679 OFFCURVE",
"298 687 CURVE",
"298 700 LINE",
"43 700 LINE",
"43 688 LINE",
"68 680 OFFCURVE",
"98 673 OFFCURVE",
"124 669 CURVE",
"124 30 LINE",
"96 26 OFFCURVE",
"67 19 OFFCURVE",
"43 12 CURVE",
"43 0 LINE"
);
},
{
closed = 1;
nodes = (
"92 808 OFFCURVE",
"141 853 OFFCURVE",
"167 889 CURVE",
"172 889 LINE",
"198 853 OFFCURVE",
"246 808 OFFCURVE",
"284 780 CURVE",
"322 812 LINE",
"281 839 OFFCURVE",
"220 894 OFFCURVE",
"191 934 CURVE",
"148 934 LINE",
"119 894 OFFCURVE",
"57 839 OFFCURVE",
"17 812 CURVE",
"54 780 LINE"
);
}
);
width = 341;
}
);
note = Icircumflex;
unicode = 00CE;
},
{
glyphname = Idieresis;
lastChange = "2015-10-01 16:44:41 +0000";
layers = (
{
layerId = "100B1594-ACEA-4BEF-8FE3-15A73D27750B";
name = Regular;
paths = (
{
closed = 1;
nodes = (
"298 0 LINE",
"298 11 LINE",
"272 19 OFFCURVE",
"242 26 OFFCURVE",
"216 30 CURVE",
"216 669 LINE",
"245 673 OFFCURVE",
"274 679 OFFCURVE",
"298 687 CURVE",
"298 700 LINE",
"43 700 LINE",
"43 688 LINE",
"68 680 OFFCURVE",
"98 673 OFFCURVE",
"124 669 CURVE",
"124 30 LINE",
"96 26 OFFCURVE",
"67 19 OFFCURVE",
"43 12 CURVE",
"43 0 LINE"
);
},
{
closed = 1;
nodes = (
"86 785 OFFCURVE",
"104 804 OFFCURVE",
"104 830 CURVE SMOOTH",
"104 858 OFFCURVE",
"86 877 OFFCURVE",
"59 877 CURVE SMOOTH",
"33 877 OFFCURVE",
"15 858 OFFCURVE",
"15 830 CURVE SMOOTH",
"15 804 OFFCURVE",
"33 785 OFFCURVE",
"59 785 CURVE SMOOTH"
);
},
{
closed = 1;
nodes = (
"306 785 OFFCURVE",
"324 804 OFFCURVE",
"324 830 CURVE SMOOTH",
"324 858 OFFCURVE",
"306 877 OFFCURVE",
"279 877 CURVE SMOOTH",
"252 877 OFFCURVE",
"235 858 OFFCURVE",
"235 830 CURVE SMOOTH",
"235 804 OFFCURVE",
"252 785 OFFCURVE",
"279 785 CURVE SMOOTH"
);
}
);
width = 341;
}
);
note = Idieresis;
unicode = 00CF;
},
{
glyphname = Idotaccent;
lastChange = "2015-10-01 16:44:41 +0000";
layers = (
{
layerId = "100B1594-ACEA-4BEF-8FE3-15A73D27750B";
name = Regular;
paths = (
{
closed = 1;
nodes = (
"298 0 LINE",
"298 11 LINE",
"272 19 OFFCURVE",
"242 26 OFFCURVE",
"216 30 CURVE",
"216 669 LINE",
"245 673 OFFCURVE",
"274 679 OFFCURVE",
"298 687 CURVE",
"298 700 LINE",
"43 700 LINE",
"43 688 LINE",
"68 680 OFFCURVE",
"98 673 OFFCURVE",
"124 669 CURVE",
"124 30 LINE",
"96 26 OFFCURVE",
"67 19 OFFCURVE",
"43 12 CURVE",
"43 0 LINE"
);
},
{
closed = 1;
nodes = (
"195 785 OFFCURVE",
"213 804 OFFCURVE",
"213 830 CURVE SMOOTH",
"213 858 OFFCURVE",
"195 877 OFFCURVE",
"169 877 CURVE SMOOTH",
"141 877 OFFCURVE",
"124 858 OFFCURVE",
"124 830 CURVE SMOOTH",
"124 804 OFFCURVE",
"141 785 OFFCURVE",
"169 785 CURVE SMOOTH"
);
}
);
width = 341;
}
);
note = Idotaccent;
unicode = 0130;
},
{
glyphname = Idotbelow;
lastChange = "2015-10-01 16:44:41 +0000";
layers = (
{
layerId = "100B1594-ACEA-4BEF-8FE3-15A73D27750B";
name = Regular;
paths = (
{
closed = 1;
nodes = (
"298 0 LINE",
"298 11 LINE",
"272 19 OFFCURVE",
"242 26 OFFCURVE",
"216 30 CURVE",
"216 669 LINE",
"245 673 OFFCURVE",
"274 679 OFFCURVE",
"298 687 CURVE",
"298 700 LINE",
"43 700 LINE",
"43 688 LINE",
"68 680 OFFCURVE",
"98 673 OFFCURVE",
"124 669 CURVE",
"124 30 LINE",
"96 26 OFFCURVE",
"67 19 OFFCURVE",
"43 12 CURVE",
"43 0 LINE"
);
},
{
closed = 1;
nodes = (
"196 -151 OFFCURVE",
"214 -132 OFFCURVE",
"214 -106 CURVE SMOOTH",
"214 -78 OFFCURVE",
"196 -59 OFFCURVE",
"169 -59 CURVE SMOOTH",
"142 -59 OFFCURVE",
"124 -78 OFFCURVE",
"124 -106 CURVE SMOOTH",
"124 -132 OFFCURVE",
"142 -151 OFFCURVE",
"169 -151 CURVE SMOOTH"
);
}
);
width = 341;
}
);
note = Idotbelow;
unicode = 1ECA;
},
{
glyphname = Igrave;
lastChange = "2015-10-01 16:44:42 +0000";
layers = (
{
layerId = "100B1594-ACEA-4BEF-8FE3-15A73D27750B";
name = Regular;
paths = (
{
closed = 1;
nodes = (
"298 0 LINE",
"298 11 LINE",
"272 19 OFFCURVE",
"242 26 OFFCURVE",
"216 30 CURVE",
"216 669 LINE",
"245 673 OFFCURVE",
"274 679 OFFCURVE",
"298 687 CURVE",
"298 700 LINE",
"43 700 LINE",
"43 688 LINE",
"68 680 OFFCURVE",
"98 673 OFFCURVE",
"124 669 CURVE",
"124 30 LINE",
"96 26 OFFCURVE",
"67 19 OFFCURVE",
"43 12 CURVE",
"43 0 LINE"
);
},
{
closed = 1;
nodes = (
"265 809 LINE",
"149 916 LINE",
"141 924 OFFCURVE",
"126 938 OFFCURVE",
"105 938 CURVE SMOOTH",
"84 938 OFFCURVE",
"73 924 OFFCURVE",
"73 911 CURVE SMOOTH",
"73 895 OFFCURVE",
"85 881 OFFCURVE",
"107 868 CURVE SMOOTH",
"249 786 LINE"
);
}
);
width = 341;
}
);
note = Igrave;
unicode = 00CC;
},
{
glyphname = Ihookabove;
lastChange = "2015-10-01 16:44:42 +0000";
layers = (
{
layerId = "100B1594-ACEA-4BEF-8FE3-15A73D27750B";
name = Regular;
paths = (
{
closed = 1;
nodes = (
"298 0 LINE",
"298 11 LINE",
"272 19 OFFCURVE",
"242 26 OFFCURVE",
"216 30 CURVE",
"216 669 LINE",
"245 673 OFFCURVE",
"274 679 OFFCURVE",
"298 687 CURVE",
"298 700 LINE",
"43 700 LINE",
"43 688 LINE",
"68 680 OFFCURVE",
"98 673 OFFCURVE",
"124 669 CURVE",
"124 30 LINE",
"96 26 OFFCURVE",
"67 19 OFFCURVE",
"43 12 CURVE",
"43 0 LINE"
);
},
{
closed = 1;
nodes = (
"193 779 LINE",
"203 843 LINE",
"255 848 OFFCURVE",
"287 872 OFFCURVE",
"287 919 CURVE SMOOTH",
"287 975 OFFCURVE",
"239 998 OFFCURVE",
"189 998 CURVE SMOOTH",
"159 998 OFFCURVE",
"130 990 OFFCURVE",
"112 981 CURVE",
"119 951 LINE",
"139 962 OFFCURVE",
"160 967 OFFCURVE",
"177 967 CURVE SMOOTH",
"216 967 OFFCURVE",
"236 946 OFFCURVE",
"236 921 CURVE SMOOTH",
"236 890 OFFCURVE",
"213 869 OFFCURVE",
"173 869 CURVE SMOOTH",
"149 869 LINE",
"154 779 LINE"
);
}
);
width = 341;
}
);
note = Ihookabove;
unicode = 1EC8;
},
{
glyphname = Imacron;
lastChange = "2015-10-01 16:44:41 +0000";
layers = (
{
layerId = "100B1594-ACEA-4BEF-8FE3-15A73D27750B";
name = Regular;
paths = (
{
closed = 1;
nodes = (
"298 0 LINE",
"298 11 LINE",
"272 19 OFFCURVE",
"242 26 OFFCURVE",
"216 30 CURVE",
"216 669 LINE",
"245 673 OFFCURVE",
"274 679 OFFCURVE",
"298 687 CURVE",
"298 700 LINE",
"43 700 LINE",
"43 688 LINE",
"68 680 OFFCURVE",
"98 673 OFFCURVE",
"124 669 CURVE",
"124 30 LINE",
"96 26 OFFCURVE",
"67 19 OFFCURVE",
"43 12 CURVE",
"43 0 LINE"
);
},
{
closed = 1;
nodes = (
"347 785 LINE",
"347 820 LINE",
"-6 820 LINE",
"-6 785 LINE"
);
}
);
width = 341;
}
);
note = Imacron;
unicode = 012A;
},
{
glyphname = Iogonek;
lastChange = "2015-10-01 16:44:41 +0000";
layers = (
{
layerId = "100B1594-ACEA-4BEF-8FE3-15A73D27750B";
name = Regular;
paths = (
{
closed = 1;
nodes = (
"298 0 LINE",
"298 11 LINE",
"272 19 OFFCURVE",
"242 26 OFFCURVE",
"216 30 CURVE",
"216 669 LINE",
"245 673 OFFCURVE",
"274 679 OFFCURVE",
"298 687 CURVE",
"298 700 LINE",
"43 700 LINE",
"43 688 LINE",
"68 680 OFFCURVE",
"98 673 OFFCURVE",
"124 669 CURVE",
"124 30 LINE",
"96 26 OFFCURVE",
"67 19 OFFCURVE",
"43 12 CURVE",
"43 0 LINE"
);
},
{
closed = 1;
nodes = (
"275 -187 OFFCURVE",
"303 -181 OFFCURVE",
"327 -170 CURVE",
"327 -129 LINE",
"308 -139 OFFCURVE",
"289 -143 OFFCURVE",
"273 -143 CURVE SMOOTH",
"238 -143 OFFCURVE",
"211 -126 OFFCURVE",
"211 -92 CURVE SMOOTH",
"211 -56 OFFCURVE",
"240 -20 OFFCURVE",
"274 0 CURVE",
"224 0 LINE",
"172 -20 OFFCURVE",
"141 -63 OFFCURVE",
"141 -107 CURVE SMOOTH",
"141 -149 OFFCURVE",
"176 -187 OFFCURVE",
"243 -187 CURVE SMOOTH"
);
}
);
width = 341;
}
);
note = Iogonek;
unicode = 012E;
},
{
glyphname = Itilde;
lastChange = "2015-10-01 16:44:42 +0000";
layers = (
{
layerId = "100B1594-ACEA-4BEF-8FE3-15A73D27750B";
name = Regular;
paths = (
{
closed = 1;
nodes = (
"298 0 LINE",
"298 11 LINE",
"272 19 OFFCURVE",
"242 26 OFFCURVE",
"216 30 CURVE",
"216 669 LINE",
"245 673 OFFCURVE",
"274 679 OFFCURVE",
"298 687 CURVE",
"298 700 LINE",
"43 700 LINE",
"43 688 LINE",
"68 680 OFFCURVE",
"98 673 OFFCURVE",
"124 669 CURVE",
"124 30 LINE",
"96 26 OFFCURVE",
"67 19 OFFCURVE",
"43 12 CURVE",
"43 0 LINE"
);
},
{
closed = 1;
nodes = (
"32 786 LINE",
"40 821 OFFCURVE",
"64 843 OFFCURVE",
"95 843 CURVE SMOOTH",
"135 843 OFFCURVE",
"191 787 OFFCURVE",
"241 787 CURVE SMOOTH",
"300 787 OFFCURVE",
"331 828 OFFCURVE",
"340 891 CURVE",
"308 891 LINE",
"298 848 OFFCURVE",
"272 831 OFFCURVE",
"243 831 CURVE SMOOTH",
"202 831 OFFCURVE",
"155 886 OFFCURVE",
"97 886 CURVE SMOOTH",
"45 886 OFFCURVE",
"9 855 OFFCURVE",
"-1 786 CURVE"
);
}
);
width = 341;
}
);
note = Itilde;
unicode = 0128;
},
{
glyphname = J;
lastChange = "2015-10-27 07:14:35 +0000";
layers = (
{
layerId = "100B1594-ACEA-4BEF-8FE3-15A73D27750B";
name = Regular;
paths = (
{
closed = 1;
nodes = (
"280 -10 OFFCURVE",
"353 41 OFFCURVE",
"353 143 CURVE SMOOTH",
"353 668 LINE",
"384 671 OFFCURVE",
"410 679 OFFCURVE",
"432 687 CURVE",
"432 700 LINE",
"181 700 LINE",
"181 686 LINE",
"202 679 OFFCURVE",
"223 673 OFFCURVE",
"260 668 CURVE",
"260 143 LINE SMOOTH",
"260 61 OFFCURVE",
"212 33 OFFCURVE",
"148 33 CURVE SMOOTH",
"104 33 OFFCURVE",
"65 46 OFFCURVE",
"36 63 CURVE",
"21 39 LINE",
"59 8 OFFCURVE",
"112 -10 OFFCURVE",
"175 -10 CURVE SMOOTH"
);
}
);
width = 473;
}
);
leftKerningGroup = J;
note = J;
rightKerningGroup = J;
unicode = 004A;
},
{
glyphname = Jcircumflex;
lastChange = "2015-10-01 16:44:41 +0000";
layers = (
{
layerId = "100B1594-ACEA-4BEF-8FE3-15A73D27750B";
name = Regular;
paths = (
{
closed = 1;
nodes = (
"280 -10 OFFCURVE",
"353 41 OFFCURVE",
"353 143 CURVE SMOOTH",
"353 668 LINE",
"384 671 OFFCURVE",
"410 679 OFFCURVE",
"432 687 CURVE",
"432 700 LINE",
"181 700 LINE",
"181 686 LINE",
"202 679 OFFCURVE",
"223 673 OFFCURVE",
"260 668 CURVE",
"260 143 LINE SMOOTH",
"260 61 OFFCURVE",
"212 33 OFFCURVE",
"148 33 CURVE SMOOTH",
"104 33 OFFCURVE",
"65 46 OFFCURVE",
"36 63 CURVE",
"21 39 LINE",
"59 8 OFFCURVE",
"112 -10 OFFCURVE",
"175 -10 CURVE SMOOTH"
);
},
{
closed = 1;
nodes = (
"229 808 OFFCURVE",
"278 853 OFFCURVE",
"304 889 CURVE",
"309 889 LINE",
"335 853 OFFCURVE",
"383 808 OFFCURVE",
"421 780 CURVE",
"459 812 LINE",
"418 839 OFFCURVE",
"357 894 OFFCURVE",
"328 934 CURVE",
"285 934 LINE",
"256 894 OFFCURVE",
"194 839 OFFCURVE",
"154 812 CURVE",
"191 780 LINE"
);
}
);
width = 473;
}
);
leftKerningGroup = J;
note = Jcircumflex;
rightKerningGroup = J;
unicode = 0134;
},
{
glyphname = K;
lastChange = "2015-10-01 16:44:40 +0000";
layers = (
{
layerId = "100B1594-ACEA-4BEF-8FE3-15A73D27750B";
name = Regular;
paths = (
{
closed = 1;
nodes = (
"294 0 LINE",
"294 11 LINE",
"269 19 OFFCURVE",
"240 26 OFFCURVE",
"213 30 CURVE",
"213 265 LINE",
"291 351 LINE",
"566 0 LINE",
"726 0 LINE",
"726 11 LINE",
"696 20 OFFCURVE",
"665 26 OFFCURVE",
"643 30 CURVE",
"346 409 LINE",
"581 662 LINE SMOOTH",
"599 681 OFFCURVE",
"628 679 OFFCURVE",
"649 684 CURVE",
"649 700 LINE",
"448 700 LINE",
"448 684 LINE",
"468 683 OFFCURVE",
"521 678 OFFCURVE",
"521 665 CURVE SMOOTH",
"521 661 OFFCURVE",
"516 656 OFFCURVE",
"515 655 CURVE",
"213 326 LINE",
"213 669 LINE",
"241 673 OFFCURVE",
"269 679 OFFCURVE",
"294 687 CURVE",
"294 700 LINE",
"40 700 LINE",
"40 688 LINE",
"65 679 OFFCURVE",
"94 673 OFFCURVE",
"120 669 CURVE",
"120 30 LINE",
"103 28 OFFCURVE",
"65 20 OFFCURVE",
"40 12 CURVE",
"40 0 LINE"
);
}
);
width = 736;
}
);
note = K;
rightKerningGroup = K;
unicode = 004B;
},
{
glyphname = Kcommaaccent;
lastChange = "2015-10-01 16:44:42 +0000";
layers = (
{
layerId = "100B1594-ACEA-4BEF-8FE3-15A73D27750B";
name = Regular;
paths = (
{
closed = 1;
nodes = (
"294 0 LINE",
"294 11 LINE",
"269 19 OFFCURVE",
"240 26 OFFCURVE",
"213 30 CURVE",
"213 265 LINE",
"291 351 LINE",
"566 0 LINE",
"726 0 LINE",
"726 11 LINE",
"696 20 OFFCURVE",
"665 26 OFFCURVE",
"643 30 CURVE",
"346 409 LINE",
"581 662 LINE SMOOTH",
"599 681 OFFCURVE",
"628 679 OFFCURVE",
"649 684 CURVE",
"649 700 LINE",
"448 700 LINE",
"448 684 LINE",
"468 683 OFFCURVE",
"521 678 OFFCURVE",
"521 665 CURVE SMOOTH",
"521 661 OFFCURVE",
"516 656 OFFCURVE",
"515 655 CURVE",
"213 326 LINE",
"213 669 LINE",
"241 673 OFFCURVE",
"269 679 OFFCURVE",
"294 687 CURVE",
"294 700 LINE",
"40 700 LINE",
"40 688 LINE",
"65 679 OFFCURVE",
"94 673 OFFCURVE",
"120 669 CURVE",
"120 30 LINE",
"103 28 OFFCURVE",
"65 20 OFFCURVE",
"40 12 CURVE",
"40 0 LINE"
);
},
{
closed = 1;
nodes = (
"418 -263 OFFCURVE",
"448 -190 OFFCURVE",
"448 -135 CURVE SMOOTH",
"448 -98 OFFCURVE",
"431 -69 OFFCURVE",
"388 -69 CURVE SMOOTH",
"360 -69 OFFCURVE",
"334 -86 OFFCURVE",
"334 -118 CURVE SMOOTH",
"334 -145 OFFCURVE",
"351 -162 OFFCURVE",
"374 -166 CURVE SMOOTH",
"380 -167 OFFCURVE",
"386 -167 OFFCURVE",
"393 -166 CURVE",
"389 -207 OFFCURVE",
"369 -249 OFFCURVE",
"344 -277 CURVE",
"376 -302 LINE"
);
}
);
width = 736;
}
);
note = Kcommaaccent;
rightKerningGroup = K;
unicode = 0136;
},
{
glyphname = L;
lastChange = "2015-10-01 16:44:40 +0000";
layers = (
{
layerId = "100B1594-ACEA-4BEF-8FE3-15A73D27750B";
name = Regular;
paths = (
{
closed = 1;
nodes = (
"543 0 LINE",
"557 144 LINE",
"536 144 LINE",
"523 125 OFFCURVE",
"500 65 OFFCURVE",
"498 35 CURVE",
"217 35 LINE",
"217 669 LINE",
"244 673 OFFCURVE",
"272 679 OFFCURVE",
"297 687 CURVE",
"297 700 LINE",
"43 700 LINE",
"43 688 LINE",
"69 679 OFFCURVE",
"97 673 OFFCURVE",
"124 669 CURVE",
"124 30 LINE",
"89 26 OFFCURVE",
"62 19 OFFCURVE",
"40 12 CURVE",
"40 0 LINE"
);
}
);
width = 599;
}
);
note = L;
rightKerningGroup = L;
unicode = 004C;
},
{
glyphname = Lacute;
lastChange = "2015-10-01 16:44:41 +0000";
layers = (
{
layerId = "100B1594-ACEA-4BEF-8FE3-15A73D27750B";
name = Regular;
paths = (
{
closed = 1;
nodes = (
"543 0 LINE",
"557 144 LINE",
"536 144 LINE",
"523 125 OFFCURVE",
"500 65 OFFCURVE",
"498 35 CURVE",
"217 35 LINE",
"217 669 LINE",
"244 673 OFFCURVE",
"272 679 OFFCURVE",
"297 687 CURVE",
"297 700 LINE",
"43 700 LINE",
"43 688 LINE",
"69 679 OFFCURVE",
"97 673 OFFCURVE",
"124 669 CURVE",
"124 30 LINE",
"89 26 OFFCURVE",
"62 19 OFFCURVE",
"40 12 CURVE",
"40 0 LINE"
);
},
{
closed = 1;
nodes = (
"279 868 LINE SMOOTH",
"300 881 OFFCURVE",
"311 895 OFFCURVE",
"311 911 CURVE SMOOTH",
"311 924 OFFCURVE",
"301 938 OFFCURVE",
"280 938 CURVE SMOOTH",
"258 938 OFFCURVE",
"242 922 OFFCURVE",
"235 915 CURVE",
"121 809 LINE",
"137 786 LINE"
);
}
);
width = 599;
}
);
note = Lacute;
rightKerningGroup = L;
unicode = 0139;
},
{
glyphname = Lcaron;
lastChange = "2015-10-01 16:44:42 +0000";
layers = (
{
layerId = "100B1594-ACEA-4BEF-8FE3-15A73D27750B";
name = Regular;
paths = (
{
closed = 1;
nodes = (
"543 0 LINE",
"557 144 LINE",
"536 144 LINE",
"523 125 OFFCURVE",
"500 65 OFFCURVE",
"498 35 CURVE",
"217 35 LINE",
"217 669 LINE",
"244 673 OFFCURVE",
"272 679 OFFCURVE",
"297 687 CURVE",
"297 700 LINE",
"43 700 LINE",
"43 688 LINE",
"69 679 OFFCURVE",
"97 673 OFFCURVE",
"124 669 CURVE",
"124 30 LINE",
"89 26 OFFCURVE",
"62 19 OFFCURVE",
"40 12 CURVE",
"40 0 LINE"
);
},
{
closed = 1;
nodes = (
"480 511 OFFCURVE",
"512 584 OFFCURVE",
"512 639 CURVE SMOOTH",
"512 676 OFFCURVE",
"497 710 OFFCURVE",
"450 710 CURVE SMOOTH",
"414 710 OFFCURVE",
"395 686 OFFCURVE",
"395 656 CURVE SMOOTH",
"395 620 OFFCURVE",
"423 606 OFFCURVE",
"446 606 CURVE SMOOTH",
"449 606 OFFCURVE",
"453 607 OFFCURVE",
"456 607 CURVE",
"452 566 OFFCURVE",
"430 524 OFFCURVE",
"406 496 CURVE",
"438 471 LINE"
);
}
);
width = 599;
}
);
note = Lcaron;
rightKerningGroup = L;
unicode = 013D;
},
{
glyphname = Lcommaaccent;
lastChange = "2015-10-01 16:44:41 +0000";
layers = (
{
layerId = "100B1594-ACEA-4BEF-8FE3-15A73D27750B";
name = Regular;
paths = (
{
closed = 1;
nodes = (
"543 0 LINE",
"557 144 LINE",
"536 144 LINE",
"523 125 OFFCURVE",
"500 65 OFFCURVE",
"498 35 CURVE",
"217 35 LINE",
"217 669 LINE",
"244 673 OFFCURVE",
"272 679 OFFCURVE",
"297 687 CURVE",
"297 700 LINE",
"43 700 LINE",
"43 688 LINE",
"69 679 OFFCURVE",
"97 673 OFFCURVE",
"124 669 CURVE",
"124 30 LINE",
"89 26 OFFCURVE",
"62 19 OFFCURVE",
"40 12 CURVE",
"40 0 LINE"
);
},
{
closed = 1;
nodes = (
"346 -263 OFFCURVE",
"376 -190 OFFCURVE",
"376 -135 CURVE SMOOTH",
"376 -98 OFFCURVE",
"359 -69 OFFCURVE",
"316 -69 CURVE SMOOTH",
"288 -69 OFFCURVE",
"262 -86 OFFCURVE",
"262 -118 CURVE SMOOTH",
"262 -145 OFFCURVE",
"279 -162 OFFCURVE",
"302 -166 CURVE SMOOTH",
"308 -167 OFFCURVE",
"314 -167 OFFCURVE",
"321 -166 CURVE",
"317 -207 OFFCURVE",
"297 -249 OFFCURVE",
"272 -277 CURVE",
"304 -302 LINE"
);
}
);
width = 599;
}
);
note = Lcommaaccent;
rightKerningGroup = L;
unicode = 013B;
},
{
glyphname = Ldot;
lastChange = "2015-10-01 16:44:41 +0000";
layers = (
{
layerId = "100B1594-ACEA-4BEF-8FE3-15A73D27750B";
name = Regular;
paths = (
{
closed = 1;
nodes = (
"543 0 LINE",
"557 144 LINE",
"536 144 LINE",
"523 125 OFFCURVE",
"500 65 OFFCURVE",
"498 35 CURVE",
"217 35 LINE",
"217 669 LINE",
"244 673 OFFCURVE",
"272 679 OFFCURVE",
"297 687 CURVE",
"297 700 LINE",
"43 700 LINE",
"43 688 LINE",
"69 679 OFFCURVE",
"97 673 OFFCURVE",
"124 669 CURVE",
"124 30 LINE",
"89 26 OFFCURVE",
"62 19 OFFCURVE",
"40 12 CURVE",
"40 0 LINE"
);
},
{
closed = 1;
nodes = (
"424 331 OFFCURVE",
"442 349 OFFCURVE",
"442 377 CURVE SMOOTH",
"442 403 OFFCURVE",
"424 422 OFFCURVE",
"397 422 CURVE SMOOTH",
"370 422 OFFCURVE",
"352 403 OFFCURVE",
"352 377 CURVE SMOOTH",
"352 349 OFFCURVE",
"370 331 OFFCURVE",
"397 331 CURVE SMOOTH"
);
}
);
width = 599;
}
);
note = Ldot;
rightKerningGroup = L;
unicode = 013F;
},
{
glyphname = Ldotbelow;
lastChange = "2015-10-01 16:44:41 +0000";
layers = (
{
layerId = "100B1594-ACEA-4BEF-8FE3-15A73D27750B";
name = Regular;
paths = (
{
closed = 1;
nodes = (
"543 0 LINE",
"557 144 LINE",
"536 144 LINE",
"523 125 OFFCURVE",
"500 65 OFFCURVE",
"498 35 CURVE",
"217 35 LINE",
"217 669 LINE",
"244 673 OFFCURVE",
"272 679 OFFCURVE",
"297 687 CURVE",
"297 700 LINE",
"43 700 LINE",
"43 688 LINE",
"69 679 OFFCURVE",
"97 673 OFFCURVE",
"124 669 CURVE",
"124 30 LINE",
"89 26 OFFCURVE",
"62 19 OFFCURVE",
"40 12 CURVE",
"40 0 LINE"
);
},
{
closed = 1;
nodes = (
"351 -144 OFFCURVE",
"369 -126 OFFCURVE",
"369 -98 CURVE SMOOTH",
"369 -72 OFFCURVE",
"351 -53 OFFCURVE",
"325 -53 CURVE SMOOTH",
"297 -53 OFFCURVE",
"280 -72 OFFCURVE",
"280 -98 CURVE SMOOTH",
"280 -126 OFFCURVE",
"297 -144 OFFCURVE",
"325 -144 CURVE SMOOTH"
);
}
);
width = 599;
}
);
note = Ldotbelow;
rightKerningGroup = L;
unicode = 1E36;
},
{
glyphname = Ldotbelowmacron;
lastChange = "2015-10-01 16:44:41 +0000";
layers = (
{
layerId = "100B1594-ACEA-4BEF-8FE3-15A73D27750B";
name = Regular;
paths = (
{
closed = 1;
nodes = (
"543 0 LINE",
"557 144 LINE",
"536 144 LINE",
"523 125 OFFCURVE",
"500 65 OFFCURVE",
"498 35 CURVE",
"217 35 LINE",
"217 669 LINE",
"244 673 OFFCURVE",
"272 679 OFFCURVE",
"297 687 CURVE",
"297 700 LINE",
"43 700 LINE",
"43 688 LINE",
"69 679 OFFCURVE",
"97 673 OFFCURVE",
"124 669 CURVE",
"124 30 LINE",
"89 26 OFFCURVE",
"62 19 OFFCURVE",
"40 12 CURVE",
"40 0 LINE"
);
},
{
closed = 1;
nodes = (
"350 -144 OFFCURVE",
"368 -126 OFFCURVE",
"368 -98 CURVE SMOOTH",
"368 -72 OFFCURVE",
"350 -53 OFFCURVE",
"323 -53 CURVE SMOOTH",
"297 -53 OFFCURVE",
"279 -72 OFFCURVE",
"279 -98 CURVE SMOOTH",
"279 -126 OFFCURVE",
"297 -144 OFFCURVE",
"323 -144 CURVE SMOOTH"
);
},
{
closed = 1;
nodes = (
"336 785 LINE",
"336 819 LINE",
"3 819 LINE",
"3 785 LINE"
);
}
);
width = 599;
}
);
note = Ldotbelowmacron;
rightKerningGroup = L;
unicode = 1E38;
},
{
glyphname = Llinebelow;
lastChange = "2015-10-01 16:44:41 +0000";
layers = (
{
layerId = "100B1594-ACEA-4BEF-8FE3-15A73D27750B";
name = Regular;
paths = (
{
closed = 1;
nodes = (
"543 0 LINE",
"557 144 LINE",
"536 144 LINE",
"523 125 OFFCURVE",
"500 65 OFFCURVE",
"498 35 CURVE",
"217 35 LINE",
"217 669 LINE",
"244 673 OFFCURVE",
"272 679 OFFCURVE",
"297 687 CURVE",
"297 700 LINE",
"43 700 LINE",
"43 688 LINE",
"69 679 OFFCURVE",
"97 673 OFFCURVE",
"124 669 CURVE",
"124 30 LINE",
"89 26 OFFCURVE",
"62 19 OFFCURVE",
"40 12 CURVE",
"40 0 LINE"
);
},
{
closed = 1;
nodes = (
"473 -104 LINE",
"473 -69 LINE",
"140 -69 LINE",
"140 -104 LINE"
);
}
);
width = 599;
}
);
note = Llinebelow;
rightKerningGroup = L;
unicode = 1E3A;
},
{
glyphname = Lslash;
lastChange = "2015-10-01 16:44:41 +0000";
layers = (
{
layerId = "100B1594-ACEA-4BEF-8FE3-15A73D27750B";
name = Regular;
paths = (
{
closed = 1;
nodes = (
"543 0 LINE",
"557 144 LINE",
"536 144 LINE",
"523 125 OFFCURVE",
"500 65 OFFCURVE",
"498 35 CURVE",
"217 35 LINE",
"217 669 LINE",
"244 673 OFFCURVE",
"272 679 OFFCURVE",
"297 687 CURVE",
"297 700 LINE",
"43 700 LINE",
"43 688 LINE",
"69 679 OFFCURVE",
"97 673 OFFCURVE",
"124 669 CURVE",
"124 30 LINE",
"89 26 OFFCURVE",
"62 19 OFFCURVE",
"40 12 CURVE",
"40 0 LINE"
);
},
{
closed = 1;
nodes = (
"426 382 LINE",
"426 430 LINE",
"37 290 LINE",
"37 242 LINE"
);
}
);
width = 599;
}
);
note = Lslash;
rightKerningGroup = L;
unicode = 0141;
},
{
glyphname = M;
lastChange = "2015-10-01 16:44:40 +0000";
layers = (
{
layerId = "100B1594-ACEA-4BEF-8FE3-15A73D27750B";
name = Regular;
paths = (
{
closed = 1;
nodes = (
"246 0 LINE",
"246 11 LINE",
"220 19 OFFCURVE",
"193 25 OFFCURVE",
"166 30 CURVE",
"166 636 LINE",
"404 77 LINE",
"458 77 LINE",
"700 630 LINE",
"700 30 LINE",
"673 25 OFFCURVE",
"646 19 OFFCURVE",
"620 11 CURVE",
"620 0 LINE",
"873 0 LINE",
"873 11 LINE",
"847 19 OFFCURVE",
"819 25 OFFCURVE",
"793 29 CURVE",
"793 668 LINE",
"821 673 OFFCURVE",
"849 680 OFFCURVE",
"873 688 CURVE",
"873 700 LINE",
"688 700 LINE",
"451 156 LINE",
"227 700 LINE",
"40 700 LINE",
"40 688 LINE",
"65 679 OFFCURVE",
"94 673 OFFCURVE",
"120 669 CURVE",
"120 29 LINE",
"94 25 OFFCURVE",
"66 19 OFFCURVE",
"40 11 CURVE",
"40 0 LINE"
);
}
);
width = 913;
}
);
note = M;
unicode = 004D;
},
{
glyphname = Mdotbelow;
lastChange = "2015-10-01 16:44:41 +0000";
layers = (
{
layerId = "100B1594-ACEA-4BEF-8FE3-15A73D27750B";
name = Regular;
paths = (
{
closed = 1;
nodes = (
"246 0 LINE",
"246 11 LINE",
"220 19 OFFCURVE",
"193 25 OFFCURVE",
"166 30 CURVE",
"166 636 LINE",
"404 77 LINE",
"458 77 LINE",
"700 630 LINE",
"700 30 LINE",
"673 25 OFFCURVE",
"646 19 OFFCURVE",
"620 11 CURVE",
"620 0 LINE",
"873 0 LINE",
"873 11 LINE",
"847 19 OFFCURVE",
"819 25 OFFCURVE",
"793 29 CURVE",
"793 668 LINE",
"821 673 OFFCURVE",
"849 680 OFFCURVE",
"873 688 CURVE",
"873 700 LINE",
"688 700 LINE",
"451 156 LINE",
"227 700 LINE",
"40 700 LINE",
"40 688 LINE",
"65 679 OFFCURVE",
"94 673 OFFCURVE",
"120 669 CURVE",
"120 29 LINE",
"94 25 OFFCURVE",
"66 19 OFFCURVE",
"40 11 CURVE",
"40 0 LINE"
);
},
{
closed = 1;
nodes = (
"482 -151 OFFCURVE",
"500 -132 OFFCURVE",
"500 -106 CURVE SMOOTH",
"500 -78 OFFCURVE",
"482 -59 OFFCURVE",
"455 -59 CURVE SMOOTH",
"428 -59 OFFCURVE",
"410 -78 OFFCURVE",
"410 -106 CURVE SMOOTH",
"410 -132 OFFCURVE",
"428 -151 OFFCURVE",
"455 -151 CURVE SMOOTH"
);
}
);
width = 913;
}
);
note = Mdotbelow;
unicode = 1E42;
},
{
glyphname = N;
lastChange = "2015-10-01 16:44:40 +0000";
layers = (
{
layerId = "100B1594-ACEA-4BEF-8FE3-15A73D27750B";
name = Regular;
paths = (
{
closed = 1;
nodes = (
"246 0 LINE",
"246 11 LINE",
"220 19 OFFCURVE",
"193 25 OFFCURVE",
"166 30 CURVE",
"166 649 LINE",
"604 0 LINE",
"657 0 LINE",
"657 669 LINE",
"685 674 OFFCURVE",
"712 680 OFFCURVE",
"738 688 CURVE",
"738 700 LINE",
"532 700 LINE",
"532 688 LINE",
"558 680 OFFCURVE",
"585 674 OFFCURVE",
"612 670 CURVE",
"612 117 LINE",
"222 700 LINE",
"40 700 LINE",
"40 688 LINE",
"65 679 OFFCURVE",
"94 673 OFFCURVE",
"120 669 CURVE",
"120 29 LINE",
"94 25 OFFCURVE",
"66 19 OFFCURVE",
"40 11 CURVE",
"40 0 LINE"
);
}
);
width = 778;
}
);
note = N;
unicode = 004E;
},
{
glyphname = Nacute;
lastChange = "2015-10-01 16:44:41 +0000";
layers = (
{
layerId = "100B1594-ACEA-4BEF-8FE3-15A73D27750B";
name = Regular;
paths = (
{
closed = 1;
nodes = (
"246 0 LINE",
"246 11 LINE",
"220 19 OFFCURVE",
"193 25 OFFCURVE",
"166 30 CURVE",
"166 649 LINE",
"604 0 LINE",
"657 0 LINE",
"657 669 LINE",
"685 674 OFFCURVE",
"712 680 OFFCURVE",
"738 688 CURVE",
"738 700 LINE",
"532 700 LINE",
"532 688 LINE",
"558 680 OFFCURVE",
"585 674 OFFCURVE",
"612 670 CURVE",
"612 117 LINE",
"222 700 LINE",
"40 700 LINE",
"40 688 LINE",
"65 679 OFFCURVE",
"94 673 OFFCURVE",
"120 669 CURVE",
"120 29 LINE",
"94 25 OFFCURVE",
"66 19 OFFCURVE",
"40 11 CURVE",
"40 0 LINE"
);
},
{
closed = 1;
nodes = (
"486 868 LINE SMOOTH",
"507 881 OFFCURVE",
"518 895 OFFCURVE",
"518 911 CURVE SMOOTH",
"518 924 OFFCURVE",
"508 938 OFFCURVE",
"487 938 CURVE SMOOTH",
"465 938 OFFCURVE",
"449 922 OFFCURVE",
"442 915 CURVE",
"328 809 LINE",
"344 786 LINE"
);
}
);
width = 778;
}
);
note = Nacute;
unicode = 0143;
},
{
glyphname = Ncaron;
lastChange = "2015-10-01 16:44:41 +0000";
layers = (
{
layerId = "100B1594-ACEA-4BEF-8FE3-15A73D27750B";
name = Regular;
paths = (
{
closed = 1;
nodes = (
"246 0 LINE",
"246 11 LINE",
"220 19 OFFCURVE",
"193 25 OFFCURVE",
"166 30 CURVE",
"166 649 LINE",
"604 0 LINE",
"657 0 LINE",
"657 669 LINE",
"685 674 OFFCURVE",
"712 680 OFFCURVE",
"738 688 CURVE",
"738 700 LINE",
"532 700 LINE",
"532 688 LINE",
"558 680 OFFCURVE",
"585 674 OFFCURVE",
"612 670 CURVE",
"612 117 LINE",
"222 700 LINE",
"40 700 LINE",
"40 688 LINE",
"65 679 OFFCURVE",
"94 673 OFFCURVE",
"120 669 CURVE",
"120 29 LINE",
"94 25 OFFCURVE",
"66 19 OFFCURVE",
"40 11 CURVE",
"40 0 LINE"
);
},
{
closed = 1;
nodes = (
"409 786 LINE",
"438 827 OFFCURVE",
"499 882 OFFCURVE",
"540 909 CURVE",
"502 941 LINE",
"464 913 OFFCURVE",
"416 868 OFFCURVE",
"390 832 CURVE",
"385 832 LINE",
"359 868 OFFCURVE",
"310 913 OFFCURVE",
"272 941 CURVE",
"235 909 LINE",
"275 882 OFFCURVE",
"337 827 OFFCURVE",
"366 786 CURVE"
);
}
);
width = 778;
}
);
note = Ncaron;
unicode = 0147;
},
{
glyphname = Ncommaaccent;
lastChange = "2015-10-01 16:44:41 +0000";
layers = (
{
layerId = "100B1594-ACEA-4BEF-8FE3-15A73D27750B";
name = Regular;
paths = (
{
closed = 1;
nodes = (
"246 0 LINE",
"246 11 LINE",
"220 19 OFFCURVE",
"193 25 OFFCURVE",
"166 30 CURVE",
"166 649 LINE",
"604 0 LINE",
"657 0 LINE",
"657 669 LINE",
"685 674 OFFCURVE",
"712 680 OFFCURVE",
"738 688 CURVE",
"738 700 LINE",
"532 700 LINE",
"532 688 LINE",
"558 680 OFFCURVE",
"585 674 OFFCURVE",
"612 670 CURVE",
"612 117 LINE",
"222 700 LINE",
"40 700 LINE",
"40 688 LINE",
"65 679 OFFCURVE",
"94 673 OFFCURVE",
"120 669 CURVE",
"120 29 LINE",
"94 25 OFFCURVE",
"66 19 OFFCURVE",
"40 11 CURVE",
"40 0 LINE"
);
},
{
closed = 1;
nodes = (
"418 -263 OFFCURVE",
"448 -190 OFFCURVE",
"448 -135 CURVE SMOOTH",
"448 -98 OFFCURVE",
"431 -69 OFFCURVE",
"388 -69 CURVE SMOOTH",
"360 -69 OFFCURVE",
"334 -86 OFFCURVE",
"334 -118 CURVE SMOOTH",
"334 -145 OFFCURVE",
"351 -162 OFFCURVE",
"374 -166 CURVE SMOOTH",
"380 -167 OFFCURVE",
"386 -167 OFFCURVE",
"393 -166 CURVE",
"389 -207 OFFCURVE",
"369 -249 OFFCURVE",
"344 -277 CURVE",
"376 -302 LINE"
);
}
);
width = 778;
}
);
note = Ncommaaccent;
unicode = 0145;
},
{
glyphname = Ndotaccent;
lastChange = "2015-10-01 16:44:41 +0000";
layers = (
{
layerId = "100B1594-ACEA-4BEF-8FE3-15A73D27750B";
name = Regular;
paths = (
{
closed = 1;
nodes = (
"246 0 LINE",
"246 11 LINE",
"220 19 OFFCURVE",
"193 25 OFFCURVE",
"166 30 CURVE",
"166 649 LINE",
"604 0 LINE",
"657 0 LINE",
"657 669 LINE",
"685 674 OFFCURVE",
"712 680 OFFCURVE",
"738 688 CURVE",
"738 700 LINE",
"532 700 LINE",
"532 688 LINE",
"558 680 OFFCURVE",
"585 674 OFFCURVE",
"612 670 CURVE",
"612 117 LINE",
"222 700 LINE",
"40 700 LINE",
"40 688 LINE",
"65 679 OFFCURVE",
"94 673 OFFCURVE",
"120 669 CURVE",
"120 29 LINE",
"94 25 OFFCURVE",
"66 19 OFFCURVE",
"40 11 CURVE",
"40 0 LINE"
);
},
{
closed = 1;
nodes = (
"418 785 OFFCURVE",
"436 804 OFFCURVE",
"436 830 CURVE SMOOTH",
"436 858 OFFCURVE",
"418 877 OFFCURVE",
"392 877 CURVE SMOOTH",
"364 877 OFFCURVE",
"347 858 OFFCURVE",
"347 830 CURVE SMOOTH",
"347 804 OFFCURVE",
"364 785 OFFCURVE",
"392 785 CURVE SMOOTH"
);
}
);
width = 778;
}
);
note = Ndotaccent;
unicode = 1E44;
},
{
glyphname = Ndotbelow;
lastChange = "2015-10-01 16:44:41 +0000";
layers = (
{
layerId = "100B1594-ACEA-4BEF-8FE3-15A73D27750B";
name = Regular;
paths = (
{
closed = 1;
nodes = (
"246 0 LINE",
"246 11 LINE",
"220 19 OFFCURVE",
"193 25 OFFCURVE",
"166 30 CURVE",
"166 649 LINE",
"604 0 LINE",
"657 0 LINE",
"657 669 LINE",
"685 674 OFFCURVE",
"712 680 OFFCURVE",
"738 688 CURVE",
"738 700 LINE",
"532 700 LINE",
"532 688 LINE",
"558 680 OFFCURVE",
"585 674 OFFCURVE",
"612 670 CURVE",
"612 117 LINE",
"222 700 LINE",
"40 700 LINE",
"40 688 LINE",
"65 679 OFFCURVE",
"94 673 OFFCURVE",
"120 669 CURVE",
"120 29 LINE",
"94 25 OFFCURVE",
"66 19 OFFCURVE",
"40 11 CURVE",
"40 0 LINE"
);
},
{
closed = 1;
nodes = (
"406 -151 OFFCURVE",
"424 -132 OFFCURVE",
"424 -106 CURVE SMOOTH",
"424 -78 OFFCURVE",
"406 -59 OFFCURVE",
"379 -59 CURVE SMOOTH",
"352 -59 OFFCURVE",
"334 -78 OFFCURVE",
"334 -106 CURVE SMOOTH",
"334 -132 OFFCURVE",
"352 -151 OFFCURVE",
"379 -151 CURVE SMOOTH"
);
}
);
width = 778;
}
);
note = uni1E46;
unicode = 1E46;
},
{
glyphname = Eng;
lastChange = "2015-10-01 16:44:40 +0000";
layers = (
{
layerId = "100B1594-ACEA-4BEF-8FE3-15A73D27750B";
name = Regular;
paths = (
{
closed = 1;
nodes = (
"602 -249 OFFCURVE",
"657 -200 OFFCURVE",
"657 -108 CURVE SMOOTH",
"657 669 LINE",
"685 674 OFFCURVE",
"712 680 OFFCURVE",
"738 688 CURVE",
"738 700 LINE",
"532 700 LINE",
"532 688 LINE",
"558 680 OFFCURVE",
"585 674 OFFCURVE",
"612 670 CURVE",
"612 117 LINE",
"222 700 LINE",
"40 700 LINE",
"40 688 LINE",
"65 679 OFFCURVE",
"94 673 OFFCURVE",
"120 669 CURVE",
"120 29 LINE",
"94 25 OFFCURVE",
"66 19 OFFCURVE",
"40 11 CURVE",
"40 0 LINE",
"246 0 LINE",
"246 11 LINE",
"220 19 OFFCURVE",
"193 25 OFFCURVE",
"166 30 CURVE",
"166 649 LINE",
"613 -4 LINE",
"613 -106 LINE SMOOTH",
"613 -182 OFFCURVE",
"559 -209 OFFCURVE",
"492 -209 CURVE SMOOTH",
"452 -209 OFFCURVE",
"419 -202 OFFCURVE",
"391 -190 CURVE",
"383 -215 LINE",
"418 -235 OFFCURVE",
"458 -249 OFFCURVE",
"509 -249 CURVE SMOOTH"
);
}
);
width = 778;
}
);
note = Eng;
unicode = 014A;
},
{
glyphname = Nlinebelow;
lastChange = "2015-10-01 16:44:41 +0000";
layers = (
{
layerId = "100B1594-ACEA-4BEF-8FE3-15A73D27750B";
name = Regular;
paths = (
{
closed = 1;
nodes = (
"246 0 LINE",
"246 11 LINE",
"220 19 OFFCURVE",
"193 25 OFFCURVE",
"166 30 CURVE",
"166 649 LINE",
"604 0 LINE",
"657 0 LINE",
"657 669 LINE",
"685 674 OFFCURVE",
"712 680 OFFCURVE",
"738 688 CURVE",
"738 700 LINE",
"532 700 LINE",
"532 688 LINE",
"558 680 OFFCURVE",
"585 674 OFFCURVE",
"612 670 CURVE",
"612 117 LINE",
"222 700 LINE",
"40 700 LINE",
"40 688 LINE",
"65 679 OFFCURVE",
"94 673 OFFCURVE",
"120 669 CURVE",
"120 29 LINE",
"94 25 OFFCURVE",
"66 19 OFFCURVE",
"40 11 CURVE",
"40 0 LINE"
);
},
{
closed = 1;
nodes = (
"557 -104 LINE",
"557 -69 LINE",
"224 -69 LINE",
"224 -104 LINE"
);
}
);
width = 778;
}
);
note = Nlinebelow;
unicode = 1E48;
},
{
glyphname = Ntilde;
lastChange = "2015-10-01 16:44:41 +0000";
layers = (
{
layerId = "100B1594-ACEA-4BEF-8FE3-15A73D27750B";
name = Regular;
paths = (
{
closed = 1;
nodes = (
"246 0 LINE",
"246 11 LINE",
"220 19 OFFCURVE",
"193 25 OFFCURVE",
"166 30 CURVE",
"166 649 LINE",
"604 0 LINE",
"657 0 LINE",
"657 669 LINE",
"685 674 OFFCURVE",
"712 680 OFFCURVE",
"738 688 CURVE",
"738 700 LINE",
"532 700 LINE",
"532 688 LINE",
"558 680 OFFCURVE",
"585 674 OFFCURVE",
"612 670 CURVE",
"612 117 LINE",
"222 700 LINE",
"40 700 LINE",
"40 688 LINE",
"65 679 OFFCURVE",
"94 673 OFFCURVE",
"120 669 CURVE",
"120 29 LINE",
"94 25 OFFCURVE",
"66 19 OFFCURVE",
"40 11 CURVE",
"40 0 LINE"
);
},
{
closed = 1;
nodes = (
"255 786 LINE",
"263 821 OFFCURVE",
"287 843 OFFCURVE",
"318 843 CURVE SMOOTH",
"358 843 OFFCURVE",
"414 787 OFFCURVE",
"464 787 CURVE SMOOTH",
"523 787 OFFCURVE",
"554 828 OFFCURVE",
"563 891 CURVE",
"531 891 LINE",
"521 848 OFFCURVE",
"495 831 OFFCURVE",
"466 831 CURVE SMOOTH",
"425 831 OFFCURVE",
"378 886 OFFCURVE",
"320 886 CURVE SMOOTH",
"268 886 OFFCURVE",
"232 855 OFFCURVE",
"222 786 CURVE"
);
}
);
width = 778;
}
);
note = Ntilde;
unicode = 00D1;
},
{
glyphname = O;
lastChange = "2015-10-01 16:44:41 +0000";
layers = (
{
layerId = "100B1594-ACEA-4BEF-8FE3-15A73D27750B";
name = Regular;
paths = (
{
closed = 1;
nodes = (
"565 -10 OFFCURVE",
"678 127 OFFCURVE",
"678 350 CURVE SMOOTH",
"678 572 OFFCURVE",
"565 710 OFFCURVE",
"357 710 CURVE SMOOTH",
"148 710 OFFCURVE",
"37 572 OFFCURVE",
"37 350 CURVE SMOOTH",
"37 127 OFFCURVE",
"148 -10 OFFCURVE",
"357 -10 CURVE SMOOTH"
);
},
{
closed = 1;
nodes = (
"202 27 OFFCURVE",
"130 163 OFFCURVE",
"130 350 CURVE SMOOTH",
"130 536 OFFCURVE",
"202 673 OFFCURVE",
"357 673 CURVE SMOOTH",
"512 673 OFFCURVE",
"585 536 OFFCURVE",
"585 350 CURVE SMOOTH",
"585 163 OFFCURVE",
"512 27 OFFCURVE",
"357 27 CURVE SMOOTH"
);
}
);
width = 715;
}
);
leftKerningGroup = O;
note = O;
rightKerningGroup = O;
unicode = 004F;
},
{
glyphname = Oacute;
lastChange = "2015-10-01 16:44:41 +0000";
layers = (
{
layerId = "100B1594-ACEA-4BEF-8FE3-15A73D27750B";
name = Regular;
paths = (
{
closed = 1;
nodes = (
"565 -10 OFFCURVE",
"678 127 OFFCURVE",
"678 350 CURVE SMOOTH",
"678 572 OFFCURVE",
"565 710 OFFCURVE",
"357 710 CURVE SMOOTH",
"148 710 OFFCURVE",
"37 572 OFFCURVE",
"37 350 CURVE SMOOTH",
"37 127 OFFCURVE",
"148 -10 OFFCURVE",
"357 -10 CURVE SMOOTH"
);
},
{
closed = 1;
nodes = (
"202 27 OFFCURVE",
"130 163 OFFCURVE",
"130 350 CURVE SMOOTH",
"130 536 OFFCURVE",
"202 673 OFFCURVE",
"357 673 CURVE SMOOTH",
"512 673 OFFCURVE",
"585 536 OFFCURVE",
"585 350 CURVE SMOOTH",
"585 163 OFFCURVE",
"512 27 OFFCURVE",
"357 27 CURVE SMOOTH"
);
},
{
closed = 1;
nodes = (
"423 868 LINE SMOOTH",
"444 881 OFFCURVE",
"455 895 OFFCURVE",
"455 911 CURVE SMOOTH",
"455 924 OFFCURVE",
"445 938 OFFCURVE",
"424 938 CURVE SMOOTH",
"402 938 OFFCURVE",
"386 922 OFFCURVE",
"379 915 CURVE",
"265 809 LINE",
"281 786 LINE"
);
}
);
width = 715;
}
);
leftKerningGroup = O;
note = Oacute;
rightKerningGroup = O;
unicode = 00D3;
},
{
glyphname = Obreve;
lastChange = "2015-10-01 16:44:41 +0000";
layers = (
{
layerId = "100B1594-ACEA-4BEF-8FE3-15A73D27750B";
name = Regular;
paths = (
{
closed = 1;
nodes = (
"565 -10 OFFCURVE",
"678 127 OFFCURVE",
"678 350 CURVE SMOOTH",
"678 572 OFFCURVE",
"565 710 OFFCURVE",
"357 710 CURVE SMOOTH",
"148 710 OFFCURVE",
"37 572 OFFCURVE",
"37 350 CURVE SMOOTH",
"37 127 OFFCURVE",
"148 -10 OFFCURVE",
"357 -10 CURVE SMOOTH"
);
},
{
closed = 1;
nodes = (
"202 27 OFFCURVE",
"130 163 OFFCURVE",
"130 350 CURVE SMOOTH",
"130 536 OFFCURVE",
"202 673 OFFCURVE",
"357 673 CURVE SMOOTH",
"512 673 OFFCURVE",
"585 536 OFFCURVE",
"585 350 CURVE SMOOTH",
"585 163 OFFCURVE",
"512 27 OFFCURVE",
"357 27 CURVE SMOOTH"
);
},
{
closed = 1;
nodes = (
"441 775 OFFCURVE",
"502 814 OFFCURVE",
"512 899 CURVE",
"456 899 LINE",
"448 823 OFFCURVE",
"398 812 OFFCURVE",
"357 812 CURVE SMOOTH",
"316 812 OFFCURVE",
"265 823 OFFCURVE",
"257 899 CURVE",
"201 899 LINE",
"212 814 OFFCURVE",
"272 775 OFFCURVE",
"357 775 CURVE SMOOTH"
);
}
);
width = 715;
}
);
leftKerningGroup = O;
note = Obreve;
rightKerningGroup = O;
unicode = 014E;
},
{
glyphname = Ocaron;
lastChange = "2015-10-01 16:44:41 +0000";
layers = (
{
layerId = "100B1594-ACEA-4BEF-8FE3-15A73D27750B";
name = Regular;
paths = (
{
closed = 1;
nodes = (
"565 -10 OFFCURVE",
"678 127 OFFCURVE",
"678 350 CURVE SMOOTH",
"678 572 OFFCURVE",
"565 710 OFFCURVE",
"357 710 CURVE SMOOTH",
"148 710 OFFCURVE",
"37 572 OFFCURVE",
"37 350 CURVE SMOOTH",
"37 127 OFFCURVE",
"148 -10 OFFCURVE",
"357 -10 CURVE SMOOTH"
);
},
{
closed = 1;
nodes = (
"202 27 OFFCURVE",
"130 163 OFFCURVE",
"130 350 CURVE SMOOTH",
"130 536 OFFCURVE",
"202 673 OFFCURVE",
"357 673 CURVE SMOOTH",
"512 673 OFFCURVE",
"585 536 OFFCURVE",
"585 350 CURVE SMOOTH",
"585 163 OFFCURVE",
"512 27 OFFCURVE",
"357 27 CURVE SMOOTH"
);
},
{
closed = 1;
nodes = (
"379 786 LINE",
"408 827 OFFCURVE",
"469 882 OFFCURVE",
"510 909 CURVE",
"472 941 LINE",
"434 913 OFFCURVE",
"386 868 OFFCURVE",
"360 832 CURVE",
"355 832 LINE",
"329 868 OFFCURVE",
"280 913 OFFCURVE",
"242 941 CURVE",
"205 909 LINE",
"245 882 OFFCURVE",
"307 827 OFFCURVE",
"336 786 CURVE"
);
}
);
width = 715;
}
);
leftKerningGroup = O;
note = Ocaron;
rightKerningGroup = O;
unicode = 01D1;
},
{
glyphname = Ocircumflex;
lastChange = "2015-10-01 16:44:41 +0000";
layers = (
{
layerId = "100B1594-ACEA-4BEF-8FE3-15A73D27750B";
name = Regular;
paths = (
{
closed = 1;
nodes = (
"565 -10 OFFCURVE",
"678 127 OFFCURVE",
"678 350 CURVE SMOOTH",
"678 572 OFFCURVE",
"565 710 OFFCURVE",
"357 710 CURVE SMOOTH",
"148 710 OFFCURVE",
"37 572 OFFCURVE",
"37 350 CURVE SMOOTH",
"37 127 OFFCURVE",
"148 -10 OFFCURVE",
"357 -10 CURVE SMOOTH"
);
},
{
closed = 1;
nodes = (
"202 27 OFFCURVE",
"130 163 OFFCURVE",
"130 350 CURVE SMOOTH",
"130 536 OFFCURVE",
"202 673 OFFCURVE",
"357 673 CURVE SMOOTH",
"512 673 OFFCURVE",
"585 536 OFFCURVE",
"585 350 CURVE SMOOTH",
"585 163 OFFCURVE",
"512 27 OFFCURVE",
"357 27 CURVE SMOOTH"
);
},
{
closed = 1;
nodes = (
"279 808 OFFCURVE",
"328 853 OFFCURVE",
"354 889 CURVE",
"359 889 LINE",
"385 853 OFFCURVE",
"433 808 OFFCURVE",
"471 780 CURVE",
"509 812 LINE",
"468 839 OFFCURVE",
"407 894 OFFCURVE",
"378 934 CURVE",
"335 934 LINE",
"306 894 OFFCURVE",
"244 839 OFFCURVE",
"204 812 CURVE",
"241 780 LINE"
);
}
);
width = 715;
}
);
leftKerningGroup = O;
note = Ocircumflex;
rightKerningGroup = O;
unicode = 00D4;
},
{
glyphname = Ocircumflexacute;
lastChange = "2015-10-01 16:44:41 +0000";
layers = (
{
layerId = "100B1594-ACEA-4BEF-8FE3-15A73D27750B";
name = Regular;
paths = (
{
closed = 1;
nodes = (
"565 -10 OFFCURVE",
"678 127 OFFCURVE",
"678 350 CURVE SMOOTH",
"678 572 OFFCURVE",
"565 710 OFFCURVE",
"357 710 CURVE SMOOTH",
"148 710 OFFCURVE",
"37 572 OFFCURVE",
"37 350 CURVE SMOOTH",
"37 127 OFFCURVE",
"148 -10 OFFCURVE",
"357 -10 CURVE SMOOTH"
);
},
{
closed = 1;
nodes = (
"202 27 OFFCURVE",
"130 163 OFFCURVE",
"130 350 CURVE SMOOTH",
"130 536 OFFCURVE",
"202 673 OFFCURVE",
"357 673 CURVE SMOOTH",
"512 673 OFFCURVE",
"585 536 OFFCURVE",
"585 350 CURVE SMOOTH",
"585 163 OFFCURVE",
"512 27 OFFCURVE",
"357 27 CURVE SMOOTH"
);
},
{
closed = 1;
nodes = (
"279 808 OFFCURVE",
"327 853 OFFCURVE",
"354 889 CURVE",
"358 889 LINE",
"385 853 OFFCURVE",
"433 808 OFFCURVE",
"471 780 CURVE",
"508 812 LINE",
"469 839 OFFCURVE",
"407 894 OFFCURVE",
"377 934 CURVE",
"335 934 LINE",
"305 894 OFFCURVE",
"244 839 OFFCURVE",
"204 812 CURVE",
"242 780 LINE"
);
},
{
closed = 1;
nodes = (
"580 957 LINE SMOOTH",
"612 974 OFFCURVE",
"625 994 OFFCURVE",
"625 1010 CURVE SMOOTH",
"625 1023 OFFCURVE",
"615 1033 OFFCURVE",
"600 1033 CURVE SMOOTH",
"584 1033 OFFCURVE",
"563 1023 OFFCURVE",
"541 1000 CURVE SMOOTH",
"460 921 LINE",
"475 900 LINE"
);
}
);
width = 715;
}
);
leftKerningGroup = O;
note = Ocircumflexacute;
rightKerningGroup = O;
unicode = 1ED0;
},
{
glyphname = Ocircumflexdotbelow;
lastChange = "2015-11-28 06:40:00 +0000";
layers = (
{
layerId = "100B1594-ACEA-4BEF-8FE3-15A73D27750B";
name = Regular;
paths = (
{
closed = 1;
nodes = (
"565 -10 OFFCURVE",
"678 127 OFFCURVE",
"678 350 CURVE SMOOTH",
"678 572 OFFCURVE",
"565 710 OFFCURVE",
"357 710 CURVE SMOOTH",
"148 710 OFFCURVE",
"37 572 OFFCURVE",
"37 350 CURVE SMOOTH",
"37 127 OFFCURVE",
"148 -10 OFFCURVE",
"357 -10 CURVE SMOOTH"
);
},
{
closed = 1;
nodes = (
"202 27 OFFCURVE",
"130 163 OFFCURVE",
"130 350 CURVE SMOOTH",
"130 536 OFFCURVE",
"202 673 OFFCURVE",
"357 673 CURVE SMOOTH",
"512 673 OFFCURVE",
"585 536 OFFCURVE",
"585 350 CURVE SMOOTH",
"585 163 OFFCURVE",
"512 27 OFFCURVE",
"357 27 CURVE SMOOTH"
);
},
{
closed = 1;
nodes = (
"279 808 OFFCURVE",
"328 853 OFFCURVE",
"354 889 CURVE",
"359 889 LINE",
"385 853 OFFCURVE",
"433 808 OFFCURVE",
"471 780 CURVE",
"509 812 LINE",
"468 839 OFFCURVE",
"407 894 OFFCURVE",
"378 934 CURVE",
"335 934 LINE",
"306 894 OFFCURVE",
"244 839 OFFCURVE",
"204 812 CURVE",
"241 780 LINE"
);
},
{
closed = 1;
nodes = (
"383 -151 OFFCURVE",
"401 -132 OFFCURVE",
"401 -106 CURVE SMOOTH",
"401 -78 OFFCURVE",
"383 -59 OFFCURVE",
"356 -59 CURVE SMOOTH",
"329 -59 OFFCURVE",
"311 -78 OFFCURVE",
"311 -106 CURVE SMOOTH",
"311 -132 OFFCURVE",
"329 -151 OFFCURVE",
"356 -151 CURVE SMOOTH"
);
}
);
width = 715;
}
);
leftKerningGroup = O;
note = Ocircumflexdotbelow;
rightKerningGroup = O;
unicode = 1ED8;
},
{
glyphname = Ocircumflexgrave;
lastChange = "2015-10-01 16:44:42 +0000";
layers = (
{
layerId = "100B1594-ACEA-4BEF-8FE3-15A73D27750B";
name = Regular;
paths = (
{
closed = 1;
nodes = (
"565 -10 OFFCURVE",
"678 127 OFFCURVE",
"678 350 CURVE SMOOTH",
"678 572 OFFCURVE",
"565 710 OFFCURVE",
"357 710 CURVE SMOOTH",
"148 710 OFFCURVE",
"37 572 OFFCURVE",
"37 350 CURVE SMOOTH",
"37 127 OFFCURVE",
"148 -10 OFFCURVE",
"357 -10 CURVE SMOOTH"
);
},
{
closed = 1;
nodes = (
"202 27 OFFCURVE",
"130 163 OFFCURVE",
"130 350 CURVE SMOOTH",
"130 536 OFFCURVE",
"202 673 OFFCURVE",
"357 673 CURVE SMOOTH",
"512 673 OFFCURVE",
"585 536 OFFCURVE",
"585 350 CURVE SMOOTH",
"585 163 OFFCURVE",
"512 27 OFFCURVE",
"357 27 CURVE SMOOTH"
);
},
{
closed = 1;
nodes = (
"260 921 LINE",
"188 992 LINE SMOOTH",
"163 1017 OFFCURVE",
"138 1033 OFFCURVE",
"120 1033 CURVE SMOOTH",
"105 1033 OFFCURVE",
"95 1023 OFFCURVE",
"95 1010 CURVE SMOOTH",
"95 992 OFFCURVE",
"116 970 OFFCURVE",
"150 951 CURVE SMOOTH",
"244 900 LINE"
);
},
{
closed = 1;
nodes = (
"279 808 OFFCURVE",
"327 853 OFFCURVE",
"354 889 CURVE",
"358 889 LINE",
"385 853 OFFCURVE",
"433 808 OFFCURVE",
"471 780 CURVE",
"508 812 LINE",
"469 839 OFFCURVE",
"407 894 OFFCURVE",
"377 934 CURVE",
"335 934 LINE",
"305 894 OFFCURVE",
"244 839 OFFCURVE",
"204 812 CURVE",
"242 780 LINE"
);
}
);
width = 715;
}
);
leftKerningGroup = O;
note = Ocircumflexgrave;
rightKerningGroup = O;
unicode = 1ED2;
},
{
glyphname = Ocircumflexhookabove;
lastChange = "2015-10-01 16:44:41 +0000";
layers = (
{
layerId = "100B1594-ACEA-4BEF-8FE3-15A73D27750B";
name = Regular;
paths = (
{
closed = 1;
nodes = (
"565 -10 OFFCURVE",
"678 127 OFFCURVE",
"678 350 CURVE SMOOTH",
"678 572 OFFCURVE",
"565 710 OFFCURVE",
"357 710 CURVE SMOOTH",
"148 710 OFFCURVE",
"37 572 OFFCURVE",
"37 350 CURVE SMOOTH",
"37 127 OFFCURVE",
"148 -10 OFFCURVE",
"357 -10 CURVE SMOOTH"
);
},
{
closed = 1;
nodes = (
"202 27 OFFCURVE",
"130 163 OFFCURVE",
"130 350 CURVE SMOOTH",
"130 536 OFFCURVE",
"202 673 OFFCURVE",
"357 673 CURVE SMOOTH",
"512 673 OFFCURVE",
"585 536 OFFCURVE",
"585 350 CURVE SMOOTH",
"585 163 OFFCURVE",
"512 27 OFFCURVE",
"357 27 CURVE SMOOTH"
);
},
{
closed = 1;
nodes = (
"279 813 OFFCURVE",
"327 858 OFFCURVE",
"354 894 CURVE",
"358 894 LINE",
"385 858 OFFCURVE",
"433 813 OFFCURVE",
"471 785 CURVE",
"508 817 LINE",
"469 844 OFFCURVE",
"407 899 OFFCURVE",
"377 939 CURVE",
"335 939 LINE",
"305 899 OFFCURVE",
"244 844 OFFCURVE",
"204 817 CURVE",
"242 785 LINE"
);
},
{
closed = 1;
nodes = (
"494 896 LINE",
"503 949 LINE",
"548 953 OFFCURVE",
"576 972 OFFCURVE",
"576 1012 CURVE SMOOTH",
"576 1059 OFFCURVE",
"534 1078 OFFCURVE",
"490 1078 CURVE SMOOTH",
"465 1078 OFFCURVE",
"440 1071 OFFCURVE",
"424 1064 CURVE",
"430 1037 LINE",
"447 1046 OFFCURVE",
"465 1050 OFFCURVE",
"480 1050 CURVE SMOOTH",
"514 1050 OFFCURVE",
"530 1034 OFFCURVE",
"530 1013 CURVE SMOOTH",
"530 987 OFFCURVE",
"511 971 OFFCURVE",
"476 971 CURVE SMOOTH",
"455 971 LINE",
"459 896 LINE"
);
}
);
width = 715;
}
);
leftKerningGroup = O;
note = Ocircumflexhookabove;
rightKerningGroup = O;
unicode = 1ED4;
},
{
glyphname = Ocircumflextilde;
lastChange = "2015-10-01 16:44:41 +0000";
layers = (
{
layerId = "100B1594-ACEA-4BEF-8FE3-15A73D27750B";
name = Regular;
paths = (
{
closed = 1;
nodes = (
"565 -10 OFFCURVE",
"678 127 OFFCURVE",
"678 350 CURVE SMOOTH",
"678 572 OFFCURVE",
"565 710 OFFCURVE",
"357 710 CURVE SMOOTH",
"148 710 OFFCURVE",
"37 572 OFFCURVE",
"37 350 CURVE SMOOTH",
"37 127 OFFCURVE",
"148 -10 OFFCURVE",
"357 -10 CURVE SMOOTH"
);
},
{
closed = 1;
nodes = (
"202 27 OFFCURVE",
"130 163 OFFCURVE",
"130 350 CURVE SMOOTH",
"130 536 OFFCURVE",
"202 673 OFFCURVE",
"357 673 CURVE SMOOTH",
"512 673 OFFCURVE",
"585 536 OFFCURVE",
"585 350 CURVE SMOOTH",
"585 163 OFFCURVE",
"512 27 OFFCURVE",
"357 27 CURVE SMOOTH"
);
},
{
closed = 1;
nodes = (
"279 808 OFFCURVE",
"327 853 OFFCURVE",
"354 889 CURVE",
"358 889 LINE",
"385 853 OFFCURVE",
"433 808 OFFCURVE",
"471 780 CURVE",
"508 812 LINE",
"469 839 OFFCURVE",
"407 894 OFFCURVE",
"377 934 CURVE",
"335 934 LINE",
"305 894 OFFCURVE",
"244 839 OFFCURVE",
"204 812 CURVE",
"242 780 LINE"
);
},
{
closed = 1;
nodes = (
"226 963 LINE",
"234 998 OFFCURVE",
"257 1020 OFFCURVE",
"286 1020 CURVE SMOOTH",
"324 1020 OFFCURVE",
"378 964 OFFCURVE",
"425 964 CURVE SMOOTH",
"482 964 OFFCURVE",
"511 1005 OFFCURVE",
"519 1068 CURVE",
"489 1068 LINE",
"479 1025 OFFCURVE",
"455 1008 OFFCURVE",
"427 1008 CURVE SMOOTH",
"388 1008 OFFCURVE",
"343 1063 OFFCURVE",
"288 1063 CURVE SMOOTH",
"238 1063 OFFCURVE",
"204 1032 OFFCURVE",
"195 963 CURVE"
);
}
);
width = 715;
}
);
leftKerningGroup = O;
note = Ocircumflextilde;
rightKerningGroup = O;
unicode = 1ED6;
},
{
glyphname = Odieresis;
lastChange = "2015-10-01 16:44:41 +0000";
layers = (
{
layerId = "100B1594-ACEA-4BEF-8FE3-15A73D27750B";
name = Regular;
paths = (
{
closed = 1;
nodes = (
"565 -10 OFFCURVE",
"678 127 OFFCURVE",
"678 350 CURVE SMOOTH",
"678 572 OFFCURVE",
"565 710 OFFCURVE",
"357 710 CURVE SMOOTH",
"148 710 OFFCURVE",
"37 572 OFFCURVE",
"37 350 CURVE SMOOTH",
"37 127 OFFCURVE",
"148 -10 OFFCURVE",
"357 -10 CURVE SMOOTH"
);
},
{
closed = 1;
nodes = (
"202 27 OFFCURVE",
"130 163 OFFCURVE",
"130 350 CURVE SMOOTH",
"130 536 OFFCURVE",
"202 673 OFFCURVE",
"357 673 CURVE SMOOTH",
"512 673 OFFCURVE",
"585 536 OFFCURVE",
"585 350 CURVE SMOOTH",
"585 163 OFFCURVE",
"512 27 OFFCURVE",
"357 27 CURVE SMOOTH"
);
},
{
closed = 1;
nodes = (
"273 785 OFFCURVE",
"291 804 OFFCURVE",
"291 830 CURVE SMOOTH",
"291 858 OFFCURVE",
"273 877 OFFCURVE",
"246 877 CURVE SMOOTH",
"220 877 OFFCURVE",
"202 858 OFFCURVE",
"202 830 CURVE SMOOTH",
"202 804 OFFCURVE",
"220 785 OFFCURVE",
"246 785 CURVE SMOOTH"
);
},
{
closed = 1;
nodes = (
"493 785 OFFCURVE",
"511 804 OFFCURVE",
"511 830 CURVE SMOOTH",
"511 858 OFFCURVE",
"493 877 OFFCURVE",
"466 877 CURVE SMOOTH",
"439 877 OFFCURVE",
"422 858 OFFCURVE",
"422 830 CURVE SMOOTH",
"422 804 OFFCURVE",
"439 785 OFFCURVE",
"466 785 CURVE SMOOTH"
);
}
);
width = 715;
}
);
leftKerningGroup = O;
note = Odieresis;
rightKerningGroup = O;
unicode = 00D6;
},
{
glyphname = Odotbelow;
lastChange = "2015-11-28 06:40:06 +0000";
layers = (
{
layerId = "100B1594-ACEA-4BEF-8FE3-15A73D27750B";
name = Regular;
paths = (
{
closed = 1;
nodes = (
"565 -10 OFFCURVE",
"678 127 OFFCURVE",
"678 350 CURVE SMOOTH",
"678 572 OFFCURVE",
"565 710 OFFCURVE",
"357 710 CURVE SMOOTH",
"148 710 OFFCURVE",
"37 572 OFFCURVE",
"37 350 CURVE SMOOTH",
"37 127 OFFCURVE",
"148 -10 OFFCURVE",
"357 -10 CURVE SMOOTH"
);
},
{
closed = 1;
nodes = (
"202 27 OFFCURVE",
"130 163 OFFCURVE",
"130 350 CURVE SMOOTH",
"130 536 OFFCURVE",
"202 673 OFFCURVE",
"357 673 CURVE SMOOTH",
"512 673 OFFCURVE",
"585 536 OFFCURVE",
"585 350 CURVE SMOOTH",
"585 163 OFFCURVE",
"512 27 OFFCURVE",
"357 27 CURVE SMOOTH"
);
},
{
closed = 1;
nodes = (
"383 -151 OFFCURVE",
"401 -132 OFFCURVE",
"401 -106 CURVE SMOOTH",
"401 -78 OFFCURVE",
"383 -59 OFFCURVE",
"356 -59 CURVE SMOOTH",
"329 -59 OFFCURVE",
"311 -78 OFFCURVE",
"311 -106 CURVE SMOOTH",
"311 -132 OFFCURVE",
"329 -151 OFFCURVE",
"356 -151 CURVE SMOOTH"
);
}
);
width = 715;
}
);
leftKerningGroup = O;
note = Odotbelow;
rightKerningGroup = O;
unicode = 1ECC;
},
{
glyphname = Ograve;
lastChange = "2015-10-01 16:44:41 +0000";
layers = (
{
layerId = "100B1594-ACEA-4BEF-8FE3-15A73D27750B";
name = Regular;
paths = (
{
closed = 1;
nodes = (
"565 -10 OFFCURVE",
"678 127 OFFCURVE",
"678 350 CURVE SMOOTH",
"678 572 OFFCURVE",
"565 710 OFFCURVE",
"357 710 CURVE SMOOTH",
"148 710 OFFCURVE",
"37 572 OFFCURVE",
"37 350 CURVE SMOOTH",
"37 127 OFFCURVE",
"148 -10 OFFCURVE",
"357 -10 CURVE SMOOTH"
);
},
{
closed = 1;
nodes = (
"202 27 OFFCURVE",
"130 163 OFFCURVE",
"130 350 CURVE SMOOTH",
"130 536 OFFCURVE",
"202 673 OFFCURVE",
"357 673 CURVE SMOOTH",
"512 673 OFFCURVE",
"585 536 OFFCURVE",
"585 350 CURVE SMOOTH",
"585 163 OFFCURVE",
"512 27 OFFCURVE",
"357 27 CURVE SMOOTH"
);
},
{
closed = 1;
nodes = (
"448 809 LINE",
"332 916 LINE",
"324 924 OFFCURVE",
"309 938 OFFCURVE",
"288 938 CURVE SMOOTH",
"267 938 OFFCURVE",
"256 924 OFFCURVE",
"256 911 CURVE SMOOTH",
"256 895 OFFCURVE",
"268 881 OFFCURVE",
"290 868 CURVE SMOOTH",
"432 786 LINE"
);
}
);
width = 715;
}
);
leftKerningGroup = O;
note = Ograve;
rightKerningGroup = O;
unicode = 00D2;
},
{
glyphname = Ohookabove;
lastChange = "2015-10-01 16:44:41 +0000";
layers = (
{
layerId = "100B1594-ACEA-4BEF-8FE3-15A73D27750B";
name = Regular;
paths = (
{
closed = 1;
nodes = (
"565 -10 OFFCURVE",
"678 127 OFFCURVE",
"678 350 CURVE SMOOTH",
"678 572 OFFCURVE",
"565 710 OFFCURVE",
"357 710 CURVE SMOOTH",
"148 710 OFFCURVE",
"37 572 OFFCURVE",
"37 350 CURVE SMOOTH",
"37 127 OFFCURVE",
"148 -10 OFFCURVE",
"357 -10 CURVE SMOOTH"
);
},
{
closed = 1;
nodes = (
"202 27 OFFCURVE",
"130 163 OFFCURVE",
"130 350 CURVE SMOOTH",
"130 536 OFFCURVE",
"202 673 OFFCURVE",
"357 673 CURVE SMOOTH",
"512 673 OFFCURVE",
"585 536 OFFCURVE",
"585 350 CURVE SMOOTH",
"585 163 OFFCURVE",
"512 27 OFFCURVE",
"357 27 CURVE SMOOTH"
);
},
{
closed = 1;
nodes = (
"374 779 LINE",
"384 843 LINE",
"436 848 OFFCURVE",
"468 872 OFFCURVE",
"468 919 CURVE SMOOTH",
"468 975 OFFCURVE",
"420 998 OFFCURVE",
"370 998 CURVE SMOOTH",
"340 998 OFFCURVE",
"311 990 OFFCURVE",
"293 981 CURVE",
"300 951 LINE",
"320 962 OFFCURVE",
"341 967 OFFCURVE",
"358 967 CURVE SMOOTH",
"397 967 OFFCURVE",
"417 946 OFFCURVE",
"417 921 CURVE SMOOTH",
"417 890 OFFCURVE",
"394 869 OFFCURVE",
"354 869 CURVE SMOOTH",
"330 869 LINE",
"335 779 LINE"
);
}
);
width = 715;
}
);
leftKerningGroup = O;
note = Ohookabove;
rightKerningGroup = O;
unicode = 1ECE;
},
{
glyphname = Ohorn;
lastChange = "2015-10-01 16:44:41 +0000";
layers = (
{
layerId = "100B1594-ACEA-4BEF-8FE3-15A73D27750B";
name = Regular;
paths = (
{
closed = 1;
nodes = (
"565 -10 OFFCURVE",
"678 127 OFFCURVE",
"678 350 CURVE SMOOTH",
"678 572 OFFCURVE",
"565 710 OFFCURVE",
"357 710 CURVE SMOOTH",
"148 710 OFFCURVE",
"37 572 OFFCURVE",
"37 350 CURVE SMOOTH",
"37 127 OFFCURVE",
"148 -10 OFFCURVE",
"357 -10 CURVE SMOOTH"
);
},
{
closed = 1;
nodes = (
"202 27 OFFCURVE",
"130 163 OFFCURVE",
"130 350 CURVE SMOOTH",
"130 536 OFFCURVE",
"202 673 OFFCURVE",
"357 673 CURVE SMOOTH",
"512 673 OFFCURVE",
"585 536 OFFCURVE",
"585 350 CURVE SMOOTH",
"585 163 OFFCURVE",
"512 27 OFFCURVE",
"357 27 CURVE SMOOTH"
);
},
{
closed = 1;
nodes = (
"715 560 OFFCURVE",
"745 621 OFFCURVE",
"745 666 CURVE SMOOTH",
"745 698 OFFCURVE",
"736 736 OFFCURVE",
"684 736 CURVE SMOOTH",
"644 736 OFFCURVE",
"630 710 OFFCURVE",
"630 686 CURVE SMOOTH",
"630 656 OFFCURVE",
"649 638 OFFCURVE",
"676 638 CURVE SMOOTH",
"682 638 OFFCURVE",
"689 639 OFFCURVE",
"695 643 CURVE",
"689 596 OFFCURVE",
"646 554 OFFCURVE",
"618 535 CURVE",
"638 508 LINE"
);
}
);
width = 738;
}
);
leftKerningGroup = O;
note = Ohorn;
rightKerningGroup = O;
unicode = 01A0;
},
{
glyphname = Ohornacute;
lastChange = "2015-10-01 16:44:41 +0000";
layers = (
{
layerId = "100B1594-ACEA-4BEF-8FE3-15A73D27750B";
name = Regular;
paths = (
{
closed = 1;
nodes = (
"565 -10 OFFCURVE",
"678 127 OFFCURVE",
"678 350 CURVE SMOOTH",
"678 572 OFFCURVE",
"565 710 OFFCURVE",
"357 710 CURVE SMOOTH",
"148 710 OFFCURVE",
"37 572 OFFCURVE",
"37 350 CURVE SMOOTH",
"37 127 OFFCURVE",
"148 -10 OFFCURVE",
"357 -10 CURVE SMOOTH"
);
},
{
closed = 1;
nodes = (
"202 27 OFFCURVE",
"130 163 OFFCURVE",
"130 350 CURVE SMOOTH",
"130 536 OFFCURVE",
"202 673 OFFCURVE",
"357 673 CURVE SMOOTH",
"512 673 OFFCURVE",
"585 536 OFFCURVE",
"585 350 CURVE SMOOTH",
"585 163 OFFCURVE",
"512 27 OFFCURVE",
"357 27 CURVE SMOOTH"
);
},
{
closed = 1;
nodes = (
"424 867 LINE SMOOTH",
"445 880 OFFCURVE",
"456 894 OFFCURVE",
"456 910 CURVE SMOOTH",
"456 923 OFFCURVE",
"446 937 OFFCURVE",
"425 937 CURVE SMOOTH",
"403 937 OFFCURVE",
"387 921 OFFCURVE",
"380 914 CURVE",
"266 808 LINE",
"282 785 LINE"
);
},
{
closed = 1;
nodes = (
"715 560 OFFCURVE",
"745 621 OFFCURVE",
"745 666 CURVE SMOOTH",
"745 698 OFFCURVE",
"736 736 OFFCURVE",
"684 736 CURVE SMOOTH",
"644 736 OFFCURVE",
"630 710 OFFCURVE",
"630 686 CURVE SMOOTH",
"630 656 OFFCURVE",
"649 638 OFFCURVE",
"676 638 CURVE SMOOTH",
"682 638 OFFCURVE",
"689 639 OFFCURVE",
"695 643 CURVE",
"689 596 OFFCURVE",
"646 554 OFFCURVE",
"618 535 CURVE",
"638 508 LINE"
);
}
);
width = 738;
}
);
leftKerningGroup = O;
note = Ohornacute;
rightKerningGroup = O;
unicode = 1EDA;
},
{
glyphname = Ohorndotbelow;
lastChange = "2015-11-28 06:40:12 +0000";
layers = (
{
layerId = "100B1594-ACEA-4BEF-8FE3-15A73D27750B";
name = Regular;
paths = (
{
closed = 1;
nodes = (
"565 -10 OFFCURVE",
"678 127 OFFCURVE",
"678 350 CURVE SMOOTH",
"678 572 OFFCURVE",
"565 710 OFFCURVE",
"357 710 CURVE SMOOTH",
"148 710 OFFCURVE",
"37 572 OFFCURVE",
"37 350 CURVE SMOOTH",
"37 127 OFFCURVE",
"148 -10 OFFCURVE",
"357 -10 CURVE SMOOTH"
);
},
{
closed = 1;
nodes = (
"202 27 OFFCURVE",
"130 163 OFFCURVE",
"130 350 CURVE SMOOTH",
"130 536 OFFCURVE",
"202 673 OFFCURVE",
"357 673 CURVE SMOOTH",
"512 673 OFFCURVE",
"585 536 OFFCURVE",
"585 350 CURVE SMOOTH",
"585 163 OFFCURVE",
"512 27 OFFCURVE",
"357 27 CURVE SMOOTH"
);
},
{
closed = 1;
nodes = (
"715 560 OFFCURVE",
"745 621 OFFCURVE",
"745 666 CURVE SMOOTH",
"745 698 OFFCURVE",
"736 736 OFFCURVE",
"684 736 CURVE SMOOTH",
"644 736 OFFCURVE",
"630 710 OFFCURVE",
"630 686 CURVE SMOOTH",
"630 656 OFFCURVE",
"649 638 OFFCURVE",
"676 638 CURVE SMOOTH",
"682 638 OFFCURVE",
"689 639 OFFCURVE",
"695 643 CURVE",
"689 596 OFFCURVE",
"646 554 OFFCURVE",
"618 535 CURVE",
"638 508 LINE"
);
},
{
closed = 1;
nodes = (
"383 -151 OFFCURVE",
"401 -132 OFFCURVE",
"401 -106 CURVE SMOOTH",
"401 -78 OFFCURVE",
"383 -59 OFFCURVE",
"356 -59 CURVE SMOOTH",
"329 -59 OFFCURVE",
"311 -78 OFFCURVE",
"311 -106 CURVE SMOOTH",
"311 -132 OFFCURVE",
"329 -151 OFFCURVE",
"356 -151 CURVE SMOOTH"
);
}
);
width = 738;
}
);
leftKerningGroup = O;
note = Ohorndotbelow;
rightKerningGroup = O;
unicode = 1EE2;
},
{
glyphname = Ohorngrave;
lastChange = "2015-10-01 16:44:41 +0000";
layers = (
{
layerId = "100B1594-ACEA-4BEF-8FE3-15A73D27750B";
name = Regular;
paths = (
{
closed = 1;
nodes = (
"565 -10 OFFCURVE",
"678 127 OFFCURVE",
"678 350 CURVE SMOOTH",
"678 572 OFFCURVE",
"565 710 OFFCURVE",
"357 710 CURVE SMOOTH",
"148 710 OFFCURVE",
"37 572 OFFCURVE",
"37 350 CURVE SMOOTH",
"37 127 OFFCURVE",
"148 -10 OFFCURVE",
"357 -10 CURVE SMOOTH"
);
},
{
closed = 1;
nodes = (
"202 27 OFFCURVE",
"130 163 OFFCURVE",
"130 350 CURVE SMOOTH",
"130 536 OFFCURVE",
"202 673 OFFCURVE",
"357 673 CURVE SMOOTH",
"512 673 OFFCURVE",
"585 536 OFFCURVE",
"585 350 CURVE SMOOTH",
"585 163 OFFCURVE",
"512 27 OFFCURVE",
"357 27 CURVE SMOOTH"
);
},
{
closed = 1;
nodes = (
"449 808 LINE",
"333 915 LINE",
"325 923 OFFCURVE",
"310 937 OFFCURVE",
"289 937 CURVE SMOOTH",
"268 937 OFFCURVE",
"257 923 OFFCURVE",
"257 910 CURVE SMOOTH",
"257 894 OFFCURVE",
"269 880 OFFCURVE",
"291 867 CURVE SMOOTH",
"433 785 LINE"
);
},
{
closed = 1;
nodes = (
"715 560 OFFCURVE",
"745 621 OFFCURVE",
"745 666 CURVE SMOOTH",
"745 698 OFFCURVE",
"736 736 OFFCURVE",
"684 736 CURVE SMOOTH",
"644 736 OFFCURVE",
"630 710 OFFCURVE",
"630 686 CURVE SMOOTH",
"630 656 OFFCURVE",
"649 638 OFFCURVE",
"676 638 CURVE SMOOTH",
"682 638 OFFCURVE",
"689 639 OFFCURVE",
"695 643 CURVE",
"689 596 OFFCURVE",
"646 554 OFFCURVE",
"618 535 CURVE",
"638 508 LINE"
);
}
);
width = 738;
}
);
leftKerningGroup = O;
note = Ohorngrave;
rightKerningGroup = O;
unicode = 1EDC;
},
{
glyphname = Ohornhookabove;
lastChange = "2015-10-01 16:44:41 +0000";
layers = (
{
layerId = "100B1594-ACEA-4BEF-8FE3-15A73D27750B";
name = Regular;
paths = (
{
closed = 1;
nodes = (
"565 -10 OFFCURVE",
"678 127 OFFCURVE",
"678 350 CURVE SMOOTH",
"678 572 OFFCURVE",
"565 710 OFFCURVE",
"357 710 CURVE SMOOTH",
"148 710 OFFCURVE",
"37 572 OFFCURVE",
"37 350 CURVE SMOOTH",
"37 127 OFFCURVE",
"148 -10 OFFCURVE",
"357 -10 CURVE SMOOTH"
);
},
{
closed = 1;
nodes = (
"202 27 OFFCURVE",
"130 163 OFFCURVE",
"130 350 CURVE SMOOTH",
"130 536 OFFCURVE",
"202 673 OFFCURVE",
"357 673 CURVE SMOOTH",
"512 673 OFFCURVE",
"585 536 OFFCURVE",
"585 350 CURVE SMOOTH",
"585 163 OFFCURVE",
"512 27 OFFCURVE",
"357 27 CURVE SMOOTH"
);
},
{
closed = 1;
nodes = (
"373 778 LINE",
"383 842 LINE",
"435 847 OFFCURVE",
"467 871 OFFCURVE",
"467 918 CURVE SMOOTH",
"467 974 OFFCURVE",
"419 997 OFFCURVE",
"369 997 CURVE SMOOTH",
"339 997 OFFCURVE",
"310 989 OFFCURVE",
"292 980 CURVE",
"299 950 LINE",
"319 961 OFFCURVE",
"340 966 OFFCURVE",
"357 966 CURVE SMOOTH",
"396 966 OFFCURVE",
"416 945 OFFCURVE",
"416 920 CURVE SMOOTH",
"416 889 OFFCURVE",
"393 868 OFFCURVE",
"353 868 CURVE SMOOTH",
"329 868 LINE",
"334 778 LINE"
);
},
{
closed = 1;
nodes = (
"715 560 OFFCURVE",
"745 621 OFFCURVE",
"745 666 CURVE SMOOTH",
"745 698 OFFCURVE",
"736 736 OFFCURVE",
"684 736 CURVE SMOOTH",
"644 736 OFFCURVE",
"630 710 OFFCURVE",
"630 686 CURVE SMOOTH",
"630 656 OFFCURVE",
"649 638 OFFCURVE",
"676 638 CURVE SMOOTH",
"682 638 OFFCURVE",
"689 639 OFFCURVE",
"695 643 CURVE",
"689 596 OFFCURVE",
"646 554 OFFCURVE",
"618 535 CURVE",
"638 508 LINE"
);
}
);
width = 738;
}
);
leftKerningGroup = O;
note = Ohornhookabove;
rightKerningGroup = O;
unicode = 1EDE;
},
{
glyphname = Ohorntilde;
lastChange = "2015-10-01 16:44:41 +0000";
layers = (
{
layerId = "100B1594-ACEA-4BEF-8FE3-15A73D27750B";
name = Regular;
paths = (
{
closed = 1;
nodes = (
"565 -10 OFFCURVE",
"678 127 OFFCURVE",
"678 350 CURVE SMOOTH",
"678 572 OFFCURVE",
"565 710 OFFCURVE",
"357 710 CURVE SMOOTH",
"148 710 OFFCURVE",
"37 572 OFFCURVE",
"37 350 CURVE SMOOTH",
"37 127 OFFCURVE",
"148 -10 OFFCURVE",
"357 -10 CURVE SMOOTH"
);
},
{
closed = 1;
nodes = (
"202 27 OFFCURVE",
"130 163 OFFCURVE",
"130 350 CURVE SMOOTH",
"130 536 OFFCURVE",
"202 673 OFFCURVE",
"357 673 CURVE SMOOTH",
"512 673 OFFCURVE",
"585 536 OFFCURVE",
"585 350 CURVE SMOOTH",
"585 163 OFFCURVE",
"512 27 OFFCURVE",
"357 27 CURVE SMOOTH"
);
},
{
closed = 1;
nodes = (
"220 786 LINE",
"228 821 OFFCURVE",
"252 843 OFFCURVE",
"283 843 CURVE SMOOTH",
"323 843 OFFCURVE",
"379 787 OFFCURVE",
"429 787 CURVE SMOOTH",
"488 787 OFFCURVE",
"519 828 OFFCURVE",
"528 891 CURVE",
"496 891 LINE",
"486 848 OFFCURVE",
"460 831 OFFCURVE",
"431 831 CURVE SMOOTH",
"390 831 OFFCURVE",
"343 886 OFFCURVE",
"285 886 CURVE SMOOTH",
"233 886 OFFCURVE",
"197 855 OFFCURVE",
"187 786 CURVE"
);
},
{
closed = 1;
nodes = (
"715 560 OFFCURVE",
"745 621 OFFCURVE",
"745 666 CURVE SMOOTH",
"745 698 OFFCURVE",
"736 736 OFFCURVE",
"684 736 CURVE SMOOTH",
"644 736 OFFCURVE",
"630 710 OFFCURVE",
"630 686 CURVE SMOOTH",
"630 656 OFFCURVE",
"649 638 OFFCURVE",
"676 638 CURVE SMOOTH",
"682 638 OFFCURVE",
"689 639 OFFCURVE",
"695 643 CURVE",
"689 596 OFFCURVE",
"646 554 OFFCURVE",
"618 535 CURVE",
"638 508 LINE"
);
}
);
width = 738;
}
);
leftKerningGroup = O;
note = Ohorntilde;
rightKerningGroup = O;
unicode = 1EE0;
},
{
glyphname = Ohungarumlaut;
lastChange = "2015-10-01 16:44:41 +0000";
layers = (
{
layerId = "100B1594-ACEA-4BEF-8FE3-15A73D27750B";
name = Regular;
paths = (
{
closed = 1;
nodes = (
"565 -10 OFFCURVE",
"678 127 OFFCURVE",
"678 350 CURVE SMOOTH",
"678 572 OFFCURVE",
"565 710 OFFCURVE",
"357 710 CURVE SMOOTH",
"148 710 OFFCURVE",
"37 572 OFFCURVE",
"37 350 CURVE SMOOTH",
"37 127 OFFCURVE",
"148 -10 OFFCURVE",
"357 -10 CURVE SMOOTH"
);
},
{
closed = 1;
nodes = (
"202 27 OFFCURVE",
"130 163 OFFCURVE",
"130 350 CURVE SMOOTH",
"130 536 OFFCURVE",
"202 673 OFFCURVE",
"357 673 CURVE SMOOTH",
"512 673 OFFCURVE",
"585 536 OFFCURVE",
"585 350 CURVE SMOOTH",
"585 163 OFFCURVE",
"512 27 OFFCURVE",
"357 27 CURVE SMOOTH"
);
},
{
closed = 1;
nodes = (
"368 868 LINE SMOOTH",
"389 880 OFFCURVE",
"401 894 OFFCURVE",
"401 910 CURVE SMOOTH",
"401 924 OFFCURVE",
"390 938 OFFCURVE",
"369 938 CURVE SMOOTH",
"348 938 OFFCURVE",
"331 921 OFFCURVE",
"324 914 CURVE",
"210 808 LINE",
"226 785 LINE"
);
},
{
closed = 1;
nodes = (
"566 868 LINE SMOOTH",
"587 880 OFFCURVE",
"599 894 OFFCURVE",
"599 910 CURVE SMOOTH",
"599 924 OFFCURVE",
"588 938 OFFCURVE",
"567 938 CURVE SMOOTH",
"546 938 OFFCURVE",
"528 921 OFFCURVE",
"522 914 CURVE",
"408 808 LINE",
"424 785 LINE"
);
}
);
width = 715;
}
);
leftKerningGroup = O;
note = Ohungarumlaut;
rightKerningGroup = O;
unicode = 0150;
},
{
glyphname = Omacron;
lastChange = "2015-10-01 16:44:41 +0000";
layers = (
{
layerId = "100B1594-ACEA-4BEF-8FE3-15A73D27750B";
name = Regular;
paths = (
{
closed = 1;
nodes = (
"565 -10 OFFCURVE",
"678 127 OFFCURVE",
"678 350 CURVE SMOOTH",
"678 572 OFFCURVE",
"565 710 OFFCURVE",
"357 710 CURVE SMOOTH",
"148 710 OFFCURVE",
"37 572 OFFCURVE",
"37 350 CURVE SMOOTH",
"37 127 OFFCURVE",
"148 -10 OFFCURVE",
"357 -10 CURVE SMOOTH"
);
},
{
closed = 1;
nodes = (
"202 27 OFFCURVE",
"130 163 OFFCURVE",
"130 350 CURVE SMOOTH",
"130 536 OFFCURVE",
"202 673 OFFCURVE",
"357 673 CURVE SMOOTH",
"512 673 OFFCURVE",
"585 536 OFFCURVE",
"585 350 CURVE SMOOTH",
"585 163 OFFCURVE",
"512 27 OFFCURVE",
"357 27 CURVE SMOOTH"
);
},
{
closed = 1;
nodes = (
"522 797 LINE",
"522 832 LINE",
"189 832 LINE",
"189 797 LINE"
);
}
);
width = 715;
}
);
leftKerningGroup = O;
note = Omacron;
rightKerningGroup = O;
unicode = 014C;
},
{
glyphname = Oslash;
lastChange = "2015-11-28 06:40:22 +0000";
layers = (
{
layerId = "100B1594-ACEA-4BEF-8FE3-15A73D27750B";
name = Regular;
paths = (
{
closed = 1;
nodes = (
"565 -10 OFFCURVE",
"678 127 OFFCURVE",
"678 350 CURVE SMOOTH",
"678 572 OFFCURVE",
"565 710 OFFCURVE",
"357 710 CURVE SMOOTH",
"148 710 OFFCURVE",
"37 572 OFFCURVE",
"37 350 CURVE SMOOTH",
"37 127 OFFCURVE",
"148 -10 OFFCURVE",
"357 -10 CURVE SMOOTH"
);
},
{
closed = 1;
nodes = (
"202 27 OFFCURVE",
"130 163 OFFCURVE",
"130 350 CURVE SMOOTH",
"130 536 OFFCURVE",
"202 673 OFFCURVE",
"357 673 CURVE SMOOTH",
"512 673 OFFCURVE",
"585 536 OFFCURVE",
"585 350 CURVE SMOOTH",
"585 163 OFFCURVE",
"512 27 OFFCURVE",
"357 27 CURVE SMOOTH"
);
},
{
closed = 1;
nodes = (
"618 698 LINE",
"586 720 LINE",
"79 -8 LINE",
"109 -30 LINE"
);
}
);
width = 715;
}
);
leftKerningGroup = O;
note = Oslash;
rightKerningGroup = O;
unicode = 00D8;
},
{
glyphname = Oslashacute;
lastChange = "2015-11-28 06:40:24 +0000";
layers = (
{
layerId = "100B1594-ACEA-4BEF-8FE3-15A73D27750B";
name = Regular;
paths = (
{
closed = 1;
nodes = (
"565 -10 OFFCURVE",
"678 127 OFFCURVE",
"678 350 CURVE SMOOTH",
"678 572 OFFCURVE",
"565 710 OFFCURVE",
"357 710 CURVE SMOOTH",
"148 710 OFFCURVE",
"37 572 OFFCURVE",
"37 350 CURVE SMOOTH",
"37 127 OFFCURVE",
"148 -10 OFFCURVE",
"357 -10 CURVE SMOOTH"
);
},
{
closed = 1;
nodes = (
"202 27 OFFCURVE",
"130 163 OFFCURVE",
"130 350 CURVE SMOOTH",
"130 536 OFFCURVE",
"202 673 OFFCURVE",
"357 673 CURVE SMOOTH",
"512 673 OFFCURVE",
"585 536 OFFCURVE",
"585 350 CURVE SMOOTH",
"585 163 OFFCURVE",
"512 27 OFFCURVE",
"357 27 CURVE SMOOTH"
);
},
{
closed = 1;
nodes = (
"434 868 LINE SMOOTH",
"455 881 OFFCURVE",
"466 895 OFFCURVE",
"466 911 CURVE SMOOTH",
"466 924 OFFCURVE",
"456 938 OFFCURVE",
"435 938 CURVE SMOOTH",
"413 938 OFFCURVE",
"397 922 OFFCURVE",
"390 915 CURVE",
"276 809 LINE",
"292 786 LINE"
);
},
{
closed = 1;
nodes = (
"618 698 LINE",
"586 720 LINE",
"79 -8 LINE",
"109 -30 LINE"
);
}
);
width = 715;
}
);
leftKerningGroup = O;
note = Oslashacute;
rightKerningGroup = O;
unicode = 01FE;
},
{
glyphname = Otilde;
lastChange = "2015-10-01 16:44:41 +0000";
layers = (
{
layerId = "100B1594-ACEA-4BEF-8FE3-15A73D27750B";
name = Regular;
paths = (
{
closed = 1;
nodes = (
"565 -10 OFFCURVE",
"678 127 OFFCURVE",
"678 350 CURVE SMOOTH",
"678 572 OFFCURVE",
"565 710 OFFCURVE",
"357 710 CURVE SMOOTH",
"148 710 OFFCURVE",
"37 572 OFFCURVE",
"37 350 CURVE SMOOTH",
"37 127 OFFCURVE",
"148 -10 OFFCURVE",
"357 -10 CURVE SMOOTH"
);
},
{
closed = 1;
nodes = (
"202 27 OFFCURVE",
"130 163 OFFCURVE",
"130 350 CURVE SMOOTH",
"130 536 OFFCURVE",
"202 673 OFFCURVE",
"357 673 CURVE SMOOTH",
"512 673 OFFCURVE",
"585 536 OFFCURVE",
"585 350 CURVE SMOOTH",
"585 163 OFFCURVE",
"512 27 OFFCURVE",
"357 27 CURVE SMOOTH"
);
},
{
closed = 1;
nodes = (
"219 786 LINE",
"227 821 OFFCURVE",
"251 843 OFFCURVE",
"282 843 CURVE SMOOTH",
"322 843 OFFCURVE",
"378 787 OFFCURVE",
"428 787 CURVE SMOOTH",
"487 787 OFFCURVE",
"518 828 OFFCURVE",
"527 891 CURVE",
"495 891 LINE",
"485 848 OFFCURVE",
"459 831 OFFCURVE",
"430 831 CURVE SMOOTH",
"389 831 OFFCURVE",
"342 886 OFFCURVE",
"284 886 CURVE SMOOTH",
"232 886 OFFCURVE",
"196 855 OFFCURVE",
"186 786 CURVE"
);
}
);
width = 715;
}
);
leftKerningGroup = O;
note = Otilde;
rightKerningGroup = O;
unicode = 00D5;
},
{
glyphname = OE;
lastChange = "2015-10-01 16:44:42 +0000";
layers = (
{
layerId = "100B1594-ACEA-4BEF-8FE3-15A73D27750B";
name = Regular;
paths = (
{
closed = 1;
nodes = (
"415 -10 OFFCURVE",
"468 6 OFFCURVE",
"512 44 CURVE",
"512 0 LINE",
"940 0 LINE",
"954 144 LINE",
"933 144 LINE",
"920 125 OFFCURVE",
"898 65 OFFCURVE",
"895 35 CURVE",
"605 35 LINE",
"605 341 LINE",
"814 341 LINE",
"816 324 OFFCURVE",
"822 284 OFFCURVE",
"832 258 CURVE",
"848 258 LINE",
"848 460 LINE",
"832 460 LINE",
"822 436 OFFCURVE",
"816 395 OFFCURVE",
"814 377 CURVE",
"605 377 LINE",
"605 663 LINE",
"892 663 LINE",
"894 637 OFFCURVE",
"908 574 OFFCURVE",
"919 554 CURVE",
"941 554 LINE",
"941 700 LINE",
"512 700 LINE",
"512 653 LINE",
"471 689 OFFCURVE",
"415 710 OFFCURVE",
"344 710 CURVE SMOOTH",
"135 710 OFFCURVE",
"37 552 OFFCURVE",
"37 350 CURVE SMOOTH",
"37 146 OFFCURVE",
"135 -10 OFFCURVE",
"344 -10 CURVE SMOOTH"
);
},
{
closed = 1;
nodes = (
"203 27 OFFCURVE",
"131 163 OFFCURVE",
"131 350 CURVE SMOOTH",
"131 536 OFFCURVE",
"203 673 OFFCURVE",
"357 673 CURVE SMOOTH",
"424 673 OFFCURVE",
"479 641 OFFCURVE",
"512 598 CURVE",
"512 100 LINE",
"476 55 OFFCURVE",
"424 27 OFFCURVE",
"357 27 CURVE SMOOTH"
);
}
);
width = 1002;
}
);
note = OE;
unicode = 0152;
},
{
glyphname = P;
lastChange = "2015-10-01 16:44:41 +0000";
layers = (
{
layerId = "100B1594-ACEA-4BEF-8FE3-15A73D27750B";
name = Regular;
paths = (
{
closed = 1;
nodes = (
"291 0 LINE",
"291 11 LINE",
"266 19 OFFCURVE",
"236 26 OFFCURVE",
"210 30 CURVE",
"210 277 LINE",
"361 277 LINE SMOOTH",
"512 277 OFFCURVE",
"578 371 OFFCURVE",
"578 492 CURVE SMOOTH",
"578 620 OFFCURVE",
"516 700 OFFCURVE",
"336 700 CURVE SMOOTH",
"38 700 LINE",
"38 688 LINE",
"64 679 OFFCURVE",
"91 673 OFFCURVE",
"117 669 CURVE",
"117 30 LINE",
"99 28 OFFCURVE",
"62 20 OFFCURVE",
"36 12 CURVE",
"36 0 LINE"
);
},
{
closed = 1;
nodes = (
"210 663 LINE",
"341 663 LINE SMOOTH",
"443 663 OFFCURVE",
"487 595 OFFCURVE",
"487 493 CURVE SMOOTH",
"487 393 OFFCURVE",
"445 312 OFFCURVE",
"341 312 CURVE SMOOTH",
"210 312 LINE"
);
}
);
width = 609;
}
);
note = P;
unicode = 0050;
},
{
glyphname = Thorn;
lastChange = "2015-11-28 06:40:34 +0000";
layers = (
{
layerId = "100B1594-ACEA-4BEF-8FE3-15A73D27750B";
name = Regular;
paths = (
{
closed = 1;
nodes = (
"291 0 LINE",
"291 11 LINE",
"266 19 OFFCURVE",
"237 26 OFFCURVE",
"210 30 CURVE",
"210 140 LINE",
"362 140 LINE SMOOTH",
"512 140 OFFCURVE",
"579 234 OFFCURVE",
"579 355 CURVE SMOOTH",
"579 473 OFFCURVE",
"521 562 OFFCURVE",
"361 562 CURVE SMOOTH",
"210 562 LINE",
"210 700 LINE",
"38 700 LINE",
"38 688 LINE",
"65 679 OFFCURVE",
"91 673 OFFCURVE",
"118 669 CURVE",
"118 30 LINE",
"100 28 OFFCURVE",
"63 20 OFFCURVE",
"36 12 CURVE",
"36 0 LINE"
);
},
{
closed = 1;
nodes = (
"210 527 LINE",
"338 527 LINE SMOOTH",
"443 527 OFFCURVE",
"487 460 OFFCURVE",
"487 356 CURVE SMOOTH",
"487 256 OFFCURVE",
"446 175 OFFCURVE",
"341 175 CURVE SMOOTH",
"210 175 LINE"
);
}
);
width = 609;
}
);
note = Thorn;
unicode = 00DE;
},
{
glyphname = Q;
lastChange = "2015-11-28 06:40:38 +0000";
layers = (
{
layerId = "100B1594-ACEA-4BEF-8FE3-15A73D27750B";
name = Regular;
paths = (
{
closed = 1;
nodes = (
"565 -10 OFFCURVE",
"678 127 OFFCURVE",
"678 350 CURVE SMOOTH",
"678 572 OFFCURVE",
"565 710 OFFCURVE",
"357 710 CURVE SMOOTH",
"148 710 OFFCURVE",
"37 572 OFFCURVE",
"37 350 CURVE SMOOTH",
"37 127 OFFCURVE",
"148 -10 OFFCURVE",
"357 -10 CURVE SMOOTH"
);
},
{
closed = 1;
nodes = (
"203 27 OFFCURVE",
"130 163 OFFCURVE",
"130 350 CURVE SMOOTH",
"130 536 OFFCURVE",
"203 673 OFFCURVE",
"357 673 CURVE SMOOTH",
"511 673 OFFCURVE",
"585 536 OFFCURVE",
"585 350 CURVE SMOOTH",
"585 163 OFFCURVE",
"511 27 OFFCURVE",
"357 27 CURVE SMOOTH"
);
},
{
closed = 1;
nodes = (
"591 -127 LINE",
"488 -118 OFFCURVE",
"425 -66 OFFCURVE",
"417 10 CURVE",
"327 10 LINE",
"340 -83 OFFCURVE",
"426 -146 OFFCURVE",
"591 -159 CURVE"
);
}
);
width = 715;
}
);
leftKerningGroup = O;
note = Q;
rightKerningGroup = O;
unicode = 0051;
},
{
glyphname = R;
lastChange = "2015-11-28 06:40:42 +0000";
layers = (
{
layerId = "100B1594-ACEA-4BEF-8FE3-15A73D27750B";
name = Regular;
paths = (
{
closed = 1;
nodes = (
"295 0 LINE",
"295 11 LINE",
"269 19 OFFCURVE",
"240 26 OFFCURVE",
"214 30 CURVE",
"214 300 LINE",
"371 300 LINE SMOOTH",
"513 300 OFFCURVE",
"586 378 OFFCURVE",
"586 502 CURVE SMOOTH",
"586 620 OFFCURVE",
"531 700 OFFCURVE",
"371 700 CURVE SMOOTH",
"42 700 LINE",
"42 688 LINE",
"68 679 OFFCURVE",
"94 673 OFFCURVE",
"121 669 CURVE",
"121 30 LINE",
"103 28 OFFCURVE",
"65 20 OFFCURVE",
"40 12 CURVE",
"40 0 LINE"
);
},
{
closed = 1;
nodes = (
"214 663 LINE",
"345 663 LINE SMOOTH",
"450 663 OFFCURVE",
"494 605 OFFCURVE",
"494 503 CURVE SMOOTH",
"494 403 OFFCURVE",
"451 336 OFFCURVE",
"345 336 CURVE SMOOTH",
"214 336 LINE"
);
},
{
closed = 1;
nodes = (
"643 0 LINE",
"643 12 LINE",
"623 20 OFFCURVE",
"592 26 OFFCURVE",
"570 30 CURVE",
"411 310 LINE",
"328 310 LINE",
"497 0 LINE"
);
}
);
width = 668;
}
);
note = R;
rightKerningGroup = R;
unicode = 0052;
},
{
glyphname = Racute;
lastChange = "2015-11-28 06:40:46 +0000";
layers = (
{
layerId = "100B1594-ACEA-4BEF-8FE3-15A73D27750B";
name = Regular;
paths = (
{
closed = 1;
nodes = (
"295 0 LINE",
"295 11 LINE",
"269 19 OFFCURVE",
"240 26 OFFCURVE",
"214 30 CURVE",
"214 300 LINE",
"371 300 LINE SMOOTH",
"513 300 OFFCURVE",
"586 378 OFFCURVE",
"586 502 CURVE SMOOTH",
"586 620 OFFCURVE",
"531 700 OFFCURVE",
"371 700 CURVE SMOOTH",
"42 700 LINE",
"42 688 LINE",
"68 679 OFFCURVE",
"94 673 OFFCURVE",
"121 669 CURVE",
"121 30 LINE",
"103 28 OFFCURVE",
"65 20 OFFCURVE",
"40 12 CURVE",
"40 0 LINE"
);
},
{
closed = 1;
nodes = (
"214 663 LINE",
"345 663 LINE SMOOTH",
"450 663 OFFCURVE",
"494 605 OFFCURVE",
"494 503 CURVE SMOOTH",
"494 403 OFFCURVE",
"451 336 OFFCURVE",
"345 336 CURVE SMOOTH",
"214 336 LINE"
);
},
{
closed = 1;
nodes = (
"643 0 LINE",
"643 12 LINE",
"623 20 OFFCURVE",
"592 26 OFFCURVE",
"570 30 CURVE",
"411 310 LINE",
"328 310 LINE",
"497 0 LINE"
);
},
{
closed = 1;
nodes = (
"397 868 LINE SMOOTH",
"418 881 OFFCURVE",
"429 895 OFFCURVE",
"429 911 CURVE SMOOTH",
"429 924 OFFCURVE",
"419 938 OFFCURVE",
"398 938 CURVE SMOOTH",
"376 938 OFFCURVE",
"360 922 OFFCURVE",
"353 915 CURVE",
"239 809 LINE",
"255 786 LINE"
);
}
);
width = 668;
}
);
note = Racute;
rightKerningGroup = R;
unicode = 0154;
},
{
glyphname = Rcaron;
lastChange = "2015-11-28 06:40:50 +0000";
layers = (
{
layerId = "100B1594-ACEA-4BEF-8FE3-15A73D27750B";
name = Regular;
paths = (
{
closed = 1;
nodes = (
"295 0 LINE",
"295 11 LINE",
"269 19 OFFCURVE",
"240 26 OFFCURVE",
"214 30 CURVE",
"214 300 LINE",
"371 300 LINE SMOOTH",
"513 300 OFFCURVE",
"586 378 OFFCURVE",
"586 502 CURVE SMOOTH",
"586 620 OFFCURVE",
"531 700 OFFCURVE",
"371 700 CURVE SMOOTH",
"42 700 LINE",
"42 688 LINE",
"68 679 OFFCURVE",
"94 673 OFFCURVE",
"121 669 CURVE",
"121 30 LINE",
"103 28 OFFCURVE",
"65 20 OFFCURVE",
"40 12 CURVE",
"40 0 LINE"
);
},
{
closed = 1;
nodes = (
"214 663 LINE",
"345 663 LINE SMOOTH",
"450 663 OFFCURVE",
"494 605 OFFCURVE",
"494 503 CURVE SMOOTH",
"494 403 OFFCURVE",
"451 336 OFFCURVE",
"345 336 CURVE SMOOTH",
"214 336 LINE"
);
},
{
closed = 1;
nodes = (
"643 0 LINE",
"643 12 LINE",
"623 20 OFFCURVE",
"592 26 OFFCURVE",
"570 30 CURVE",
"411 310 LINE",
"328 310 LINE",
"497 0 LINE"
);
},
{
closed = 1;
nodes = (
"350 786 LINE",
"379 827 OFFCURVE",
"440 882 OFFCURVE",
"481 909 CURVE",
"443 941 LINE",
"405 913 OFFCURVE",
"357 868 OFFCURVE",
"331 832 CURVE",
"326 832 LINE",
"300 868 OFFCURVE",
"251 913 OFFCURVE",
"213 941 CURVE",
"176 909 LINE",
"216 882 OFFCURVE",
"278 827 OFFCURVE",
"307 786 CURVE"
);
}
);
width = 668;
}
);
note = Rcaron;
rightKerningGroup = R;
unicode = 0158;
},
{
glyphname = Rcommaaccent;
lastChange = "2015-11-28 06:40:54 +0000";
layers = (
{
layerId = "100B1594-ACEA-4BEF-8FE3-15A73D27750B";
name = Regular;
paths = (
{
closed = 1;
nodes = (
"295 0 LINE",
"295 11 LINE",
"269 19 OFFCURVE",
"240 26 OFFCURVE",
"214 30 CURVE",
"214 300 LINE",
"371 300 LINE SMOOTH",
"513 300 OFFCURVE",
"586 378 OFFCURVE",
"586 502 CURVE SMOOTH",
"586 620 OFFCURVE",
"531 700 OFFCURVE",
"371 700 CURVE SMOOTH",
"42 700 LINE",
"42 688 LINE",
"68 679 OFFCURVE",
"94 673 OFFCURVE",
"121 669 CURVE",
"121 30 LINE",
"103 28 OFFCURVE",
"65 20 OFFCURVE",
"40 12 CURVE",
"40 0 LINE"
);
},
{
closed = 1;
nodes = (
"214 663 LINE",
"345 663 LINE SMOOTH",
"450 663 OFFCURVE",
"494 605 OFFCURVE",
"494 503 CURVE SMOOTH",
"494 403 OFFCURVE",
"451 336 OFFCURVE",
"345 336 CURVE SMOOTH",
"214 336 LINE"
);
},
{
closed = 1;
nodes = (
"380 -263 OFFCURVE",
"410 -190 OFFCURVE",
"410 -135 CURVE SMOOTH",
"410 -98 OFFCURVE",
"393 -69 OFFCURVE",
"350 -69 CURVE SMOOTH",
"322 -69 OFFCURVE",
"296 -86 OFFCURVE",
"296 -118 CURVE SMOOTH",
"296 -145 OFFCURVE",
"313 -162 OFFCURVE",
"336 -166 CURVE SMOOTH",
"342 -167 OFFCURVE",
"348 -167 OFFCURVE",
"355 -166 CURVE",
"351 -207 OFFCURVE",
"331 -249 OFFCURVE",
"306 -277 CURVE",
"338 -302 LINE"
);
},
{
closed = 1;
nodes = (
"643 0 LINE",
"643 12 LINE",
"623 20 OFFCURVE",
"592 26 OFFCURVE",
"570 30 CURVE",
"411 310 LINE",
"328 310 LINE",
"497 0 LINE"
);
}
);
width = 668;
}
);
note = Rcommaaccent;
rightKerningGroup = R;
unicode = 0156;
},
{
glyphname = Rdotbelow;
lastChange = "2015-11-28 06:40:57 +0000";
layers = (
{
layerId = "100B1594-ACEA-4BEF-8FE3-15A73D27750B";
name = Regular;
paths = (
{
closed = 1;
nodes = (
"295 0 LINE",
"295 11 LINE",
"269 19 OFFCURVE",
"240 26 OFFCURVE",
"214 30 CURVE",
"214 300 LINE",
"371 300 LINE SMOOTH",
"513 300 OFFCURVE",
"586 378 OFFCURVE",
"586 502 CURVE SMOOTH",
"586 620 OFFCURVE",
"531 700 OFFCURVE",
"371 700 CURVE SMOOTH",
"42 700 LINE",
"42 688 LINE",
"68 679 OFFCURVE",
"94 673 OFFCURVE",
"121 669 CURVE",
"121 30 LINE",
"103 28 OFFCURVE",
"65 20 OFFCURVE",
"40 12 CURVE",
"40 0 LINE"
);
},
{
closed = 1;
nodes = (
"214 663 LINE",
"345 663 LINE SMOOTH",
"450 663 OFFCURVE",
"494 605 OFFCURVE",
"494 503 CURVE SMOOTH",
"494 403 OFFCURVE",
"451 336 OFFCURVE",
"345 336 CURVE SMOOTH",
"214 336 LINE"
);
},
{
closed = 1;
nodes = (
"372 -151 OFFCURVE",
"390 -132 OFFCURVE",
"390 -106 CURVE SMOOTH",
"390 -78 OFFCURVE",
"372 -59 OFFCURVE",
"345 -59 CURVE SMOOTH",
"318 -59 OFFCURVE",
"300 -78 OFFCURVE",
"300 -106 CURVE SMOOTH",
"300 -132 OFFCURVE",
"318 -151 OFFCURVE",
"345 -151 CURVE SMOOTH"
);
},
{
closed = 1;
nodes = (
"643 0 LINE",
"643 12 LINE",
"623 20 OFFCURVE",
"592 26 OFFCURVE",
"570 30 CURVE",
"411 310 LINE",
"328 310 LINE",
"497 0 LINE"
);
}
);
width = 668;
}
);
note = Rdotbelow;
rightKerningGroup = R;
unicode = 1E5A;
},
{
glyphname = Rdotbelowmacron;
lastChange = "2015-11-28 06:41:01 +0000";
layers = (
{
layerId = "100B1594-ACEA-4BEF-8FE3-15A73D27750B";
name = Regular;
paths = (
{
closed = 1;
nodes = (
"295 0 LINE",
"295 11 LINE",
"269 19 OFFCURVE",
"240 26 OFFCURVE",
"214 30 CURVE",
"214 300 LINE",
"371 300 LINE SMOOTH",
"513 300 OFFCURVE",
"586 378 OFFCURVE",
"586 502 CURVE SMOOTH",
"586 620 OFFCURVE",
"531 700 OFFCURVE",
"371 700 CURVE SMOOTH",
"42 700 LINE",
"42 688 LINE",
"68 679 OFFCURVE",
"94 673 OFFCURVE",
"121 669 CURVE",
"121 30 LINE",
"103 28 OFFCURVE",
"65 20 OFFCURVE",
"40 12 CURVE",
"40 0 LINE"
);
},
{
closed = 1;
nodes = (
"214 663 LINE",
"345 663 LINE SMOOTH",
"450 663 OFFCURVE",
"494 605 OFFCURVE",
"494 503 CURVE SMOOTH",
"494 403 OFFCURVE",
"451 336 OFFCURVE",
"345 336 CURVE SMOOTH",
"214 336 LINE"
);
},
{
closed = 1;
nodes = (
"373 -151 OFFCURVE",
"391 -132 OFFCURVE",
"391 -106 CURVE SMOOTH",
"391 -78 OFFCURVE",
"373 -59 OFFCURVE",
"345 -59 CURVE SMOOTH",
"319 -59 OFFCURVE",
"301 -78 OFFCURVE",
"301 -106 CURVE SMOOTH",
"301 -132 OFFCURVE",
"319 -151 OFFCURVE",
"345 -151 CURVE SMOOTH"
);
},
{
closed = 1;
nodes = (
"643 0 LINE",
"643 12 LINE",
"623 20 OFFCURVE",
"592 26 OFFCURVE",
"570 30 CURVE",
"411 310 LINE",
"328 310 LINE",
"497 0 LINE"
);
},
{
closed = 1;
nodes = (
"474 785 LINE",
"474 820 LINE",
"120 820 LINE",
"120 785 LINE"
);
}
);
width = 668;
}
);
note = Rdotbelowmacron;
rightKerningGroup = R;
unicode = 1E5C;
},
{
glyphname = Rlinebelow;
lastChange = "2015-11-28 06:41:04 +0000";
layers = (
{
layerId = "100B1594-ACEA-4BEF-8FE3-15A73D27750B";
name = Regular;
paths = (
{
closed = 1;
nodes = (
"295 0 LINE",
"295 11 LINE",
"269 19 OFFCURVE",
"240 26 OFFCURVE",
"214 30 CURVE",
"214 300 LINE",
"371 300 LINE SMOOTH",
"513 300 OFFCURVE",
"586 378 OFFCURVE",
"586 502 CURVE SMOOTH",
"586 620 OFFCURVE",
"531 700 OFFCURVE",
"371 700 CURVE SMOOTH",
"42 700 LINE",
"42 688 LINE",
"68 679 OFFCURVE",
"94 673 OFFCURVE",
"121 669 CURVE",
"121 30 LINE",
"103 28 OFFCURVE",
"65 20 OFFCURVE",
"40 12 CURVE",
"40 0 LINE"
);
},
{
closed = 1;
nodes = (
"214 663 LINE",
"345 663 LINE SMOOTH",
"450 663 OFFCURVE",
"494 605 OFFCURVE",
"494 503 CURVE SMOOTH",
"494 403 OFFCURVE",
"451 336 OFFCURVE",
"345 336 CURVE SMOOTH",
"214 336 LINE"
);
},
{
closed = 1;
nodes = (
"497 -104 LINE",
"497 -69 LINE",
"164 -69 LINE",
"164 -104 LINE"
);
},
{
closed = 1;
nodes = (
"643 0 LINE",
"643 12 LINE",
"623 20 OFFCURVE",
"592 26 OFFCURVE",
"570 30 CURVE",
"411 310 LINE",
"328 310 LINE",
"497 0 LINE"
);
}
);
width = 668;
}
);
note = Rlinebelow;
rightKerningGroup = R;
unicode = 1E5E;
},
{
glyphname = S;
lastChange = "2015-10-01 16:44:40 +0000";
layers = (
{
layerId = "100B1594-ACEA-4BEF-8FE3-15A73D27750B";
name = Regular;
paths = (
{
closed = 1;
nodes = (
"406 -10 OFFCURVE",
"510 63 OFFCURVE",
"510 184 CURVE SMOOTH",
"510 432 OFFCURVE",
"140 396 OFFCURVE",
"140 556 CURVE SMOOTH",
"140 631 OFFCURVE",
"195 673 OFFCURVE",
"302 673 CURVE SMOOTH",
"357 673 OFFCURVE",
"403 657 OFFCURVE",
"433 629 CURVE",
"436 594 OFFCURVE",
"443 547 OFFCURVE",
"452 521 CURVE",
"475 521 LINE",
"485 638 LINE",
"439 686 OFFCURVE",
"373 710 OFFCURVE",
"279 710 CURVE SMOOTH",
"140 710 OFFCURVE",
"46 655 OFFCURVE",
"46 543 CURVE SMOOTH",
"46 318 OFFCURVE",
"416 370 OFFCURVE",
"416 170 CURVE SMOOTH",
"416 75 OFFCURVE",
"333 27 OFFCURVE",
"245 27 CURVE SMOOTH",
"173 27 OFFCURVE",
"118 56 OFFCURVE",
"85 95 CURVE",
"82 129 OFFCURVE",
"77 191 OFFCURVE",
"67 218 CURVE",
"44 218 LINE",
"34 82 LINE",
"76 30 OFFCURVE",
"160 -10 OFFCURVE",
"268 -10 CURVE SMOOTH"
);
}
);
width = 545;
}
);
leftKerningGroup = S;
note = S;
rightKerningGroup = S;
unicode = 0053;
},
{
glyphname = Sacute;
lastChange = "2015-10-01 16:44:41 +0000";
layers = (
{
layerId = "100B1594-ACEA-4BEF-8FE3-15A73D27750B";
name = Regular;
paths = (
{
closed = 1;
nodes = (
"406 -10 OFFCURVE",
"510 63 OFFCURVE",
"510 184 CURVE SMOOTH",
"510 432 OFFCURVE",
"140 396 OFFCURVE",
"140 556 CURVE SMOOTH",
"140 631 OFFCURVE",
"195 673 OFFCURVE",
"302 673 CURVE SMOOTH",
"357 673 OFFCURVE",
"403 657 OFFCURVE",
"433 629 CURVE",
"436 594 OFFCURVE",
"443 547 OFFCURVE",
"452 521 CURVE",
"475 521 LINE",
"485 638 LINE",
"439 686 OFFCURVE",
"373 710 OFFCURVE",
"279 710 CURVE SMOOTH",
"140 710 OFFCURVE",
"46 655 OFFCURVE",
"46 543 CURVE SMOOTH",
"46 318 OFFCURVE",
"416 370 OFFCURVE",
"416 170 CURVE SMOOTH",
"416 75 OFFCURVE",
"333 27 OFFCURVE",
"245 27 CURVE SMOOTH",
"173 27 OFFCURVE",
"118 56 OFFCURVE",
"85 95 CURVE",
"82 129 OFFCURVE",
"77 191 OFFCURVE",
"67 218 CURVE",
"44 218 LINE",
"34 82 LINE",
"76 30 OFFCURVE",
"160 -10 OFFCURVE",
"268 -10 CURVE SMOOTH"
);
},
{
closed = 1;
nodes = (
"356 868 LINE SMOOTH",
"377 881 OFFCURVE",
"388 895 OFFCURVE",
"388 911 CURVE SMOOTH",
"388 924 OFFCURVE",
"378 938 OFFCURVE",
"357 938 CURVE SMOOTH",
"335 938 OFFCURVE",
"319 922 OFFCURVE",
"312 915 CURVE",
"198 809 LINE",
"214 786 LINE"
);
}
);
width = 545;
}
);
leftKerningGroup = S;
note = Sacute;
rightKerningGroup = S;
unicode = 015A;
},
{
glyphname = Scaron;
lastChange = "2015-10-01 16:44:42 +0000";
layers = (
{
layerId = "100B1594-ACEA-4BEF-8FE3-15A73D27750B";
name = Regular;
paths = (
{
closed = 1;
nodes = (
"406 -10 OFFCURVE",
"510 63 OFFCURVE",
"510 184 CURVE SMOOTH",
"510 432 OFFCURVE",
"140 396 OFFCURVE",
"140 556 CURVE SMOOTH",
"140 631 OFFCURVE",
"195 673 OFFCURVE",
"302 673 CURVE SMOOTH",
"357 673 OFFCURVE",
"403 657 OFFCURVE",
"433 629 CURVE",
"436 594 OFFCURVE",
"443 547 OFFCURVE",
"452 521 CURVE",
"475 521 LINE",
"485 638 LINE",
"439 686 OFFCURVE",
"373 710 OFFCURVE",
"279 710 CURVE SMOOTH",
"140 710 OFFCURVE",
"46 655 OFFCURVE",
"46 543 CURVE SMOOTH",
"46 318 OFFCURVE",
"416 370 OFFCURVE",
"416 170 CURVE SMOOTH",
"416 75 OFFCURVE",
"333 27 OFFCURVE",
"245 27 CURVE SMOOTH",
"173 27 OFFCURVE",
"118 56 OFFCURVE",
"85 95 CURVE",
"82 129 OFFCURVE",
"77 191 OFFCURVE",
"67 218 CURVE",
"44 218 LINE",
"34 82 LINE",
"76 30 OFFCURVE",
"160 -10 OFFCURVE",
"268 -10 CURVE SMOOTH"
);
},
{
closed = 1;
nodes = (
"293 786 LINE",
"322 827 OFFCURVE",
"383 882 OFFCURVE",
"424 909 CURVE",
"386 941 LINE",
"348 913 OFFCURVE",
"300 868 OFFCURVE",
"274 832 CURVE",
"269 832 LINE",
"243 868 OFFCURVE",
"194 913 OFFCURVE",
"156 941 CURVE",
"119 909 LINE",
"159 882 OFFCURVE",
"221 827 OFFCURVE",
"250 786 CURVE"
);
}
);
width = 545;
}
);
leftKerningGroup = S;
note = Scaron;
rightKerningGroup = S;
unicode = 0160;
},
{
glyphname = Scedilla;
lastChange = "2015-10-01 16:44:41 +0000";
layers = (
{
layerId = "100B1594-ACEA-4BEF-8FE3-15A73D27750B";
name = Regular;
paths = (
{
closed = 1;
nodes = (
"406 -10 OFFCURVE",
"510 63 OFFCURVE",
"510 184 CURVE SMOOTH",
"510 432 OFFCURVE",
"140 396 OFFCURVE",
"140 556 CURVE SMOOTH",
"140 631 OFFCURVE",
"195 673 OFFCURVE",
"302 673 CURVE SMOOTH",
"357 673 OFFCURVE",
"403 657 OFFCURVE",
"433 629 CURVE",
"436 594 OFFCURVE",
"443 547 OFFCURVE",
"452 521 CURVE",
"475 521 LINE",
"485 638 LINE",
"439 686 OFFCURVE",
"373 710 OFFCURVE",
"279 710 CURVE SMOOTH",
"140 710 OFFCURVE",
"46 655 OFFCURVE",
"46 543 CURVE SMOOTH",
"46 318 OFFCURVE",
"416 370 OFFCURVE",
"416 170 CURVE SMOOTH",
"416 75 OFFCURVE",
"333 27 OFFCURVE",
"245 27 CURVE SMOOTH",
"173 27 OFFCURVE",
"118 56 OFFCURVE",
"85 95 CURVE",
"82 129 OFFCURVE",
"77 191 OFFCURVE",
"67 218 CURVE",
"44 218 LINE",
"34 82 LINE",
"76 30 OFFCURVE",
"160 -10 OFFCURVE",
"268 -10 CURVE SMOOTH"
);
},
{
closed = 1;
nodes = (
"321 -219 OFFCURVE",
"374 -191 OFFCURVE",
"374 -132 CURVE SMOOTH",
"374 -86 OFFCURVE",
"334 -65 OFFCURVE",
"268 -65 CURVE",
"304 12 LINE",
"259 12 LINE",
"218 -69 LINE",
"240 -97 LINE",
"247 -96 OFFCURVE",
"256 -95 OFFCURVE",
"265 -95 CURVE SMOOTH",
"292 -95 OFFCURVE",
"324 -104 OFFCURVE",
"324 -132 CURVE SMOOTH",
"324 -169 OFFCURVE",
"292 -184 OFFCURVE",
"249 -184 CURVE SMOOTH",
"228 -184 OFFCURVE",
"205 -180 OFFCURVE",
"186 -172 CURVE",
"170 -201 LINE",
"194 -213 OFFCURVE",
"226 -219 OFFCURVE",
"254 -219 CURVE SMOOTH"
);
}
);
width = 545;
}
);
leftKerningGroup = S;
note = Scedilla;
rightKerningGroup = S;
unicode = 015E;
},
{
glyphname = Scircumflex;
lastChange = "2015-10-01 16:44:42 +0000";
layers = (
{
layerId = "100B1594-ACEA-4BEF-8FE3-15A73D27750B";
name = Regular;
paths = (
{
closed = 1;
nodes = (
"406 -10 OFFCURVE",
"510 63 OFFCURVE",
"510 184 CURVE SMOOTH",
"510 432 OFFCURVE",
"140 396 OFFCURVE",
"140 556 CURVE SMOOTH",
"140 631 OFFCURVE",
"195 673 OFFCURVE",
"302 673 CURVE SMOOTH",
"357 673 OFFCURVE",
"403 657 OFFCURVE",
"433 629 CURVE",
"436 594 OFFCURVE",
"443 547 OFFCURVE",
"452 521 CURVE",
"475 521 LINE",
"485 638 LINE",
"439 686 OFFCURVE",
"373 710 OFFCURVE",
"279 710 CURVE SMOOTH",
"140 710 OFFCURVE",
"46 655 OFFCURVE",
"46 543 CURVE SMOOTH",
"46 318 OFFCURVE",
"416 370 OFFCURVE",
"416 170 CURVE SMOOTH",
"416 75 OFFCURVE",
"333 27 OFFCURVE",
"245 27 CURVE SMOOTH",
"173 27 OFFCURVE",
"118 56 OFFCURVE",
"85 95 CURVE",
"82 129 OFFCURVE",
"77 191 OFFCURVE",
"67 218 CURVE",
"44 218 LINE",
"34 82 LINE",
"76 30 OFFCURVE",
"160 -10 OFFCURVE",
"268 -10 CURVE SMOOTH"
);
},
{
closed = 1;
nodes = (
"194 808 OFFCURVE",
"243 853 OFFCURVE",
"269 889 CURVE",
"274 889 LINE",
"300 853 OFFCURVE",
"348 808 OFFCURVE",
"386 780 CURVE",
"424 812 LINE",
"383 839 OFFCURVE",
"322 894 OFFCURVE",
"293 934 CURVE",
"250 934 LINE",
"221 894 OFFCURVE",
"159 839 OFFCURVE",
"119 812 CURVE",
"156 780 LINE"
);
}
);
width = 545;
}
);
leftKerningGroup = S;
note = Scircumflex;
rightKerningGroup = S;
unicode = 015C;
},
{
glyphname = Scommaaccent;
lastChange = "2015-10-01 16:44:41 +0000";
layers = (
{
layerId = "100B1594-ACEA-4BEF-8FE3-15A73D27750B";
name = Regular;
paths = (
{
closed = 1;
nodes = (
"406 -10 OFFCURVE",
"510 63 OFFCURVE",
"510 184 CURVE SMOOTH",
"510 432 OFFCURVE",
"140 396 OFFCURVE",
"140 556 CURVE SMOOTH",
"140 631 OFFCURVE",
"195 673 OFFCURVE",
"302 673 CURVE SMOOTH",
"357 673 OFFCURVE",
"403 657 OFFCURVE",
"433 629 CURVE",
"436 594 OFFCURVE",
"443 547 OFFCURVE",
"452 521 CURVE",
"475 521 LINE",
"485 638 LINE",
"439 686 OFFCURVE",
"373 710 OFFCURVE",
"279 710 CURVE SMOOTH",
"140 710 OFFCURVE",
"46 655 OFFCURVE",
"46 543 CURVE SMOOTH",
"46 318 OFFCURVE",
"416 370 OFFCURVE",
"416 170 CURVE SMOOTH",
"416 75 OFFCURVE",
"333 27 OFFCURVE",
"245 27 CURVE SMOOTH",
"173 27 OFFCURVE",
"118 56 OFFCURVE",
"85 95 CURVE",
"82 129 OFFCURVE",
"77 191 OFFCURVE",
"67 218 CURVE",
"44 218 LINE",
"34 82 LINE",
"76 30 OFFCURVE",
"160 -10 OFFCURVE",
"268 -10 CURVE SMOOTH"
);
},
{
closed = 1;
nodes = (
"300 -252 OFFCURVE",
"332 -178 OFFCURVE",
"332 -123 CURVE SMOOTH",
"332 -85 OFFCURVE",
"312 -54 OFFCURVE",
"269 -54 CURVE SMOOTH",
"239 -54 OFFCURVE",
"214 -75 OFFCURVE",
"214 -107 CURVE SMOOTH",
"214 -136 OFFCURVE",
"238 -157 OFFCURVE",
"264 -157 CURVE SMOOTH",
"267 -157 OFFCURVE",
"271 -157 OFFCURVE",
"275 -155 CURVE",
"271 -197 OFFCURVE",
"249 -239 OFFCURVE",
"225 -267 CURVE",
"258 -292 LINE"
);
}
);
width = 545;
}
);
leftKerningGroup = S;
note = Scommaaccent;
rightKerningGroup = S;
unicode = 0218;
},
{
glyphname = Sdotaccent;
lastChange = "2015-10-01 16:44:41 +0000";
layers = (
{
layerId = "100B1594-ACEA-4BEF-8FE3-15A73D27750B";
name = Regular;
paths = (
{
closed = 1;
nodes = (
"406 -10 OFFCURVE",
"510 63 OFFCURVE",
"510 184 CURVE SMOOTH",
"510 432 OFFCURVE",
"140 396 OFFCURVE",
"140 556 CURVE SMOOTH",
"140 631 OFFCURVE",
"195 673 OFFCURVE",
"302 673 CURVE SMOOTH",
"357 673 OFFCURVE",
"403 657 OFFCURVE",
"433 629 CURVE",
"436 594 OFFCURVE",
"443 547 OFFCURVE",
"452 521 CURVE",
"475 521 LINE",
"485 638 LINE",
"439 686 OFFCURVE",
"373 710 OFFCURVE",
"279 710 CURVE SMOOTH",
"140 710 OFFCURVE",
"46 655 OFFCURVE",
"46 543 CURVE SMOOTH",
"46 318 OFFCURVE",
"416 370 OFFCURVE",
"416 170 CURVE SMOOTH",
"416 75 OFFCURVE",
"333 27 OFFCURVE",
"245 27 CURVE SMOOTH",
"173 27 OFFCURVE",
"118 56 OFFCURVE",
"85 95 CURVE",
"82 129 OFFCURVE",
"77 191 OFFCURVE",
"67 218 CURVE",
"44 218 LINE",
"34 82 LINE",
"76 30 OFFCURVE",
"160 -10 OFFCURVE",
"268 -10 CURVE SMOOTH"
);
},
{
closed = 1;
nodes = (
"308 785 OFFCURVE",
"326 804 OFFCURVE",
"326 830 CURVE SMOOTH",
"326 858 OFFCURVE",
"308 877 OFFCURVE",
"282 877 CURVE SMOOTH",
"254 877 OFFCURVE",
"237 858 OFFCURVE",
"237 830 CURVE SMOOTH",
"237 804 OFFCURVE",
"254 785 OFFCURVE",
"282 785 CURVE SMOOTH"
);
}
);
width = 545;
}
);
leftKerningGroup = S;
note = Sdotaccent;
rightKerningGroup = S;
unicode = 1E60;
},
{
glyphname = Sdotbelow;
lastChange = "2015-10-01 16:44:41 +0000";
layers = (
{
layerId = "100B1594-ACEA-4BEF-8FE3-15A73D27750B";
name = Regular;
paths = (
{
closed = 1;
nodes = (
"406 -10 OFFCURVE",
"510 63 OFFCURVE",
"510 184 CURVE SMOOTH",
"510 432 OFFCURVE",
"140 396 OFFCURVE",
"140 556 CURVE SMOOTH",
"140 631 OFFCURVE",
"195 673 OFFCURVE",
"302 673 CURVE SMOOTH",
"357 673 OFFCURVE",
"403 657 OFFCURVE",
"433 629 CURVE",
"436 594 OFFCURVE",
"443 547 OFFCURVE",
"452 521 CURVE",
"475 521 LINE",
"485 638 LINE",
"439 686 OFFCURVE",
"373 710 OFFCURVE",
"279 710 CURVE SMOOTH",
"140 710 OFFCURVE",
"46 655 OFFCURVE",
"46 543 CURVE SMOOTH",
"46 318 OFFCURVE",
"416 370 OFFCURVE",
"416 170 CURVE SMOOTH",
"416 75 OFFCURVE",
"333 27 OFFCURVE",
"245 27 CURVE SMOOTH",
"173 27 OFFCURVE",
"118 56 OFFCURVE",
"85 95 CURVE",
"82 129 OFFCURVE",
"77 191 OFFCURVE",
"67 218 CURVE",
"44 218 LINE",
"34 82 LINE",
"76 30 OFFCURVE",
"160 -10 OFFCURVE",
"268 -10 CURVE SMOOTH"
);
},
{
closed = 1;
nodes = (
"296 -151 OFFCURVE",
"314 -132 OFFCURVE",
"314 -106 CURVE SMOOTH",
"314 -78 OFFCURVE",
"296 -59 OFFCURVE",
"269 -59 CURVE SMOOTH",
"242 -59 OFFCURVE",
"224 -78 OFFCURVE",
"224 -106 CURVE SMOOTH",
"224 -132 OFFCURVE",
"242 -151 OFFCURVE",
"269 -151 CURVE SMOOTH"
);
}
);
width = 545;
}
);
leftKerningGroup = S;
note = Sdotbelow;
rightKerningGroup = S;
unicode = 1E62;
},
{
glyphname = Germandbls;
lastChange = "2015-10-01 16:44:41 +0000";
layers = (
{
layerId = "100B1594-ACEA-4BEF-8FE3-15A73D27750B";
name = Regular;
paths = (
{
closed = 1;
nodes = (
"600 -10 OFFCURVE",
"675 88 OFFCURVE",
"675 203 CURVE SMOOTH",
"675 313 OFFCURVE",
"588 387 OFFCURVE",
"441 397 CURVE",
"591 554 LINE",
"568 628 OFFCURVE",
"488 710 OFFCURVE",
"352 710 CURVE SMOOTH",
"174 710 OFFCURVE",
"90 617 OFFCURVE",
"90 470 CURVE SMOOTH",
"90 30 LINE",
"61 26 OFFCURVE",
"33 19 OFFCURVE",
"8 12 CURVE",
"8 0 LINE",
"240 0 LINE",
"240 11 LINE",
"228 17 OFFCURVE",
"201 26 OFFCURVE",
"181 30 CURVE",
"181 496 LINE SMOOTH",
"181 605 OFFCURVE",
"240 673 OFFCURVE",
"346 673 CURVE SMOOTH",
"433 673 OFFCURVE",
"498 629 OFFCURVE",
"521 573 CURVE",
"346 387 LINE",
"346 363 LINE",
"406 363 LINE SMOOTH",
"524 363 OFFCURVE",
"584 297 OFFCURVE",
"584 203 CURVE SMOOTH",
"584 98 OFFCURVE",
"525 25 OFFCURVE",
"419 25 CURVE SMOOTH",
"373 25 OFFCURVE",
"323 34 OFFCURVE",
"277 52 CURVE",
"277 14 LINE",
"317 -2 OFFCURVE",
"366 -10 OFFCURVE",
"423 -10 CURVE SMOOTH"
);
}
);
width = 705;
}
);
note = uni1E9E;
unicode = 1E9E;
},
{
glyphname = Schwa;
lastChange = "2015-10-01 16:44:41 +0000";
layers = (
{
layerId = "100B1594-ACEA-4BEF-8FE3-15A73D27750B";
name = Regular;
paths = (
{
closed = 1;
nodes = (
"541 -10 OFFCURVE",
"674 111 OFFCURVE",
"674 344 CURVE SMOOTH",
"674 559 OFFCURVE",
"533 710 OFFCURVE",
"310 710 CURVE SMOOTH",
"185 710 OFFCURVE",
"105 670 OFFCURVE",
"61 636 CURVE",
"66 623 OFFCURVE",
"66 619 OFFCURVE",
"72 604 CURVE",
"142 650 OFFCURVE",
"214 670 OFFCURVE",
"295 670 CURVE SMOOTH",
"487 670 OFFCURVE",
"585 509 OFFCURVE",
"585 331 CURVE SMOOTH",
"585 171 OFFCURVE",
"509 25 OFFCURVE",
"329 25 CURVE SMOOTH",
"180 25 OFFCURVE",
"124 171 OFFCURVE",
"124 300 CURVE",
"593 300 LINE",
"593 338 LINE",
"36 338 LINE",
"36 311 LINE SMOOTH",
"36 138 OFFCURVE",
"125 -10 OFFCURVE",
"334 -10 CURVE SMOOTH"
);
}
);
width = 711;
}
);
note = uni018F;
unicode = 018F;
},
{
glyphname = T;
lastChange = "2015-10-27 07:27:16 +0000";
layers = (
{
layerId = "100B1594-ACEA-4BEF-8FE3-15A73D27750B";
name = Regular;
paths = (
{
closed = 1;
nodes = (
"450 0 LINE",
"450 11 LINE",
"425 19 OFFCURVE",
"391 26 OFFCURVE",
"365 30 CURVE",
"365 663 LINE",
"550 663 LINE",
"552 637 OFFCURVE",
"566 563 OFFCURVE",
"577 543 CURVE",
"598 543 LINE",
"598 700 LINE",
"40 700 LINE",
"40 543 LINE",
"61 543 LINE",
"72 563 OFFCURVE",
"86 637 OFFCURVE",
"88 663 CURVE",
"273 663 LINE",
"273 30 LINE",
"243 25 OFFCURVE",
"213 19 OFFCURVE",
"188 12 CURVE",
"188 0 LINE"
);
}
);
width = 639;
}
);
leftKerningGroup = T;
note = T;
rightKerningGroup = T;
unicode = 0054;
},
{
glyphname = Tbar;
lastChange = "2015-10-01 16:44:41 +0000";
layers = (
{
layerId = "100B1594-ACEA-4BEF-8FE3-15A73D27750B";
name = Regular;
paths = (
{
closed = 1;
nodes = (
"450 0 LINE",
"450 11 LINE",
"425 19 OFFCURVE",
"391 26 OFFCURVE",
"365 30 CURVE",
"365 663 LINE",
"550 663 LINE",
"552 637 OFFCURVE",
"566 563 OFFCURVE",
"577 543 CURVE",
"598 543 LINE",
"598 700 LINE",
"40 700 LINE",
"40 543 LINE",
"61 543 LINE",
"72 563 OFFCURVE",
"86 637 OFFCURVE",
"88 663 CURVE",
"273 663 LINE",
"273 30 LINE",
"243 25 OFFCURVE",
"213 19 OFFCURVE",
"188 12 CURVE",
"188 0 LINE"
);
},
{
closed = 1;
nodes = (
"517 323 LINE",
"517 358 LINE",
"125 358 LINE",
"125 323 LINE"
);
}
);
width = 639;
}
);
leftKerningGroup = T;
note = Tbar;
rightKerningGroup = T;
unicode = 0166;
},
{
glyphname = Tcaron;
lastChange = "2015-10-01 16:44:41 +0000";
layers = (
{
layerId = "100B1594-ACEA-4BEF-8FE3-15A73D27750B";
name = Regular;
paths = (
{
closed = 1;
nodes = (
"450 0 LINE",
"450 11 LINE",
"425 19 OFFCURVE",
"391 26 OFFCURVE",
"365 30 CURVE",
"365 663 LINE",
"550 663 LINE",
"552 637 OFFCURVE",
"566 563 OFFCURVE",
"577 543 CURVE",
"598 543 LINE",
"598 700 LINE",
"40 700 LINE",
"40 543 LINE",
"61 543 LINE",
"72 563 OFFCURVE",
"86 637 OFFCURVE",
"88 663 CURVE",
"273 663 LINE",
"273 30 LINE",
"243 25 OFFCURVE",
"213 19 OFFCURVE",
"188 12 CURVE",
"188 0 LINE"
);
},
{
closed = 1;
nodes = (
"339 786 LINE",
"368 827 OFFCURVE",
"429 882 OFFCURVE",
"470 909 CURVE",
"432 941 LINE",
"394 913 OFFCURVE",
"346 868 OFFCURVE",
"320 832 CURVE",
"315 832 LINE",
"289 868 OFFCURVE",
"240 913 OFFCURVE",
"202 941 CURVE",
"165 909 LINE",
"205 882 OFFCURVE",
"267 827 OFFCURVE",
"296 786 CURVE"
);
}
);
width = 639;
}
);
leftKerningGroup = T;
note = Tcaron;
rightKerningGroup = T;
unicode = 0164;
},
{
glyphname = Tcedilla;
lastChange = "2015-10-01 16:44:41 +0000";
layers = (
{
layerId = "100B1594-ACEA-4BEF-8FE3-15A73D27750B";
name = Regular;
paths = (
{
closed = 1;
nodes = (
"450 0 LINE",
"450 11 LINE",
"425 19 OFFCURVE",
"391 26 OFFCURVE",
"365 30 CURVE",
"365 663 LINE",
"550 663 LINE",
"552 637 OFFCURVE",
"566 563 OFFCURVE",
"577 543 CURVE",
"598 543 LINE",
"598 700 LINE",
"40 700 LINE",
"40 543 LINE",
"61 543 LINE",
"72 563 OFFCURVE",
"86 637 OFFCURVE",
"88 663 CURVE",
"273 663 LINE",
"273 30 LINE",
"243 25 OFFCURVE",
"213 19 OFFCURVE",
"188 12 CURVE",
"188 0 LINE"
);
},
{
closed = 1;
nodes = (
"359 -219 OFFCURVE",
"412 -191 OFFCURVE",
"412 -132 CURVE SMOOTH",
"412 -92 OFFCURVE",
"379 -65 OFFCURVE",
"320 -64 CURVE SMOOTH",
"315 -64 OFFCURVE",
"310 -64 OFFCURVE",
"305 -65 CURVE",
"341 12 LINE",
"296 12 LINE",
"256 -69 LINE",
"278 -97 LINE",
"285 -96 OFFCURVE",
"294 -95 OFFCURVE",
"302 -95 CURVE SMOOTH",
"330 -95 OFFCURVE",
"362 -104 OFFCURVE",
"362 -132 CURVE SMOOTH",
"362 -169 OFFCURVE",
"329 -184 OFFCURVE",
"287 -184 CURVE SMOOTH",
"266 -184 OFFCURVE",
"242 -180 OFFCURVE",
"223 -172 CURVE",
"207 -201 LINE",
"232 -213 OFFCURVE",
"264 -219 OFFCURVE",
"292 -219 CURVE SMOOTH"
);
}
);
width = 639;
}
);
leftKerningGroup = T;
note = Tcedilla;
rightKerningGroup = T;
unicode = 0162;
},
{
glyphname = Tcommaaccent;
lastChange = "2015-10-01 16:44:41 +0000";
layers = (
{
layerId = "100B1594-ACEA-4BEF-8FE3-15A73D27750B";
name = Regular;
paths = (
{
closed = 1;
nodes = (
"450 0 LINE",
"450 11 LINE",
"425 19 OFFCURVE",
"391 26 OFFCURVE",
"365 30 CURVE",
"365 663 LINE",
"550 663 LINE",
"552 637 OFFCURVE",
"566 563 OFFCURVE",
"577 543 CURVE",
"598 543 LINE",
"598 700 LINE",
"40 700 LINE",
"40 543 LINE",
"61 543 LINE",
"72 563 OFFCURVE",
"86 637 OFFCURVE",
"88 663 CURVE",
"273 663 LINE",
"273 30 LINE",
"243 25 OFFCURVE",
"213 19 OFFCURVE",
"188 12 CURVE",
"188 0 LINE"
);
},
{
closed = 1;
nodes = (
"346 -263 OFFCURVE",
"376 -190 OFFCURVE",
"376 -135 CURVE SMOOTH",
"376 -98 OFFCURVE",
"359 -69 OFFCURVE",
"316 -69 CURVE SMOOTH",
"288 -69 OFFCURVE",
"262 -86 OFFCURVE",
"262 -118 CURVE SMOOTH",
"262 -145 OFFCURVE",
"279 -162 OFFCURVE",
"302 -166 CURVE SMOOTH",
"308 -167 OFFCURVE",
"314 -167 OFFCURVE",
"321 -166 CURVE",
"317 -207 OFFCURVE",
"297 -249 OFFCURVE",
"272 -277 CURVE",
"304 -302 LINE"
);
}
);
width = 639;
}
);
leftKerningGroup = T;
note = Tcommaaccent;
rightKerningGroup = T;
unicode = 021A;
},
{
glyphname = Tdotbelow;
lastChange = "2015-10-01 16:44:41 +0000";
layers = (
{
layerId = "100B1594-ACEA-4BEF-8FE3-15A73D27750B";
name = Regular;
paths = (
{
closed = 1;
nodes = (
"450 0 LINE",
"450 11 LINE",
"425 19 OFFCURVE",
"391 26 OFFCURVE",
"365 30 CURVE",
"365 663 LINE",
"550 663 LINE",
"552 637 OFFCURVE",
"566 563 OFFCURVE",
"577 543 CURVE",
"598 543 LINE",
"598 700 LINE",
"40 700 LINE",
"40 543 LINE",
"61 543 LINE",
"72 563 OFFCURVE",
"86 637 OFFCURVE",
"88 663 CURVE",
"273 663 LINE",
"273 30 LINE",
"243 25 OFFCURVE",
"213 19 OFFCURVE",
"188 12 CURVE",
"188 0 LINE"
);
},
{
closed = 1;
nodes = (
"345 -151 OFFCURVE",
"363 -132 OFFCURVE",
"363 -106 CURVE SMOOTH",
"363 -78 OFFCURVE",
"345 -59 OFFCURVE",
"318 -59 CURVE SMOOTH",
"291 -59 OFFCURVE",
"273 -78 OFFCURVE",
"273 -106 CURVE SMOOTH",
"273 -132 OFFCURVE",
"291 -151 OFFCURVE",
"318 -151 CURVE SMOOTH"
);
}
);
width = 639;
}
);
leftKerningGroup = T;
note = Tdotbelow;
rightKerningGroup = T;
unicode = 1E6C;
},
{
glyphname = Tlinebelow;
lastChange = "2015-10-01 16:44:41 +0000";
layers = (
{
layerId = "100B1594-ACEA-4BEF-8FE3-15A73D27750B";
name = Regular;
paths = (
{
closed = 1;
nodes = (
"450 0 LINE",
"450 11 LINE",
"425 19 OFFCURVE",
"391 26 OFFCURVE",
"365 30 CURVE",
"365 663 LINE",
"550 663 LINE",
"552 637 OFFCURVE",
"566 563 OFFCURVE",
"577 543 CURVE",
"598 543 LINE",
"598 700 LINE",
"40 700 LINE",
"40 543 LINE",
"61 543 LINE",
"72 563 OFFCURVE",
"86 637 OFFCURVE",
"88 663 CURVE",
"273 663 LINE",
"273 30 LINE",
"243 25 OFFCURVE",
"213 19 OFFCURVE",
"188 12 CURVE",
"188 0 LINE"
);
},
{
closed = 1;
nodes = (
"484 -104 LINE",
"484 -69 LINE",
"151 -69 LINE",
"151 -104 LINE"
);
}
);
width = 639;
}
);
leftKerningGroup = T;
note = Tlinebelow;
rightKerningGroup = T;
unicode = 1E6E;
},
{
glyphname = U;
lastChange = "2015-10-01 16:44:40 +0000";
layers = (
{
layerId = "100B1594-ACEA-4BEF-8FE3-15A73D27750B";
name = Regular;
paths = (
{
closed = 1;
nodes = (
"559 -10 OFFCURVE",
"650 60 OFFCURVE",
"650 213 CURVE SMOOTH",
"650 668 LINE",
"671 671 OFFCURVE",
"701 678 OFFCURVE",
"732 688 CURVE",
"732 700 LINE",
"524 700 LINE",
"524 688 LINE",
"551 679 OFFCURVE",
"578 673 OFFCURVE",
"606 670 CURVE",
"606 203 LINE SMOOTH",
"606 71 OFFCURVE",
"517 27 OFFCURVE",
"411 27 CURVE SMOOTH",
"301 27 OFFCURVE",
"211 67 OFFCURVE",
"211 203 CURVE SMOOTH",
"211 669 LINE",
"240 673 OFFCURVE",
"268 679 OFFCURVE",
"292 687 CURVE",
"292 700 LINE",
"38 700 LINE",
"38 688 LINE",
"64 679 OFFCURVE",
"92 673 OFFCURVE",
"119 669 CURVE",
"119 213 LINE SMOOTH",
"119 55 OFFCURVE",
"220 -10 OFFCURVE",
"388 -10 CURVE SMOOTH"
);
}
);
width = 770;
}
);
leftKerningGroup = U;
note = U;
rightKerningGroup = U;
unicode = 0055;
},
{
glyphname = Uacute;
lastChange = "2015-10-01 16:44:41 +0000";
layers = (
{
layerId = "100B1594-ACEA-4BEF-8FE3-15A73D27750B";
name = Regular;
paths = (
{
closed = 1;
nodes = (
"559 -10 OFFCURVE",
"650 60 OFFCURVE",
"650 213 CURVE SMOOTH",
"650 668 LINE",
"671 671 OFFCURVE",
"701 678 OFFCURVE",
"732 688 CURVE",
"732 700 LINE",
"524 700 LINE",
"524 688 LINE",
"551 679 OFFCURVE",
"578 673 OFFCURVE",
"606 670 CURVE",
"606 203 LINE SMOOTH",
"606 71 OFFCURVE",
"517 27 OFFCURVE",
"411 27 CURVE SMOOTH",
"301 27 OFFCURVE",
"211 67 OFFCURVE",
"211 203 CURVE SMOOTH",
"211 669 LINE",
"240 673 OFFCURVE",
"268 679 OFFCURVE",
"292 687 CURVE",
"292 700 LINE",
"38 700 LINE",
"38 688 LINE",
"64 679 OFFCURVE",
"92 673 OFFCURVE",
"119 669 CURVE",
"119 213 LINE SMOOTH",
"119 55 OFFCURVE",
"220 -10 OFFCURVE",
"388 -10 CURVE SMOOTH"
);
},
{
closed = 1;
nodes = (
"471 868 LINE SMOOTH",
"492 881 OFFCURVE",
"503 895 OFFCURVE",
"503 911 CURVE SMOOTH",
"503 924 OFFCURVE",
"493 938 OFFCURVE",
"472 938 CURVE SMOOTH",
"450 938 OFFCURVE",
"434 922 OFFCURVE",
"427 915 CURVE",
"313 809 LINE",
"329 786 LINE"
);
}
);
width = 770;
}
);
leftKerningGroup = U;
note = Uacute;
rightKerningGroup = U;
unicode = 00DA;
},
{
glyphname = Ubreve;
lastChange = "2015-10-01 16:44:42 +0000";
layers = (
{
layerId = "100B1594-ACEA-4BEF-8FE3-15A73D27750B";
name = Regular;
paths = (
{
closed = 1;
nodes = (
"559 -10 OFFCURVE",
"650 60 OFFCURVE",
"650 213 CURVE SMOOTH",
"650 668 LINE",
"671 671 OFFCURVE",
"701 678 OFFCURVE",
"732 688 CURVE",
"732 700 LINE",
"524 700 LINE",
"524 688 LINE",
"551 679 OFFCURVE",
"578 673 OFFCURVE",
"606 670 CURVE",
"606 203 LINE SMOOTH",
"606 71 OFFCURVE",
"517 27 OFFCURVE",
"411 27 CURVE SMOOTH",
"301 27 OFFCURVE",
"211 67 OFFCURVE",
"211 203 CURVE SMOOTH",
"211 669 LINE",
"240 673 OFFCURVE",
"268 679 OFFCURVE",
"292 687 CURVE",
"292 700 LINE",
"38 700 LINE",
"38 688 LINE",
"64 679 OFFCURVE",
"92 673 OFFCURVE",
"119 669 CURVE",
"119 213 LINE SMOOTH",
"119 55 OFFCURVE",
"220 -10 OFFCURVE",
"388 -10 CURVE SMOOTH"
);
},
{
closed = 1;
nodes = (
"474 775 OFFCURVE",
"535 814 OFFCURVE",
"545 899 CURVE",
"489 899 LINE",
"481 823 OFFCURVE",
"431 812 OFFCURVE",
"390 812 CURVE SMOOTH",
"349 812 OFFCURVE",
"298 823 OFFCURVE",
"290 899 CURVE",
"234 899 LINE",
"245 814 OFFCURVE",
"305 775 OFFCURVE",
"390 775 CURVE SMOOTH"
);
}
);
width = 770;
}
);
leftKerningGroup = U;
note = Ubreve;
rightKerningGroup = U;
unicode = 016C;
},
{
glyphname = Ucaron;
lastChange = "2015-10-01 16:44:41 +0000";
layers = (
{
layerId = "100B1594-ACEA-4BEF-8FE3-15A73D27750B";
name = Regular;
paths = (
{
closed = 1;
nodes = (
"559 -10 OFFCURVE",
"650 60 OFFCURVE",
"650 213 CURVE SMOOTH",
"650 668 LINE",
"671 671 OFFCURVE",
"701 678 OFFCURVE",
"732 688 CURVE",
"732 700 LINE",
"524 700 LINE",
"524 688 LINE",
"551 679 OFFCURVE",
"578 673 OFFCURVE",
"606 670 CURVE",
"606 203 LINE SMOOTH",
"606 71 OFFCURVE",
"517 27 OFFCURVE",
"411 27 CURVE SMOOTH",
"301 27 OFFCURVE",
"211 67 OFFCURVE",
"211 203 CURVE SMOOTH",
"211 669 LINE",
"240 673 OFFCURVE",
"268 679 OFFCURVE",
"292 687 CURVE",
"292 700 LINE",
"38 700 LINE",
"38 688 LINE",
"64 679 OFFCURVE",
"92 673 OFFCURVE",
"119 669 CURVE",
"119 213 LINE SMOOTH",
"119 55 OFFCURVE",
"220 -10 OFFCURVE",
"388 -10 CURVE SMOOTH"
);
},
{
closed = 1;
nodes = (
"404 786 LINE",
"433 827 OFFCURVE",
"494 882 OFFCURVE",
"535 909 CURVE",
"497 941 LINE",
"459 913 OFFCURVE",
"411 868 OFFCURVE",
"385 832 CURVE",
"380 832 LINE",
"354 868 OFFCURVE",
"305 913 OFFCURVE",
"267 941 CURVE",
"230 909 LINE",
"270 882 OFFCURVE",
"332 827 OFFCURVE",
"361 786 CURVE"
);
}
);
width = 770;
}
);
leftKerningGroup = U;
note = Ucaron;
rightKerningGroup = U;
unicode = 01D3;
},
{
glyphname = Ucircumflex;
lastChange = "2015-10-01 16:44:41 +0000";
layers = (
{
layerId = "100B1594-ACEA-4BEF-8FE3-15A73D27750B";
name = Regular;
paths = (
{
closed = 1;
nodes = (
"559 -10 OFFCURVE",
"650 60 OFFCURVE",
"650 213 CURVE SMOOTH",
"650 668 LINE",
"671 671 OFFCURVE",
"701 678 OFFCURVE",
"732 688 CURVE",
"732 700 LINE",
"524 700 LINE",
"524 688 LINE",
"551 679 OFFCURVE",
"578 673 OFFCURVE",
"606 670 CURVE",
"606 203 LINE SMOOTH",
"606 71 OFFCURVE",
"517 27 OFFCURVE",
"411 27 CURVE SMOOTH",
"301 27 OFFCURVE",
"211 67 OFFCURVE",
"211 203 CURVE SMOOTH",
"211 669 LINE",
"240 673 OFFCURVE",
"268 679 OFFCURVE",
"292 687 CURVE",
"292 700 LINE",
"38 700 LINE",
"38 688 LINE",
"64 679 OFFCURVE",
"92 673 OFFCURVE",
"119 669 CURVE",
"119 213 LINE SMOOTH",
"119 55 OFFCURVE",
"220 -10 OFFCURVE",
"388 -10 CURVE SMOOTH"
);
},
{
closed = 1;
nodes = (
"307 808 OFFCURVE",
"356 853 OFFCURVE",
"382 889 CURVE",
"387 889 LINE",
"413 853 OFFCURVE",
"461 808 OFFCURVE",
"499 780 CURVE",
"537 812 LINE",
"496 839 OFFCURVE",
"435 894 OFFCURVE",
"406 934 CURVE",
"363 934 LINE",
"334 894 OFFCURVE",
"272 839 OFFCURVE",
"232 812 CURVE",
"269 780 LINE"
);
}
);
width = 770;
}
);
leftKerningGroup = U;
note = Ucircumflex;
rightKerningGroup = U;
unicode = 00DB;
},
{
glyphname = Udieresis;
lastChange = "2015-10-01 16:44:41 +0000";
layers = (
{
layerId = "100B1594-ACEA-4BEF-8FE3-15A73D27750B";
name = Regular;
paths = (
{
closed = 1;
nodes = (
"559 -10 OFFCURVE",
"650 60 OFFCURVE",
"650 213 CURVE SMOOTH",
"650 668 LINE",
"671 671 OFFCURVE",
"701 678 OFFCURVE",
"732 688 CURVE",
"732 700 LINE",
"524 700 LINE",
"524 688 LINE",
"551 679 OFFCURVE",
"578 673 OFFCURVE",
"606 670 CURVE",
"606 203 LINE SMOOTH",
"606 71 OFFCURVE",
"517 27 OFFCURVE",
"411 27 CURVE SMOOTH",
"301 27 OFFCURVE",
"211 67 OFFCURVE",
"211 203 CURVE SMOOTH",
"211 669 LINE",
"240 673 OFFCURVE",
"268 679 OFFCURVE",
"292 687 CURVE",
"292 700 LINE",
"38 700 LINE",
"38 688 LINE",
"64 679 OFFCURVE",
"92 673 OFFCURVE",
"119 669 CURVE",
"119 213 LINE SMOOTH",
"119 55 OFFCURVE",
"220 -10 OFFCURVE",
"388 -10 CURVE SMOOTH"
);
},
{
closed = 1;
nodes = (
"312 785 OFFCURVE",
"330 804 OFFCURVE",
"330 830 CURVE SMOOTH",
"330 858 OFFCURVE",
"312 877 OFFCURVE",
"285 877 CURVE SMOOTH",
"259 877 OFFCURVE",
"241 858 OFFCURVE",
"241 830 CURVE SMOOTH",
"241 804 OFFCURVE",
"259 785 OFFCURVE",
"285 785 CURVE SMOOTH"
);
},
{
closed = 1;
nodes = (
"532 785 OFFCURVE",
"550 804 OFFCURVE",
"550 830 CURVE SMOOTH",
"550 858 OFFCURVE",
"532 877 OFFCURVE",
"505 877 CURVE SMOOTH",
"478 877 OFFCURVE",
"461 858 OFFCURVE",
"461 830 CURVE SMOOTH",
"461 804 OFFCURVE",
"478 785 OFFCURVE",
"505 785 CURVE SMOOTH"
);
}
);
width = 770;
}
);
leftKerningGroup = U;
note = Udieresis;
rightKerningGroup = U;
unicode = 00DC;
},
{
glyphname = Udieresisacute;
lastChange = "2015-10-01 16:44:41 +0000";
layers = (
{
layerId = "100B1594-ACEA-4BEF-8FE3-15A73D27750B";
name = Regular;
paths = (
{
closed = 1;
nodes = (
"559 -10 OFFCURVE",
"650 60 OFFCURVE",
"650 213 CURVE SMOOTH",
"650 668 LINE",
"671 671 OFFCURVE",
"701 678 OFFCURVE",
"732 688 CURVE",
"732 700 LINE",
"524 700 LINE",
"524 688 LINE",
"551 679 OFFCURVE",
"578 673 OFFCURVE",
"606 670 CURVE",
"606 203 LINE SMOOTH",
"606 71 OFFCURVE",
"517 27 OFFCURVE",
"411 27 CURVE SMOOTH",
"301 27 OFFCURVE",
"211 67 OFFCURVE",
"211 203 CURVE SMOOTH",
"211 669 LINE",
"240 673 OFFCURVE",
"268 679 OFFCURVE",
"292 687 CURVE",
"292 700 LINE",
"38 700 LINE",
"38 688 LINE",
"64 679 OFFCURVE",
"92 673 OFFCURVE",
"119 669 CURVE",
"119 213 LINE SMOOTH",
"119 55 OFFCURVE",
"220 -10 OFFCURVE",
"388 -10 CURVE SMOOTH"
);
},
{
closed = 1;
nodes = (
"316 785 OFFCURVE",
"334 803 OFFCURVE",
"334 830 CURVE SMOOTH",
"334 857 OFFCURVE",
"316 876 OFFCURVE",
"289 876 CURVE SMOOTH",
"262 876 OFFCURVE",
"245 857 OFFCURVE",
"245 830 CURVE SMOOTH",
"245 803 OFFCURVE",
"262 785 OFFCURVE",
"289 785 CURVE SMOOTH"
);
},
{
closed = 1;
nodes = (
"536 785 OFFCURVE",
"554 803 OFFCURVE",
"554 830 CURVE SMOOTH",
"554 857 OFFCURVE",
"536 876 OFFCURVE",
"509 876 CURVE SMOOTH",
"482 876 OFFCURVE",
"464 857 OFFCURVE",
"464 830 CURVE SMOOTH",
"464 803 OFFCURVE",
"482 785 OFFCURVE",
"509 785 CURVE SMOOTH"
);
},
{
closed = 1;
nodes = (
"518 974 LINE SMOOTH",
"540 986 OFFCURVE",
"551 1000 OFFCURVE",
"551 1015 CURVE SMOOTH",
"551 1030 OFFCURVE",
"539 1045 OFFCURVE",
"519 1045 CURVE SMOOTH",
"497 1045 OFFCURVE",
"481 1026 OFFCURVE",
"475 1020 CURVE SMOOTH",
"373 924 LINE",
"389 901 LINE"
);
}
);
width = 770;
}
);
leftKerningGroup = U;
note = Udieresisacute;
rightKerningGroup = U;
unicode = 01D7;
},
{
glyphname = Udieresiscaron;
lastChange = "2015-10-01 16:44:41 +0000";
layers = (
{
layerId = "100B1594-ACEA-4BEF-8FE3-15A73D27750B";
name = Regular;
paths = (
{
closed = 1;
nodes = (
"559 -10 OFFCURVE",
"650 60 OFFCURVE",
"650 213 CURVE SMOOTH",
"650 668 LINE",
"671 671 OFFCURVE",
"701 678 OFFCURVE",
"732 688 CURVE",
"732 700 LINE",
"524 700 LINE",
"524 688 LINE",
"551 679 OFFCURVE",
"578 673 OFFCURVE",
"606 670 CURVE",
"606 203 LINE SMOOTH",
"606 71 OFFCURVE",
"517 27 OFFCURVE",
"411 27 CURVE SMOOTH",
"301 27 OFFCURVE",
"211 67 OFFCURVE",
"211 203 CURVE SMOOTH",
"211 669 LINE",
"240 673 OFFCURVE",
"268 679 OFFCURVE",
"292 687 CURVE",
"292 700 LINE",
"38 700 LINE",
"38 688 LINE",
"64 679 OFFCURVE",
"92 673 OFFCURVE",
"119 669 CURVE",
"119 213 LINE SMOOTH",
"119 55 OFFCURVE",
"220 -10 OFFCURVE",
"388 -10 CURVE SMOOTH"
);
},
{
closed = 1;
nodes = (
"318 784 OFFCURVE",
"336 803 OFFCURVE",
"336 830 CURVE SMOOTH",
"336 856 OFFCURVE",
"318 876 OFFCURVE",
"292 876 CURVE SMOOTH",
"265 876 OFFCURVE",
"247 856 OFFCURVE",
"247 830 CURVE SMOOTH",
"247 803 OFFCURVE",
"265 784 OFFCURVE",
"292 784 CURVE SMOOTH"
);
},
{
closed = 1;
nodes = (
"539 784 OFFCURVE",
"557 803 OFFCURVE",
"557 830 CURVE SMOOTH",
"557 856 OFFCURVE",
"539 876 OFFCURVE",
"511 876 CURVE SMOOTH",
"485 876 OFFCURVE",
"467 856 OFFCURVE",
"467 830 CURVE SMOOTH",
"467 803 OFFCURVE",
"485 784 OFFCURVE",
"511 784 CURVE SMOOTH"
);
},
{
closed = 1;
nodes = (
"423 894 LINE",
"453 936 OFFCURVE",
"512 985 OFFCURVE",
"552 1013 CURVE",
"514 1044 LINE",
"476 1016 OFFCURVE",
"431 976 OFFCURVE",
"404 941 CURVE",
"400 941 LINE",
"373 976 OFFCURVE",
"328 1016 OFFCURVE",
"290 1044 CURVE",
"252 1013 LINE",
"292 985 OFFCURVE",
"351 936 OFFCURVE",
"381 894 CURVE"
);
}
);
width = 770;
}
);
leftKerningGroup = U;
note = Udieresiscaron;
rightKerningGroup = U;
unicode = 01D9;
},
{
glyphname = Udieresisgrave;
lastChange = "2015-10-01 16:44:41 +0000";
layers = (
{
layerId = "100B1594-ACEA-4BEF-8FE3-15A73D27750B";
name = Regular;
paths = (
{
closed = 1;
nodes = (
"559 -10 OFFCURVE",
"650 60 OFFCURVE",
"650 213 CURVE SMOOTH",
"650 668 LINE",
"671 671 OFFCURVE",
"701 678 OFFCURVE",
"732 688 CURVE",
"732 700 LINE",
"524 700 LINE",
"524 688 LINE",
"551 679 OFFCURVE",
"578 673 OFFCURVE",
"606 670 CURVE",
"606 203 LINE SMOOTH",
"606 71 OFFCURVE",
"517 27 OFFCURVE",
"411 27 CURVE SMOOTH",
"301 27 OFFCURVE",
"211 67 OFFCURVE",
"211 203 CURVE SMOOTH",
"211 669 LINE",
"240 673 OFFCURVE",
"268 679 OFFCURVE",
"292 687 CURVE",
"292 700 LINE",
"38 700 LINE",
"38 688 LINE",
"64 679 OFFCURVE",
"92 673 OFFCURVE",
"119 669 CURVE",
"119 213 LINE SMOOTH",
"119 55 OFFCURVE",
"220 -10 OFFCURVE",
"388 -10 CURVE SMOOTH"
);
},
{
closed = 1;
nodes = (
"315 785 OFFCURVE",
"333 803 OFFCURVE",
"333 830 CURVE SMOOTH",
"333 857 OFFCURVE",
"315 876 OFFCURVE",
"289 876 CURVE SMOOTH",
"262 876 OFFCURVE",
"244 857 OFFCURVE",
"244 830 CURVE SMOOTH",
"244 803 OFFCURVE",
"262 785 OFFCURVE",
"289 785 CURVE SMOOTH"
);
},
{
closed = 1;
nodes = (
"441 902 LINE",
"344 995 LINE SMOOTH",
"338 1001 OFFCURVE",
"320 1018 OFFCURVE",
"299 1018 CURVE SMOOTH",
"279 1018 OFFCURVE",
"268 1004 OFFCURVE",
"268 990 CURVE SMOOTH",
"268 975 OFFCURVE",
"279 960 OFFCURVE",
"300 948 CURVE SMOOTH",
"425 879 LINE"
);
},
{
closed = 1;
nodes = (
"536 785 OFFCURVE",
"554 803 OFFCURVE",
"554 830 CURVE SMOOTH",
"554 857 OFFCURVE",
"536 876 OFFCURVE",
"508 876 CURVE SMOOTH",
"482 876 OFFCURVE",
"464 857 OFFCURVE",
"464 830 CURVE SMOOTH",
"464 803 OFFCURVE",
"482 785 OFFCURVE",
"508 785 CURVE SMOOTH"
);
}
);
width = 770;
}
);
leftKerningGroup = U;
note = Udieresisgrave;
rightKerningGroup = U;
unicode = 01DB;
},
